<svg width="300" height="300" viewBox="0 0 300 300" fill="none" xmlns="http://www.w3.org/2000/svg">
<g id="Wotrald">
<rect id="Rectangle 1" width="300" height="300" opacity="0.7" fill="#FF474A"/>
<g id="globe-svg">
<path id="Vector" d="M188.437 89C188.437 67.7716 171.228 50.5627 150 50.5627C128.772 50.5627 111.562 67.7716 111.562 89C111.562 102.902 118.943 115.081 130 121.831C135.827 125.388 142.674 127.437 150 127.437C171.229 127.437 188.437 110.228 188.437 89Z" fill="white"/>
<g id="Group">
<path id="Vector_2" d="M140.033 93.1476L114.639 104.09C117.797 111.481 123.203 117.681 130 121.831C133.724 124.104 137.866 125.761 142.283 126.661L142.674 126.382L145.465 121.315H147.663C150.116 121.315 152.104 119.327 152.104 116.874V114.717C152.104 113.775 152.404 112.857 152.96 112.097L146.873 103.006L140.033 93.1476Z" fill="white"/>
<path id="Vector_3" d="M150 50.5627C142.597 50.5627 135.685 52.6573 129.819 56.2836V57.2632L139.366 60.8954C140.215 61.2184 140.763 62.0459 140.731 62.9534C141.5 65.1652 144.047 66.1866 146.131 65.1188L148.205 64.0229C154.23 60.8398 161.355 65.7182 160.567 72.4866L160.547 72.6513C160.354 74.3155 159.173 75.6429 157.587 76.0172C156.555 76.2608 155.38 76.541 154.373 76.7816C152.914 77.1305 151.79 78.2947 151.493 79.7655L150.153 86.4044C149.681 88.7369 151.415 90.935 153.793 91.0206L155.514 91.0825C156.009 91.1003 156.496 91.2134 156.949 91.4158L166.23 102.196L165.243 113.893C165.015 117.482 167.21 120.281 170.08 121.37L170.631 121.436C181.337 114.612 188.438 102.636 188.438 89C188.438 67.7716 171.229 50.5627 150 50.5627Z" fill="white"/>
</g>
<path id="Vector_4" d="M140 95.8889C140 88.0361 133.634 81.6702 125.781 81.6702C117.928 81.6702 111.562 88.0361 111.562 95.8889C111.562 99.2929 112.759 102.417 114.754 104.865H114.753L125.781 119L136.756 104.939H136.748C138.78 102.48 140 99.3273 140 95.8889Z" fill="#F5B955"/>
<path id="Vector_5" d="M125.781 103.615C129.923 103.615 133.281 100.258 133.281 96.1154C133.281 91.9733 129.923 88.6155 125.781 88.6155C121.639 88.6155 118.281 91.9733 118.281 96.1154C118.281 100.258 121.639 103.615 125.781 103.615Z" fill="white"/>
<path id="Vector_6" d="M188.437 62.0989C188.437 55.7275 183.272 50.5625 176.901 50.5625C170.53 50.5625 165.365 55.7275 165.365 62.0989C165.365 64.8609 166.336 67.3957 167.955 69.3818H167.954L176.901 80.8502L185.806 69.442H185.799C187.447 67.447 188.437 64.8885 188.437 62.0989Z" fill="#5A74FF"/>
<path id="Vector_7" d="M176.902 67.3031C179.674 67.3031 181.922 65.0554 181.922 62.2828C181.922 59.5101 179.674 57.2625 176.902 57.2625C174.129 57.2625 171.881 59.5101 171.881 62.2828C171.881 65.0554 174.129 67.3031 176.902 67.3031Z" fill="white"/>
<path id="Vector_8" d="M112.357 81.033C112.486 81.0657 112.615 81.0813 112.742 81.0813C113.44 81.0813 114.076 80.6102 114.255 79.9027L114.309 79.6932C114.527 78.858 114.027 78.0046 113.192 77.7868C112.357 77.569 111.503 78.0691 111.285 78.9039C111.265 78.9805 111.246 79.0574 111.226 79.1343C111.014 79.9707 111.52 80.8207 112.357 81.033Z" fill="black"/>
<path id="Vector_9" d="M114.547 74.0423C114.762 74.1438 114.989 74.1918 115.212 74.1918C115.798 74.1918 116.36 73.8605 116.626 73.2954C119.454 67.2965 123.814 62.2884 129.103 58.6514C129.154 58.6779 129.208 58.7025 129.263 58.7236L138.81 62.3556C139.034 62.4407 139.178 62.6584 139.169 62.8973C139.162 63.0906 139.191 63.2837 139.255 63.4665C139.77 64.9479 140.9 66.1326 142.356 66.7163C143.812 67.2999 145.447 67.2245 146.843 66.5095C146.849 66.5065 146.855 66.5035 146.861 66.5004L148.935 65.4045C151.242 64.1857 153.905 64.3378 156.058 65.812C158.211 67.2862 159.316 69.7137 159.014 72.306L158.995 72.4705C158.878 73.4755 158.185 74.2707 157.228 74.4965C156.195 74.7405 155.018 75.0208 154.01 75.2619C151.967 75.7505 150.378 77.3968 149.962 79.4561L148.621 86.095C148.305 87.6572 148.69 89.2709 149.677 90.5225C150.664 91.7741 152.144 92.5247 153.737 92.582L155.458 92.6439C155.754 92.6545 156.041 92.7214 156.311 92.8423C156.518 92.935 156.735 92.9789 156.948 92.9789C157.545 92.9787 158.116 92.6344 158.375 92.0537C158.728 91.2659 158.375 90.3417 157.587 89.9895C156.948 89.7039 156.269 89.5462 155.57 89.5211L153.849 89.4592C153.175 89.435 152.549 89.1173 152.131 88.5875C151.713 88.0578 151.55 87.3749 151.684 86.7138L153.025 80.0749C153.201 79.2043 153.873 78.508 154.737 78.3013C155.743 78.0608 156.916 77.7813 157.946 77.5379C160.164 77.0144 161.833 75.1233 162.1 72.8318L162.119 72.6673C162.557 68.9016 160.951 65.3751 157.823 63.2334C154.695 61.092 150.827 60.8706 147.475 62.6415L145.411 63.7323C144.813 64.0357 144.142 64.0656 143.519 63.8157C142.962 63.5923 142.531 63.18 142.288 62.6423C142.197 61.2132 141.281 59.9523 139.922 59.435L132.458 56.5956C137.76 53.7209 143.773 52.1253 150 52.1253C154.064 52.1253 158.057 52.7816 161.867 54.0761C162.685 54.3537 163.572 53.9164 163.849 53.0992C164.127 52.2822 163.69 51.3947 162.873 51.117C158.738 49.7125 154.407 49.0002 150 49.0002C142.267 49.0002 134.762 51.2109 128.298 55.3936C122.003 59.4667 116.99 65.1962 113.8 71.9627C113.432 72.7434 113.766 73.6744 114.547 74.0423Z" fill="black"/>
<path id="Vector_10" d="M186.513 76.8553C185.684 77.0938 185.205 77.9594 185.443 78.7888C186.393 82.0925 186.875 85.528 186.875 89C186.875 92.7806 186.305 96.5082 185.182 100.079C184.923 100.902 185.381 101.779 186.204 102.038C186.36 102.087 186.518 102.111 186.673 102.111C187.337 102.111 187.953 101.684 188.163 101.017C189.382 97.142 190 93.099 190 89C190 85.2358 189.477 81.5097 188.447 77.9252C188.208 77.0958 187.342 76.6168 186.513 76.8553Z" fill="black"/>
<path id="Vector_11" d="M184.079 106.896C183.42 106.506 182.432 106.616 181.92 107.476C181.917 107.481 181.914 107.486 181.911 107.491C181.408 108.356 181.792 109.273 182.453 109.66C182.688 109.797 182.963 109.871 183.243 109.871C183.754 109.871 184.282 109.626 184.609 109.069C185.117 108.206 184.738 107.287 184.079 106.896Z" fill="black"/>
<path id="Vector_12" d="M179.692 113.461C179.049 112.886 178.061 112.94 177.485 113.583C175.35 115.969 172.932 118.041 170.306 119.773C168.504 118.959 166.617 117.03 166.801 114.007L167.787 102.328C167.86 101.468 167.222 100.712 166.362 100.639C165.503 100.57 164.746 101.205 164.673 102.065L163.686 113.761C163.685 113.772 163.684 113.783 163.684 113.794C163.487 116.894 164.866 119.781 167.254 121.58C161.99 124.367 156.073 125.875 150 125.875C148.3 125.875 146.606 125.756 144.931 125.524L146.388 122.878H147.663C150.973 122.878 153.667 120.185 153.667 116.874V114.717C153.667 114.103 153.858 113.515 154.221 113.019C154.73 112.322 154.578 111.344 153.882 110.835C153.185 110.326 152.207 110.478 151.698 111.175C150.942 112.21 150.542 113.435 150.542 114.717V116.874C150.542 118.461 149.25 119.753 147.663 119.753H145.465C144.895 119.753 144.371 120.063 144.096 120.562L141.692 124.928C138.319 124.151 135.063 122.903 132.039 121.213C131.285 120.792 130.334 121.061 129.913 121.815C129.492 122.568 129.761 123.52 130.515 123.941C136.437 127.251 143.175 129 150 129C161.364 129 172.23 124.14 179.814 115.668C180.39 115.024 180.335 114.037 179.692 113.461Z" fill="black"/>
<g id="Point-1">
<path id="Vector_13" d="M138.05 105.815C139.891 103.542 141.059 100.793 141.433 97.9062L145.589 103.897C145.893 104.334 146.38 104.569 146.875 104.569C147.182 104.569 147.492 104.479 147.764 104.29C148.473 103.798 148.649 102.825 148.157 102.116L141.316 92.2569C141.245 92.1542 141.163 92.064 141.073 91.9842C139.331 85.1648 133.136 80.1077 125.781 80.1077C117.08 80.1077 110 87.1872 110 95.8889C110 99.4929 111.246 103.015 113.51 105.812C113.514 105.817 113.518 105.821 113.522 105.826L124.549 119.961C124.845 120.341 125.3 120.563 125.781 120.563C126.262 120.563 126.717 120.341 127.013 119.961L137.988 105.901C138.01 105.873 138.031 105.844 138.05 105.815ZM135.435 104.093L125.782 116.46L116.016 103.944C116 103.921 115.983 103.9 115.966 103.878C114.134 101.63 113.125 98.7932 113.125 95.8889C113.125 88.9103 118.803 83.2327 125.781 83.2327C132.76 83.2327 138.438 88.9103 138.438 95.8889C138.438 98.8245 137.41 101.685 135.544 103.944C135.504 103.992 135.468 104.042 135.435 104.093Z" fill="black"/>
<path id="Vector_14" d="M125.781 87.0533C120.784 87.0533 116.719 91.1187 116.719 96.1157C116.719 101.113 120.784 105.178 125.781 105.178C130.778 105.178 134.844 101.113 134.844 96.1157C134.844 91.1187 130.778 87.0533 125.781 87.0533ZM125.781 102.053C122.507 102.053 119.844 99.3896 119.844 96.1157C119.844 92.8419 122.507 90.1783 125.781 90.1783C129.055 90.1783 131.719 92.8419 131.719 96.1157C131.719 99.3896 129.055 102.053 125.781 102.053Z" fill="black"/>
</g>
<g id="Point-2">
<path id="Vector_15" d="M176.901 68.8654C180.531 68.8654 183.483 65.9126 183.483 62.2829C183.483 58.6534 180.531 55.7006 176.901 55.7006C173.272 55.7006 170.319 58.6534 170.319 62.2829C170.319 65.9124 173.272 68.8654 176.901 68.8654ZM176.901 58.8256C178.807 58.8256 180.358 60.3765 180.358 62.2829C180.358 64.1893 178.807 65.7404 176.901 65.7404C174.995 65.7404 173.444 64.1893 173.444 62.2829C173.444 60.3765 174.995 58.8256 176.901 58.8256Z" fill="black"/>
<path id="Vector_16" d="M166.713 70.3312C166.716 70.3349 166.719 70.339 166.722 70.3429L175.669 81.8111C175.965 82.1906 176.42 82.4125 176.901 82.4125C176.901 82.4125 176.901 82.4125 176.901 82.4125C177.382 82.4125 177.837 82.1908 178.133 81.8114L187.038 70.4032C187.057 70.3787 187.075 70.3538 187.093 70.3283C188.968 68.007 190 65.0901 190 62.0989C190 54.8761 184.124 49 176.901 49C169.678 49 163.802 54.8761 163.802 62.0989C163.802 65.0885 164.835 68.0101 166.713 70.3312ZM176.901 52.125C182.401 52.125 186.875 56.5993 186.875 62.0989C186.875 64.4123 186.065 66.6665 184.595 68.4466C184.558 68.491 184.524 68.5371 184.493 68.5846L176.901 78.3102L169.214 68.4569C169.199 68.4359 169.182 68.4149 169.166 68.3946C167.722 66.6235 166.927 64.3876 166.927 62.0989C166.927 56.5993 171.401 52.125 176.901 52.125Z" fill="black"/>
</g>
<path id="Vector_17" d="M139.679 113.457L138.972 113.791C138.192 114.159 137.858 115.09 138.227 115.871C138.494 116.435 139.055 116.766 139.641 116.766C139.864 116.766 140.092 116.718 140.307 116.616L141.014 116.282C141.794 115.914 142.128 114.982 141.759 114.202C141.39 113.422 140.459 113.089 139.679 113.457Z" fill="black"/>
<path id="Vector_18" d="M176.901 88.703C176.038 88.703 175.339 89.4026 175.339 90.2655C175.339 90.467 175.327 90.6703 175.305 90.8694C175.208 91.7269 175.824 92.5004 176.682 92.5975C176.741 92.6042 176.8 92.6075 176.859 92.6075C177.643 92.6075 178.32 92.0183 178.41 91.2203C178.445 90.905 178.463 90.5839 178.463 90.2655C178.464 89.4025 177.764 88.703 176.901 88.703Z" fill="black"/>
<path id="Vector_19" d="M165.978 95.5625C165.115 95.5625 164.415 96.2622 164.415 97.125C164.415 97.9878 165.115 98.6875 165.978 98.6875H166.759C167.622 98.6875 168.321 97.9878 168.321 97.125C168.321 96.2622 167.622 95.5625 166.759 95.5625H165.978Z" fill="black"/>
<path id="Vector_20" d="M172.793 94.7931C172.622 94.8973 172.443 94.9926 172.26 95.077C171.477 95.4394 171.136 96.3683 171.499 97.1512C171.763 97.7218 172.328 98.0578 172.918 98.0578C173.137 98.0578 173.361 98.0112 173.573 97.9129C173.862 97.7792 174.146 97.6276 174.418 97.4623C175.155 97.0136 175.389 96.0523 174.94 95.3151C174.491 94.5783 173.53 94.3448 172.793 94.7931Z" fill="black"/>
<path id="Vector_21" d="M149.229 105.175L148.81 105.835C148.347 106.563 148.562 107.529 149.29 107.992C149.55 108.157 149.84 108.236 150.127 108.236C150.643 108.236 151.149 107.98 151.447 107.511L151.866 106.852C152.329 106.124 152.114 105.158 151.385 104.695C150.658 104.232 149.692 104.447 149.229 105.175Z" fill="black"/>
<path id="Vector_22" d="M155.158 98.7615C154.43 98.2987 153.464 98.5136 153.001 99.2417L152.582 99.9009C152.119 100.629 152.334 101.595 153.062 102.058C153.322 102.223 153.612 102.302 153.899 102.302C154.416 102.302 154.921 102.046 155.219 101.578L155.638 100.918C156.101 100.19 155.886 99.2245 155.158 98.7615Z" fill="black"/>
<path id="Vector_23" d="M146.036 110.454L145.33 110.787C144.55 111.156 144.216 112.087 144.585 112.868C144.851 113.432 145.413 113.763 145.998 113.763C146.222 113.763 146.449 113.715 146.665 113.613L147.371 113.279C148.152 112.911 148.485 111.979 148.117 111.199C147.748 110.419 146.817 110.085 146.036 110.454Z" fill="black"/>
<path id="Vector_24" d="M158.946 95.5625C158.083 95.5625 157.384 96.2622 157.384 97.125C157.384 97.9878 158.083 98.6875 158.946 98.6875H159.728C160.591 98.6875 161.29 97.9878 161.29 97.125C161.29 96.2622 160.591 95.5625 159.728 95.5625H158.946Z" fill="black"/>
</g>
<path id="Wotrald_2" d="M121.936 159.152L113.872 185H110.416L104.116 165.83C103.972 165.446 103.846 164.984 103.738 164.444C103.606 164.996 103.48 165.458 103.36 165.83L96.988 185H93.55L85.486 159.152H88.69C89.026 159.152 89.308 159.236 89.536 159.404C89.764 159.56 89.914 159.776 89.986 160.052L95.08 177.35C95.176 177.686 95.26 178.052 95.332 178.448C95.416 178.844 95.5 179.258 95.584 179.69C95.668 179.258 95.752 178.844 95.836 178.448C95.932 178.052 96.04 177.686 96.16 177.35L101.992 160.052C102.064 159.812 102.214 159.602 102.442 159.422C102.682 159.242 102.964 159.152 103.288 159.152H104.386C104.722 159.152 104.998 159.236 105.214 159.404C105.43 159.572 105.586 159.788 105.682 160.052L111.496 177.35C111.712 178.01 111.904 178.76 112.072 179.6C112.216 178.772 112.372 178.022 112.54 177.35L117.652 160.052C117.712 159.812 117.862 159.602 118.102 159.422C118.342 159.242 118.624 159.152 118.948 159.152H121.936ZM130.592 166.424C131.936 166.424 133.148 166.646 134.228 167.09C135.32 167.522 136.244 168.152 137 168.98C137.768 169.796 138.356 170.786 138.764 171.95C139.172 173.102 139.376 174.398 139.376 175.838C139.376 177.278 139.172 178.58 138.764 179.744C138.356 180.908 137.768 181.898 137 182.714C136.244 183.53 135.32 184.16 134.228 184.604C133.148 185.036 131.936 185.252 130.592 185.252C129.236 185.252 128.012 185.036 126.92 184.604C125.84 184.16 124.916 183.53 124.148 182.714C123.38 181.898 122.786 180.908 122.366 179.744C121.958 178.58 121.754 177.278 121.754 175.838C121.754 174.398 121.958 173.102 122.366 171.95C122.786 170.786 123.38 169.796 124.148 168.98C124.916 168.152 125.84 167.522 126.92 167.09C128.012 166.646 129.236 166.424 130.592 166.424ZM130.592 182.516C132.32 182.516 133.61 181.934 134.462 180.77C135.314 179.606 135.74 177.968 135.74 175.856C135.74 173.744 135.314 172.106 134.462 170.942C133.61 169.766 132.32 169.178 130.592 169.178C128.84 169.178 127.532 169.766 126.668 170.942C125.816 172.106 125.39 173.744 125.39 175.856C125.39 177.968 125.816 179.606 126.668 180.77C127.532 181.934 128.84 182.516 130.592 182.516ZM148.667 185.288C147.191 185.288 146.051 184.874 145.247 184.046C144.455 183.218 144.059 182.036 144.059 180.5V169.556H141.935C141.731 169.556 141.557 169.496 141.413 169.376C141.281 169.244 141.215 169.052 141.215 168.8V167.378L144.185 166.964L144.977 161.51C145.025 161.306 145.115 161.15 145.247 161.042C145.391 160.922 145.571 160.862 145.787 160.862H147.569V167H152.753V169.556H147.569V180.266C147.569 180.986 147.743 181.526 148.091 181.886C148.451 182.234 148.907 182.408 149.459 182.408C149.783 182.408 150.059 182.366 150.287 182.282C150.527 182.198 150.731 182.108 150.899 182.012C151.067 181.904 151.211 181.808 151.331 181.724C151.451 181.64 151.559 181.598 151.655 181.598C151.775 181.598 151.865 181.628 151.925 181.688C151.997 181.736 152.069 181.82 152.141 181.94L153.185 183.632C152.609 184.16 151.925 184.568 151.133 184.856C150.341 185.144 149.519 185.288 148.667 185.288ZM159.298 170.222C159.886 169.022 160.594 168.08 161.422 167.396C162.25 166.712 163.246 166.37 164.41 166.37C164.806 166.37 165.178 166.418 165.526 166.514C165.886 166.598 166.198 166.73 166.462 166.91L166.228 169.556C166.144 169.88 165.946 170.042 165.634 170.042C165.466 170.042 165.214 170.012 164.878 169.952C164.542 169.88 164.182 169.844 163.798 169.844C163.234 169.844 162.736 169.928 162.304 170.096C161.872 170.252 161.482 170.492 161.134 170.816C160.798 171.128 160.498 171.518 160.234 171.986C159.97 172.442 159.724 172.964 159.496 173.552V185H155.986V166.712H158.002C158.386 166.712 158.644 166.784 158.776 166.928C158.92 167.06 159.022 167.3 159.082 167.648L159.298 170.222ZM178.716 176.882C177.288 176.93 176.076 177.044 175.08 177.224C174.084 177.392 173.274 177.62 172.65 177.908C172.026 178.196 171.576 178.538 171.3 178.934C171.024 179.318 170.886 179.75 170.886 180.23C170.886 180.686 170.958 181.082 171.102 181.418C171.258 181.742 171.462 182.012 171.714 182.228C171.978 182.432 172.284 182.582 172.632 182.678C172.98 182.774 173.358 182.822 173.766 182.822C174.306 182.822 174.798 182.768 175.242 182.66C175.698 182.552 176.124 182.402 176.52 182.21C176.916 182.006 177.294 181.76 177.654 181.472C178.014 181.184 178.368 180.854 178.716 180.482V176.882ZM168.42 169.268C169.44 168.296 170.544 167.57 171.732 167.09C172.932 166.61 174.246 166.37 175.674 166.37C176.718 166.37 177.642 166.544 178.446 166.892C179.25 167.228 179.928 167.702 180.48 168.314C181.032 168.926 181.446 169.658 181.722 170.51C182.01 171.362 182.154 172.304 182.154 173.336V185H180.588C180.24 185 179.976 184.946 179.796 184.838C179.616 184.718 179.472 184.502 179.364 184.19L178.986 182.588C178.518 183.02 178.056 183.404 177.6 183.74C177.144 184.064 176.664 184.346 176.16 184.586C175.668 184.814 175.14 184.988 174.576 185.108C174.012 185.228 173.388 185.288 172.704 185.288C171.984 185.288 171.306 185.192 170.67 185C170.046 184.796 169.5 184.49 169.032 184.082C168.564 183.674 168.192 183.164 167.916 182.552C167.652 181.94 167.52 181.226 167.52 180.41C167.52 179.69 167.712 179 168.096 178.34C168.492 177.668 169.128 177.068 170.004 176.54C170.892 176.012 172.044 175.58 173.46 175.244C174.888 174.908 176.64 174.716 178.716 174.668V173.336C178.716 171.956 178.422 170.924 177.834 170.24C177.246 169.556 176.382 169.214 175.242 169.214C174.474 169.214 173.826 169.31 173.298 169.502C172.782 169.694 172.332 169.91 171.948 170.15C171.576 170.378 171.246 170.588 170.958 170.78C170.682 170.972 170.394 171.068 170.094 171.068C169.854 171.068 169.644 171.002 169.464 170.87C169.296 170.738 169.158 170.582 169.05 170.402L168.42 169.268ZM190.453 158.432V185H186.925V158.432H190.453ZM207.256 171.14C206.68 170.384 206.056 169.856 205.384 169.556C204.724 169.256 203.98 169.106 203.152 169.106C201.544 169.106 200.296 169.688 199.408 170.852C198.532 172.004 198.094 173.69 198.094 175.91C198.094 177.074 198.19 178.07 198.382 178.898C198.586 179.714 198.874 180.386 199.246 180.914C199.63 181.43 200.098 181.814 200.65 182.066C201.202 182.306 201.826 182.426 202.522 182.426C203.542 182.426 204.424 182.198 205.168 181.742C205.912 181.286 206.608 180.644 207.256 179.816V171.14ZM210.784 158.432V185H208.66C208.168 185 207.862 184.766 207.742 184.298L207.436 182.192C206.656 183.116 205.768 183.86 204.772 184.424C203.788 184.976 202.648 185.252 201.352 185.252C200.308 185.252 199.36 185.048 198.508 184.64C197.668 184.232 196.948 183.638 196.348 182.858C195.748 182.066 195.286 181.088 194.962 179.924C194.638 178.76 194.476 177.422 194.476 175.91C194.476 174.554 194.656 173.294 195.016 172.13C195.376 170.966 195.898 169.958 196.582 169.106C197.266 168.254 198.094 167.588 199.066 167.108C200.038 166.616 201.136 166.37 202.36 166.37C203.464 166.37 204.4 166.55 205.168 166.91C205.948 167.27 206.644 167.78 207.256 168.44V158.432H210.784Z" fill="white"/>
<path id="Turism and Travel Agency" d="M59.9023 207.795H55.8613V219H53.7643V207.795H49.7143V206.04H59.9023V207.795ZM67.3106 209.82V219H66.1406C65.8826 219 65.7176 218.877 65.6456 218.631L65.5016 217.776C65.3096 217.98 65.1056 218.166 64.8896 218.334C64.6796 218.502 64.4546 218.646 64.2146 218.766C63.9746 218.886 63.7166 218.979 63.4406 219.045C63.1706 219.111 62.8796 219.144 62.5676 219.144C62.0636 219.144 61.6196 219.06 61.2356 218.892C60.8516 218.724 60.5276 218.487 60.2636 218.181C60.0056 217.875 59.8106 217.509 59.6786 217.083C59.5466 216.651 59.4806 216.177 59.4806 215.661V209.82H61.4156V215.661C61.4156 216.279 61.5566 216.759 61.8386 217.101C62.1266 217.443 62.5616 217.614 63.1436 217.614C63.5696 217.614 63.9656 217.518 64.3316 217.326C64.7036 217.128 65.0516 216.858 65.3756 216.516V209.82H67.3106ZM71.4874 211.521C71.7754 210.939 72.1234 210.483 72.5314 210.153C72.9394 209.817 73.4284 209.649 73.9984 209.649C74.1964 209.649 74.3824 209.673 74.5564 209.721C74.7304 209.763 74.8864 209.829 75.0244 209.919L74.8894 211.377C74.8654 211.479 74.8264 211.551 74.7724 211.593C74.7244 211.629 74.6584 211.647 74.5744 211.647C74.4844 211.647 74.3554 211.632 74.1874 211.602C74.0194 211.566 73.8424 211.548 73.6564 211.548C73.3864 211.548 73.1464 211.587 72.9364 211.665C72.7324 211.743 72.5464 211.857 72.3784 212.007C72.2164 212.157 72.0724 212.34 71.9464 212.556C71.8204 212.772 71.7034 213.018 71.5954 213.294V219H69.6604V209.82H70.7854C70.9894 209.82 71.1304 209.859 71.2084 209.937C71.2864 210.009 71.3404 210.138 71.3704 210.324L71.4874 211.521ZM78.321 209.82V219H76.386V209.82H78.321ZM78.645 207.048C78.645 207.222 78.609 207.387 78.537 207.543C78.471 207.699 78.378 207.837 78.258 207.957C78.138 208.071 77.997 208.164 77.835 208.236C77.679 208.302 77.511 208.335 77.331 208.335C77.157 208.335 76.992 208.302 76.836 208.236C76.686 208.164 76.554 208.071 76.44 207.957C76.326 207.837 76.233 207.699 76.161 207.543C76.095 207.387 76.062 207.222 76.062 207.048C76.062 206.868 76.095 206.7 76.161 206.544C76.233 206.388 76.326 206.253 76.44 206.139C76.554 206.019 76.686 205.926 76.836 205.86C76.992 205.788 77.157 205.752 77.331 205.752C77.511 205.752 77.679 205.788 77.835 205.86C77.997 205.926 78.138 206.019 78.258 206.139C78.378 206.253 78.471 206.388 78.537 206.544C78.609 206.7 78.645 206.868 78.645 207.048ZM86.2332 211.485C86.1852 211.569 86.1312 211.629 86.0712 211.665C86.0112 211.701 85.9362 211.719 85.8462 211.719C85.7442 211.719 85.6332 211.689 85.5132 211.629C85.3932 211.563 85.2522 211.491 85.0902 211.413C84.9282 211.335 84.7362 211.266 84.5142 211.206C84.2982 211.14 84.0432 211.107 83.7492 211.107C83.5092 211.107 83.2902 211.137 83.0922 211.197C82.9002 211.251 82.7352 211.332 82.5972 211.44C82.4652 211.542 82.3632 211.665 82.2912 211.809C82.2192 211.947 82.1832 212.097 82.1832 212.259C82.1832 212.475 82.2492 212.655 82.3812 212.799C82.5132 212.943 82.6872 213.069 82.9032 213.177C83.1192 213.279 83.3652 213.372 83.6412 213.456C83.9172 213.54 84.1992 213.63 84.4872 213.726C84.7752 213.822 85.0572 213.933 85.3332 214.059C85.6092 214.185 85.8552 214.341 86.0712 214.527C86.2872 214.707 86.4612 214.929 86.5932 215.193C86.7252 215.451 86.7912 215.766 86.7912 216.138C86.7912 216.57 86.7132 216.969 86.5572 217.335C86.4012 217.701 86.1732 218.019 85.8732 218.289C85.5732 218.559 85.1982 218.769 84.7482 218.919C84.3042 219.069 83.7942 219.144 83.2182 219.144C82.9002 219.144 82.5912 219.114 82.2912 219.054C81.9972 219 81.7152 218.925 81.4452 218.829C81.1812 218.727 80.9322 218.607 80.6982 218.469C80.4702 218.331 80.2662 218.181 80.0862 218.019L80.5362 217.281C80.5902 217.191 80.6562 217.122 80.7342 217.074C80.8182 217.02 80.9202 216.993 81.0402 216.993C81.1662 216.993 81.2892 217.035 81.4092 217.119C81.5352 217.197 81.6792 217.284 81.8412 217.38C82.0092 217.476 82.2102 217.566 82.4442 217.65C82.6782 217.728 82.9692 217.767 83.3172 217.767C83.6052 217.767 83.8542 217.734 84.0642 217.668C84.2742 217.596 84.4482 217.5 84.5862 217.38C84.7242 217.26 84.8262 217.125 84.8922 216.975C84.9582 216.819 84.9912 216.654 84.9912 216.48C84.9912 216.246 84.9252 216.054 84.7932 215.904C84.6612 215.754 84.4842 215.625 84.2622 215.517C84.0462 215.409 83.7972 215.313 83.5152 215.229C83.2392 215.145 82.9572 215.055 82.6692 214.959C82.3812 214.863 82.0962 214.752 81.8142 214.626C81.5382 214.5 81.2892 214.341 81.0672 214.149C80.8512 213.951 80.6772 213.714 80.5452 213.438C80.4132 213.156 80.3472 212.814 80.3472 212.412C80.3472 212.046 80.4192 211.698 80.5632 211.368C80.7132 211.038 80.9292 210.747 81.2112 210.495C81.4992 210.243 81.8502 210.045 82.2642 209.901C82.6842 209.751 83.1672 209.676 83.7132 209.676C84.3312 209.676 84.8922 209.775 85.3962 209.973C85.9002 210.171 86.3232 210.441 86.6652 210.783L86.2332 211.485ZM88.6097 219V209.82H89.7797C90.0437 209.82 90.2117 209.943 90.2837 210.189L90.4097 210.99C90.5777 210.798 90.7517 210.624 90.9317 210.468C91.1117 210.306 91.3037 210.168 91.5077 210.054C91.7177 209.934 91.9397 209.841 92.1737 209.775C92.4137 209.709 92.6717 209.676 92.9477 209.676C93.2417 209.676 93.5117 209.718 93.7577 209.802C94.0037 209.886 94.2197 210.006 94.4057 210.162C94.5977 210.318 94.7627 210.507 94.9007 210.729C95.0387 210.951 95.1527 211.2 95.2427 211.476C95.3807 211.158 95.5547 210.885 95.7647 210.657C95.9747 210.429 96.2087 210.243 96.4667 210.099C96.7247 209.955 96.9977 209.85 97.2857 209.784C97.5797 209.712 97.8767 209.676 98.1767 209.676C98.6687 209.676 99.1067 209.754 99.4907 209.91C99.8807 210.066 100.208 210.294 100.472 210.594C100.742 210.888 100.946 211.251 101.084 211.683C101.222 212.115 101.291 212.607 101.291 213.159V219H99.3557V213.159C99.3557 212.511 99.2147 212.025 98.9327 211.701C98.6567 211.371 98.2457 211.206 97.6997 211.206C97.4537 211.206 97.2227 211.248 97.0067 211.332C96.7907 211.416 96.6017 211.539 96.4397 211.701C96.2777 211.863 96.1487 212.067 96.0527 212.313C95.9627 212.553 95.9177 212.835 95.9177 213.159V219H93.9827V213.159C93.9827 212.487 93.8477 211.995 93.5777 211.683C93.3077 211.365 92.9117 211.206 92.3897 211.206C92.0297 211.206 91.6967 211.299 91.3907 211.485C91.0847 211.665 90.8027 211.914 90.5447 212.232V219H88.6097ZM112.938 214.986C112.248 215.01 111.666 215.067 111.192 215.157C110.718 215.241 110.334 215.352 110.04 215.49C109.746 215.622 109.533 215.781 109.401 215.967C109.275 216.153 109.212 216.357 109.212 216.579C109.212 216.795 109.245 216.981 109.311 217.137C109.383 217.287 109.479 217.413 109.599 217.515C109.725 217.611 109.869 217.683 110.031 217.731C110.199 217.773 110.382 217.794 110.58 217.794C111.084 217.794 111.516 217.701 111.876 217.515C112.242 217.323 112.596 217.047 112.938 216.687V214.986ZM107.808 211.098C108.846 210.132 110.082 209.649 111.516 209.649C112.044 209.649 112.512 209.736 112.92 209.91C113.334 210.078 113.679 210.318 113.955 210.63C114.237 210.942 114.45 211.314 114.594 211.746C114.744 212.172 114.819 212.646 114.819 213.168V219H113.955C113.769 219 113.628 218.973 113.532 218.919C113.436 218.859 113.355 218.742 113.289 218.568L113.1 217.821C112.866 218.031 112.635 218.22 112.407 218.388C112.179 218.55 111.942 218.688 111.696 218.802C111.456 218.916 111.195 219 110.913 219.054C110.637 219.114 110.331 219.144 109.995 219.144C109.623 219.144 109.275 219.093 108.951 218.991C108.633 218.889 108.357 218.736 108.123 218.532C107.889 218.322 107.703 218.064 107.565 217.758C107.433 217.452 107.367 217.092 107.367 216.678C107.367 216.324 107.46 215.979 107.646 215.643C107.838 215.307 108.15 215.007 108.582 214.743C109.02 214.473 109.593 214.251 110.301 214.077C111.015 213.903 111.894 213.804 112.938 213.78V213.168C112.938 212.508 112.797 212.016 112.515 211.692C112.233 211.368 111.819 211.206 111.273 211.206C110.901 211.206 110.589 211.254 110.337 211.35C110.085 211.44 109.866 211.539 109.68 211.647C109.494 211.755 109.329 211.857 109.185 211.953C109.041 212.043 108.888 212.088 108.726 212.088C108.594 212.088 108.48 212.055 108.384 211.989C108.294 211.917 108.219 211.83 108.159 211.728L107.808 211.098ZM118.895 211.035C119.093 210.831 119.297 210.648 119.507 210.486C119.723 210.318 119.951 210.174 120.191 210.054C120.431 209.934 120.686 209.841 120.956 209.775C121.226 209.709 121.52 209.676 121.838 209.676C122.342 209.676 122.783 209.76 123.161 209.928C123.545 210.096 123.866 210.333 124.124 210.639C124.388 210.945 124.586 211.314 124.718 211.746C124.85 212.172 124.916 212.643 124.916 213.159V219H122.99V213.159C122.99 212.541 122.846 212.061 122.558 211.719C122.276 211.377 121.844 211.206 121.262 211.206C120.83 211.206 120.428 211.305 120.056 211.503C119.69 211.701 119.345 211.971 119.021 212.313V219H117.086V209.82H118.256C118.52 209.82 118.688 209.943 118.76 210.189L118.895 211.035ZM133.035 212.079C132.765 211.731 132.468 211.488 132.144 211.35C131.82 211.212 131.469 211.143 131.091 211.143C130.335 211.143 129.744 211.422 129.318 211.98C128.892 212.532 128.679 213.351 128.679 214.437C128.679 215.001 128.727 215.484 128.823 215.886C128.919 216.282 129.057 216.606 129.237 216.858C129.417 217.11 129.636 217.293 129.894 217.407C130.152 217.521 130.443 217.578 130.767 217.578C131.259 217.578 131.682 217.473 132.036 217.263C132.396 217.047 132.729 216.744 133.035 216.354V212.079ZM134.97 205.68V219H133.8C133.542 219 133.377 218.877 133.305 218.631L133.134 217.632C132.75 218.082 132.312 218.445 131.82 218.721C131.334 218.997 130.767 219.135 130.119 219.135C129.603 219.135 129.135 219.033 128.715 218.829C128.295 218.619 127.935 218.316 127.635 217.92C127.335 217.524 127.101 217.035 126.933 216.453C126.771 215.865 126.69 215.193 126.69 214.437C126.69 213.753 126.78 213.12 126.96 212.538C127.146 211.956 127.41 211.452 127.752 211.026C128.094 210.594 128.508 210.258 128.994 210.018C129.486 209.772 130.035 209.649 130.641 209.649C131.181 209.649 131.64 209.736 132.018 209.91C132.396 210.078 132.735 210.315 133.035 210.621V205.68H134.97ZM150.553 207.795H146.512V219H144.415V207.795H140.365V206.04H150.553V207.795ZM151.925 211.521C152.213 210.939 152.561 210.483 152.969 210.153C153.377 209.817 153.866 209.649 154.436 209.649C154.634 209.649 154.82 209.673 154.994 209.721C155.168 209.763 155.324 209.829 155.462 209.919L155.327 211.377C155.303 211.479 155.264 211.551 155.21 211.593C155.162 211.629 155.096 211.647 155.012 211.647C154.922 211.647 154.793 211.632 154.625 211.602C154.457 211.566 154.28 211.548 154.094 211.548C153.824 211.548 153.584 211.587 153.374 211.665C153.17 211.743 152.984 211.857 152.816 212.007C152.654 212.157 152.51 212.34 152.384 212.556C152.258 212.772 152.141 213.018 152.033 213.294V219H150.098V209.82H151.223C151.427 209.82 151.568 209.859 151.646 209.937C151.724 210.009 151.778 210.138 151.808 210.324L151.925 211.521ZM161.507 214.986C160.817 215.01 160.235 215.067 159.761 215.157C159.287 215.241 158.903 215.352 158.609 215.49C158.315 215.622 158.102 215.781 157.97 215.967C157.844 216.153 157.781 216.357 157.781 216.579C157.781 216.795 157.814 216.981 157.88 217.137C157.952 217.287 158.048 217.413 158.168 217.515C158.294 217.611 158.438 217.683 158.6 217.731C158.768 217.773 158.951 217.794 159.149 217.794C159.653 217.794 160.085 217.701 160.445 217.515C160.811 217.323 161.165 217.047 161.507 216.687V214.986ZM156.377 211.098C157.415 210.132 158.651 209.649 160.085 209.649C160.613 209.649 161.081 209.736 161.489 209.91C161.903 210.078 162.248 210.318 162.524 210.63C162.806 210.942 163.019 211.314 163.163 211.746C163.313 212.172 163.388 212.646 163.388 213.168V219H162.524C162.338 219 162.197 218.973 162.101 218.919C162.005 218.859 161.924 218.742 161.858 218.568L161.669 217.821C161.435 218.031 161.204 218.22 160.976 218.388C160.748 218.55 160.511 218.688 160.265 218.802C160.025 218.916 159.764 219 159.482 219.054C159.206 219.114 158.9 219.144 158.564 219.144C158.192 219.144 157.844 219.093 157.52 218.991C157.202 218.889 156.926 218.736 156.692 218.532C156.458 218.322 156.272 218.064 156.134 217.758C156.002 217.452 155.936 217.092 155.936 216.678C155.936 216.324 156.029 215.979 156.215 215.643C156.407 215.307 156.719 215.007 157.151 214.743C157.589 214.473 158.162 214.251 158.87 214.077C159.584 213.903 160.463 213.804 161.507 213.78V213.168C161.507 212.508 161.366 212.016 161.084 211.692C160.802 211.368 160.388 211.206 159.842 211.206C159.47 211.206 159.158 211.254 158.906 211.35C158.654 211.44 158.435 211.539 158.249 211.647C158.063 211.755 157.898 211.857 157.754 211.953C157.61 212.043 157.457 212.088 157.295 212.088C157.163 212.088 157.049 212.055 156.953 211.989C156.863 211.917 156.788 211.83 156.728 211.728L156.377 211.098ZM173.526 209.82L169.836 219H168.09L164.4 209.82H165.993C166.143 209.82 166.266 209.859 166.362 209.937C166.464 210.009 166.53 210.096 166.56 210.198L168.594 215.544C168.678 215.796 168.753 216.045 168.819 216.291C168.885 216.537 168.942 216.786 168.99 217.038C169.038 216.786 169.095 216.54 169.161 216.3C169.233 216.054 169.311 215.802 169.395 215.544L171.465 210.198C171.501 210.09 171.567 210 171.663 209.928C171.759 209.856 171.876 209.82 172.014 209.82H173.526ZM180.605 213.375C180.605 213.051 180.557 212.751 180.461 212.475C180.371 212.193 180.236 211.95 180.056 211.746C179.876 211.536 179.651 211.374 179.381 211.26C179.117 211.14 178.811 211.08 178.463 211.08C177.761 211.08 177.209 211.281 176.807 211.683C176.405 212.085 176.15 212.649 176.042 213.375H180.605ZM175.988 214.563C176.012 215.085 176.093 215.538 176.231 215.922C176.369 216.3 176.552 216.615 176.78 216.867C177.014 217.119 177.29 217.308 177.608 217.434C177.932 217.554 178.292 217.614 178.688 217.614C179.066 217.614 179.393 217.572 179.669 217.488C179.945 217.398 180.185 217.302 180.389 217.2C180.593 217.092 180.767 216.996 180.911 216.912C181.055 216.822 181.187 216.777 181.307 216.777C181.463 216.777 181.583 216.837 181.667 216.957L182.216 217.668C181.988 217.938 181.73 218.166 181.442 218.352C181.154 218.538 180.848 218.691 180.524 218.811C180.2 218.925 179.867 219.006 179.525 219.054C179.183 219.108 178.85 219.135 178.526 219.135C177.89 219.135 177.299 219.03 176.753 218.82C176.213 218.604 175.742 218.289 175.34 217.875C174.944 217.461 174.632 216.948 174.404 216.336C174.182 215.724 174.071 215.019 174.071 214.221C174.071 213.585 174.17 212.991 174.368 212.439C174.572 211.887 174.86 211.407 175.232 210.999C175.61 210.591 176.066 210.27 176.6 210.036C177.14 209.796 177.749 209.676 178.427 209.676C178.991 209.676 179.513 209.769 179.993 209.955C180.473 210.135 180.887 210.402 181.235 210.756C181.583 211.11 181.853 211.545 182.045 212.061C182.243 212.571 182.342 213.153 182.342 213.807C182.342 214.107 182.309 214.308 182.243 214.41C182.177 214.512 182.057 214.563 181.883 214.563H175.988ZM186.118 205.68V219H184.183V205.68H186.118ZM199.609 214.14L197.827 209.406C197.683 209.04 197.536 208.575 197.386 208.011C197.32 208.293 197.248 208.554 197.17 208.794C197.092 209.028 197.02 209.235 196.954 209.415L195.172 214.14H199.609ZM203.596 219H201.967C201.781 219 201.631 218.955 201.517 218.865C201.403 218.769 201.316 218.652 201.256 218.514L200.176 215.652H194.596L193.516 218.514C193.468 218.634 193.384 218.745 193.264 218.847C193.144 218.949 192.994 219 192.814 219H191.185L196.324 206.04H198.457L203.596 219ZM208.024 214.329C208.624 214.329 209.074 214.176 209.374 213.87C209.674 213.564 209.824 213.165 209.824 212.673C209.824 212.169 209.674 211.77 209.374 211.476C209.074 211.182 208.624 211.035 208.024 211.035C207.43 211.035 206.98 211.182 206.674 211.476C206.374 211.77 206.224 212.169 206.224 212.673C206.224 212.913 206.263 213.135 206.341 213.339C206.419 213.543 206.533 213.72 206.683 213.87C206.833 214.014 207.019 214.128 207.241 214.212C207.469 214.29 207.73 214.329 208.024 214.329ZM210.715 219.45C210.715 219.246 210.655 219.084 210.535 218.964C210.421 218.838 210.265 218.742 210.067 218.676C209.869 218.604 209.638 218.553 209.374 218.523C209.11 218.487 208.828 218.463 208.528 218.451C208.234 218.433 207.931 218.418 207.619 218.406C207.313 218.388 207.016 218.358 206.728 218.316C206.44 218.466 206.203 218.646 206.017 218.856C205.837 219.066 205.747 219.309 205.747 219.585C205.747 219.765 205.792 219.933 205.882 220.089C205.978 220.245 206.122 220.38 206.314 220.494C206.512 220.608 206.761 220.698 207.061 220.764C207.367 220.83 207.733 220.863 208.159 220.863C209.011 220.863 209.65 220.731 210.076 220.467C210.502 220.203 210.715 219.864 210.715 219.45ZM212.659 210.153V210.873C212.659 211.113 212.515 211.26 212.227 211.314L211.309 211.467C211.465 211.815 211.543 212.202 211.543 212.628C211.543 213.078 211.453 213.486 211.273 213.852C211.099 214.218 210.856 214.53 210.544 214.788C210.232 215.046 209.86 215.244 209.428 215.382C208.996 215.52 208.528 215.589 208.024 215.589C207.832 215.589 207.643 215.58 207.457 215.562C207.277 215.538 207.1 215.508 206.926 215.472C206.752 215.574 206.623 215.682 206.539 215.796C206.455 215.91 206.413 216.027 206.413 216.147C206.413 216.345 206.5 216.492 206.674 216.588C206.848 216.684 207.076 216.753 207.358 216.795C207.646 216.837 207.973 216.864 208.339 216.876C208.705 216.888 209.077 216.909 209.455 216.939C209.833 216.969 210.205 217.02 210.571 217.092C210.937 217.158 211.261 217.272 211.543 217.434C211.831 217.59 212.062 217.803 212.236 218.073C212.41 218.343 212.497 218.694 212.497 219.126C212.497 219.522 212.398 219.909 212.2 220.287C212.002 220.665 211.714 221.001 211.336 221.295C210.964 221.589 210.508 221.823 209.968 221.997C209.428 222.177 208.813 222.267 208.123 222.267C207.439 222.267 206.842 222.201 206.332 222.069C205.828 221.937 205.405 221.757 205.063 221.529C204.727 221.307 204.475 221.049 204.307 220.755C204.145 220.461 204.064 220.155 204.064 219.837C204.064 219.405 204.199 219.036 204.469 218.73C204.745 218.424 205.117 218.184 205.585 218.01C205.333 217.89 205.129 217.725 204.973 217.515C204.823 217.305 204.748 217.029 204.748 216.687C204.748 216.417 204.847 216.135 205.045 215.841C205.243 215.547 205.54 215.298 205.936 215.094C205.48 214.842 205.12 214.509 204.856 214.095C204.592 213.675 204.46 213.186 204.46 212.628C204.46 212.172 204.547 211.761 204.721 211.395C204.901 211.029 205.15 210.717 205.468 210.459C205.786 210.201 206.161 210.003 206.593 209.865C207.031 209.727 207.508 209.658 208.024 209.658C208.816 209.658 209.506 209.823 210.094 210.153H212.659ZM220.051 213.375C220.051 213.051 220.003 212.751 219.907 212.475C219.817 212.193 219.682 211.95 219.502 211.746C219.322 211.536 219.097 211.374 218.827 211.26C218.563 211.14 218.257 211.08 217.909 211.08C217.207 211.08 216.655 211.281 216.253 211.683C215.851 212.085 215.596 212.649 215.488 213.375H220.051ZM215.434 214.563C215.458 215.085 215.539 215.538 215.677 215.922C215.815 216.3 215.998 216.615 216.226 216.867C216.46 217.119 216.736 217.308 217.054 217.434C217.378 217.554 217.738 217.614 218.134 217.614C218.512 217.614 218.839 217.572 219.115 217.488C219.391 217.398 219.631 217.302 219.835 217.2C220.039 217.092 220.213 216.996 220.357 216.912C220.501 216.822 220.633 216.777 220.753 216.777C220.909 216.777 221.029 216.837 221.113 216.957L221.662 217.668C221.434 217.938 221.176 218.166 220.888 218.352C220.6 218.538 220.294 218.691 219.97 218.811C219.646 218.925 219.313 219.006 218.971 219.054C218.629 219.108 218.296 219.135 217.972 219.135C217.336 219.135 216.745 219.03 216.199 218.82C215.659 218.604 215.188 218.289 214.786 217.875C214.39 217.461 214.078 216.948 213.85 216.336C213.628 215.724 213.517 215.019 213.517 214.221C213.517 213.585 213.616 212.991 213.814 212.439C214.018 211.887 214.306 211.407 214.678 210.999C215.056 210.591 215.512 210.27 216.046 210.036C216.586 209.796 217.195 209.676 217.873 209.676C218.437 209.676 218.959 209.769 219.439 209.955C219.919 210.135 220.333 210.402 220.681 210.756C221.029 211.11 221.299 211.545 221.491 212.061C221.689 212.571 221.788 213.153 221.788 213.807C221.788 214.107 221.755 214.308 221.689 214.41C221.623 214.512 221.503 214.563 221.329 214.563H215.434ZM225.401 211.035C225.599 210.831 225.803 210.648 226.013 210.486C226.229 210.318 226.457 210.174 226.697 210.054C226.937 209.934 227.192 209.841 227.462 209.775C227.732 209.709 228.026 209.676 228.344 209.676C228.848 209.676 229.289 209.76 229.667 209.928C230.051 210.096 230.372 210.333 230.63 210.639C230.894 210.945 231.092 211.314 231.224 211.746C231.356 212.172 231.422 212.643 231.422 213.159V219H229.496V213.159C229.496 212.541 229.352 212.061 229.064 211.719C228.782 211.377 228.35 211.206 227.768 211.206C227.336 211.206 226.934 211.305 226.562 211.503C226.196 211.701 225.851 211.971 225.527 212.313V219H223.592V209.82H224.762C225.026 209.82 225.194 209.943 225.266 210.189L225.401 211.035ZM240.171 211.62C240.111 211.698 240.054 211.758 240 211.8C239.946 211.842 239.868 211.863 239.766 211.863C239.664 211.863 239.556 211.827 239.442 211.755C239.334 211.683 239.202 211.605 239.046 211.521C238.896 211.431 238.713 211.35 238.497 211.278C238.281 211.206 238.011 211.17 237.687 211.17C237.267 211.17 236.898 211.245 236.58 211.395C236.268 211.545 236.004 211.761 235.788 212.043C235.578 212.319 235.419 212.658 235.311 213.06C235.209 213.456 235.158 213.903 235.158 214.401C235.158 214.917 235.215 215.376 235.329 215.778C235.443 216.18 235.605 216.519 235.815 216.795C236.031 217.071 236.289 217.281 236.589 217.425C236.895 217.569 237.237 217.641 237.615 217.641C237.987 217.641 238.29 217.596 238.524 217.506C238.758 217.416 238.953 217.317 239.109 217.209C239.265 217.101 239.397 217.002 239.505 216.912C239.619 216.822 239.739 216.777 239.865 216.777C240.021 216.777 240.141 216.837 240.225 216.957L240.774 217.668C240.552 217.938 240.306 218.166 240.036 218.352C239.766 218.538 239.481 218.691 239.181 218.811C238.881 218.925 238.569 219.006 238.245 219.054C237.921 219.108 237.594 219.135 237.264 219.135C236.694 219.135 236.16 219.03 235.662 218.82C235.17 218.604 234.738 218.295 234.366 217.893C234 217.485 233.709 216.99 233.493 216.408C233.283 215.82 233.178 215.151 233.178 214.401C233.178 213.723 233.274 213.096 233.466 212.52C233.658 211.938 233.937 211.437 234.303 211.017C234.675 210.597 235.134 210.27 235.68 210.036C236.226 209.796 236.856 209.676 237.57 209.676C238.236 209.676 238.821 209.784 239.325 210C239.835 210.216 240.288 210.522 240.684 210.918L240.171 211.62ZM250.475 209.82L245.417 221.61C245.351 221.748 245.27 221.856 245.174 221.934C245.084 222.012 244.943 222.051 244.751 222.051H243.32L245.012 218.379L241.268 209.82H242.951C243.113 209.82 243.236 209.859 243.32 209.937C243.41 210.009 243.476 210.096 243.518 210.198L245.705 215.409C245.759 215.559 245.807 215.709 245.849 215.859C245.897 216.003 245.942 216.153 245.984 216.309C246.032 216.153 246.08 216 246.128 215.85C246.176 215.7 246.23 215.55 246.29 215.4L248.387 210.198C248.429 210.09 248.498 210 248.594 209.928C248.696 209.856 248.807 209.82 248.927 209.82H250.475Z" fill="white"/>
</g>
</svg>
