<svg width="400" height="330" viewBox="0 0 400 330" fill="none" xmlns="http://www.w3.org/2000/svg">
<g id="serv-svg">
<path id="Vector" d="M258.783 298.739C258.783 298.739 256.4 299.519 252.526 300.623C243.96 303.077 228.11 307.147 214.678 307.96C203.114 308.668 193.342 306.965 191.554 299.758C190.788 296.659 191.875 294.11 194.243 292.015C201.312 285.755 219.775 283.512 234.418 282.742C238.553 282.526 242.378 282.426 245.562 282.388C250.969 282.321 254.513 282.426 254.513 282.426L254.598 282.742L258.783 298.739Z" fill="#A0616A"/>
<path id="Vector 2" d="M218.768 321.672C209.567 332.557 171.579 309.753 158.293 301.25C155.399 299.399 153.677 298.227 153.677 298.227L165.832 282.742L169.682 277.839C169.682 277.839 173.126 279.585 178.218 282.426C178.403 282.531 178.588 282.636 178.778 282.742C183.169 285.205 188.681 288.423 194.243 292.015C201.917 296.974 209.677 302.632 214.678 307.96C219.569 313.168 221.817 318.061 218.768 321.672Z" fill="#A0616A"/>
<g id="me">
<path id="Vector 3" d="M217.608 91.8031C237.939 91.6381 254.281 75.7593 254.109 56.3367C253.936 36.9136 237.315 21.3018 216.984 21.4665C196.652 21.6312 180.31 37.5101 180.483 56.9331C180.655 76.3557 197.277 91.9676 217.608 91.8031Z" fill="#A0616A"/>
<path id="Vector 4" d="M189.976 74.4413C189.976 74.4413 197.355 124.334 186.734 130.027C176.114 135.72 250.277 135.629 250.277 135.629C250.277 135.629 233.354 92.4402 240.705 79.1278L189.976 74.4413Z" fill="#A0616A"/>
<path id="Vector 5" d="M304.431 135.443L298.502 162.323L285.964 219.191L285.602 222.303L281.421 258.327L278.639 282.259L276.774 298.334C264.623 304.426 255.814 308.634 255.814 308.634C255.814 308.634 255.021 304.996 253.753 300.343C245.209 302.866 229.396 307.064 215.972 307.986C220.909 313.154 223.2 318.029 220.184 321.664C211.079 332.623 172.891 310.128 159.529 301.733C159.238 303.771 159.138 305.831 159.233 307.886L148.999 300.498L149.853 283.302L151.292 254.206L153.101 217.718C152.415 216.162 151.837 214.564 151.371 212.935C148.163 202.381 144.196 181.288 141.14 163.597C138.681 149.36 136.822 137.327 136.429 134.767C136.376 134.432 136.349 134.26 136.349 134.26L192.422 110.045C196.5 118.875 215.201 121.387 215.201 121.387C230.666 120.243 242.727 112.35 242.727 112.35L304.431 135.443Z" fill="white"/>
<path id="Vector 6" d="M186.375 23.6171L179.469 21.0404C179.469 21.0404 193.727 5.78703 213.762 6.94107L208.078 1.06356C208.078 1.06356 221.797 -4.31288 234.435 9.40622C241.078 16.6181 248.765 25.0962 253.596 34.6777L260.967 34.618L257.948 41.1144L268.773 47.4986L257.711 46.4258C258.401 49.9645 258.534 53.5815 258.106 57.1575C257.664 60.7349 255.784 64.0081 252.863 66.2861C252.863 66.2861 244.177 49.4757 244.153 46.843L244.212 53.4242C244.212 53.4242 237.276 47.5569 237.241 43.6082L233.527 48.2456L231.586 41.0213L208.498 48.4484L212.2 42.4948L197.826 44.5857L203.393 37.3007C203.393 37.3007 187.2 45.9881 186.639 53.2324C186.077 60.4771 181.376 67.3751 181.376 67.3751C181.376 67.3751 168.317 33.6359 186.375 23.6171Z" fill="#2F2E41"/>
<path id="Vector 7" d="M345.539 258.463C341.824 262.376 332.585 268.3 321.377 274.723C317.208 277.11 312.769 279.572 308.24 282.019C297.433 287.86 286.115 293.653 276.774 298.334C264.623 304.425 255.814 308.634 255.814 308.634C255.814 308.634 255.02 304.996 253.753 300.343C252.055 294.115 249.51 286.067 246.901 282.516C246.809 282.392 246.718 282.278 246.627 282.164C245.868 281.228 245.107 280.684 244.361 280.69L281.421 258.327L297.435 248.66L285.602 222.302L270.759 189.24L279.303 162.478L287.891 135.577L304.431 135.443C304.431 135.443 310.009 146.819 317.153 162.688C318.221 165.061 319.325 167.534 320.449 170.089C335.153 203.449 353.53 250.052 345.539 258.463Z" fill="#EEEEEE"/>
<path id="Vector 8" d="M179.286 282.748C177.927 282.754 176.572 282.87 175.234 283.096C163.742 285.078 160.436 295.058 159.529 301.733C159.238 303.771 159.138 305.831 159.233 307.886L148.999 300.498L145.271 297.807C136.328 294.909 128.337 289.698 121.393 283.532C115.369 278.088 109.954 272.058 105.238 265.541C100.541 259.118 96.3444 252.374 92.6828 245.364C91.6616 243.408 91.1024 241.261 91.0458 239.075C90.9892 236.889 91.4363 234.719 92.3554 232.716L104.708 205.809L122.762 166.482C122.889 165.548 123.03 164.635 123.183 163.743C126.656 143.723 136.354 134.767 136.354 134.767L143.823 134.707L149.075 163.533L155.601 199.346L151.371 212.935L141.596 244.317L151.292 254.206L179.286 282.748Z" fill="#EEEEEE"/>
</g>
<path id="Vector 9" d="M186.672 198.864L193.057 205.98C195.429 205.548 197.907 205.04 200.459 204.47L198.624 198.864L203.109 203.862C230.141 197.51 263.648 185.161 263.648 185.161C263.648 185.161 227.474 187.695 200.465 182.058C188.515 179.563 176.219 185.223 171.315 195.928C168.465 202.151 168.913 207.542 179.022 207.542C182.438 207.486 185.844 207.18 189.211 206.626L186.672 198.864Z" fill="#68E1FD"/>
<path id="Vector 10" d="M332.24 315.837V318.74C332.242 319.537 332.088 320.327 331.785 321.069C331.651 321.4 331.488 321.72 331.299 322.026C330.702 322.982 329.856 323.775 328.842 324.325C327.829 324.875 326.683 325.164 325.517 325.163H101.962C100.797 325.164 99.6511 324.875 98.6373 324.325C97.6235 323.775 96.777 322.982 96.1802 322.026C95.9915 321.72 95.8293 321.4 95.6946 321.069C95.3922 320.327 95.2376 319.537 95.2391 318.74V315.837C95.2391 314.993 95.4128 314.158 95.7507 313.379C96.0881 312.599 96.5837 311.891 97.208 311.294C97.8323 310.698 98.5737 310.225 99.3892 309.902C100.205 309.579 101.079 309.413 101.962 309.414H114.849V308.06C114.849 308.025 114.856 307.99 114.87 307.957C114.884 307.925 114.905 307.896 114.931 307.871C114.957 307.846 114.988 307.826 115.022 307.812C115.056 307.799 115.092 307.792 115.129 307.792H121.852C121.889 307.792 121.926 307.799 121.96 307.812C121.994 307.826 122.025 307.846 122.051 307.871C122.077 307.896 122.098 307.925 122.112 307.957C122.126 307.99 122.133 308.025 122.133 308.06V309.414H126.333V308.06C126.333 308.025 126.34 307.99 126.354 307.957C126.368 307.925 126.389 307.896 126.415 307.871C126.441 307.846 126.472 307.826 126.506 307.812C126.54 307.799 126.577 307.792 126.613 307.792H133.337C133.374 307.792 133.41 307.799 133.444 307.812C133.478 307.826 133.509 307.846 133.535 307.871C133.561 307.896 133.582 307.925 133.596 307.957C133.61 307.99 133.617 308.025 133.617 308.06V309.414H137.822V308.06C137.822 308.025 137.83 307.99 137.844 307.957C137.858 307.925 137.878 307.896 137.904 307.871C137.93 307.846 137.961 307.826 137.996 307.812C138.03 307.799 138.066 307.792 138.103 307.792H144.826C144.863 307.792 144.9 307.799 144.934 307.812C144.968 307.826 144.998 307.846 145.024 307.871C145.051 307.896 145.071 307.925 145.085 307.957C145.099 307.99 145.106 308.025 145.106 308.06V309.414H149.307V308.06C149.307 308.025 149.314 307.99 149.328 307.957C149.342 307.925 149.363 307.896 149.389 307.871C149.415 307.846 149.446 307.826 149.48 307.812C149.514 307.799 149.55 307.792 149.587 307.792H156.31C156.347 307.792 156.384 307.799 156.418 307.812C156.452 307.826 156.483 307.846 156.509 307.871C156.535 307.896 156.556 307.925 156.57 307.957C156.584 307.99 156.591 308.025 156.591 308.06V309.414H160.791V308.06C160.791 308.025 160.798 307.99 160.813 307.957C160.827 307.925 160.847 307.896 160.873 307.871C160.899 307.846 160.93 307.826 160.964 307.812C160.998 307.799 161.035 307.792 161.071 307.792H167.795C167.832 307.792 167.868 307.799 167.902 307.812C167.936 307.826 167.967 307.846 167.993 307.871C168.019 307.896 168.04 307.925 168.054 307.957C168.068 307.99 168.075 308.025 168.075 308.06V309.414H172.28V308.06C172.28 308.025 172.288 307.99 172.302 307.957C172.316 307.925 172.336 307.896 172.362 307.871C172.388 307.846 172.42 307.826 172.454 307.812C172.488 307.799 172.524 307.792 172.561 307.792H179.284C179.321 307.792 179.358 307.799 179.392 307.812C179.426 307.826 179.456 307.846 179.482 307.871C179.509 307.896 179.529 307.925 179.543 307.957C179.557 307.99 179.564 308.025 179.564 308.06V309.414H183.765V308.06C183.765 308.025 183.772 307.99 183.786 307.957C183.8 307.925 183.821 307.896 183.847 307.871C183.873 307.846 183.904 307.826 183.938 307.812C183.972 307.799 184.009 307.792 184.045 307.792H236.711C236.748 307.792 236.785 307.799 236.819 307.812C236.853 307.826 236.883 307.846 236.91 307.871C236.936 307.896 236.956 307.925 236.97 307.957C236.984 307.99 236.991 308.025 236.991 308.06V309.414H241.197V308.06C241.197 308.025 241.204 307.99 241.218 307.957C241.232 307.925 241.253 307.896 241.279 307.871C241.305 307.846 241.336 307.826 241.37 307.812C241.404 307.799 241.44 307.792 241.477 307.792H248.2C248.274 307.793 248.345 307.822 248.398 307.872C248.45 307.921 248.48 307.989 248.481 308.06V309.414H252.681V308.06C252.681 308.025 252.688 307.99 252.702 307.957C252.716 307.925 252.737 307.896 252.763 307.871C252.789 307.846 252.82 307.826 252.854 307.812C252.888 307.799 252.925 307.792 252.961 307.792H259.685C259.722 307.792 259.758 307.799 259.792 307.812C259.826 307.826 259.857 307.846 259.883 307.871C259.909 307.896 259.93 307.925 259.944 307.957C259.958 307.99 259.965 308.025 259.965 308.06V309.414H264.165V308.06C264.165 308.025 264.173 307.99 264.187 307.957C264.201 307.925 264.221 307.896 264.247 307.871C264.273 307.846 264.304 307.826 264.338 307.812C264.372 307.799 264.409 307.792 264.446 307.792H271.169C271.206 307.792 271.243 307.799 271.277 307.812C271.311 307.826 271.342 307.846 271.368 307.871C271.394 307.896 271.414 307.925 271.428 307.957C271.442 307.99 271.449 308.025 271.449 308.06V309.414H275.655V308.06C275.655 308.025 275.662 307.99 275.676 307.957C275.69 307.925 275.711 307.896 275.737 307.871C275.763 307.846 275.794 307.826 275.828 307.812C275.862 307.799 275.898 307.792 275.935 307.792H282.658C282.732 307.793 282.803 307.822 282.854 307.872C282.906 307.922 282.934 307.99 282.934 308.06V309.414H287.139V308.06C287.139 308.025 287.146 307.99 287.16 307.957C287.175 307.925 287.195 307.896 287.221 307.871C287.247 307.846 287.278 307.826 287.312 307.812C287.346 307.799 287.383 307.792 287.419 307.792H294.143C294.18 307.792 294.216 307.799 294.25 307.812C294.284 307.826 294.315 307.846 294.341 307.871C294.367 307.896 294.388 307.925 294.402 307.957C294.416 307.99 294.423 308.025 294.423 308.06V309.414H298.623V308.06C298.623 308.025 298.631 307.99 298.645 307.957C298.659 307.925 298.679 307.896 298.705 307.871C298.731 307.846 298.762 307.826 298.797 307.812C298.831 307.799 298.867 307.792 298.904 307.792H305.627C305.664 307.792 305.701 307.799 305.735 307.812C305.769 307.826 305.8 307.846 305.826 307.871C305.852 307.896 305.872 307.925 305.886 307.957C305.9 307.99 305.907 308.025 305.907 308.06V309.414H325.517C326.4 309.413 327.275 309.579 328.09 309.902C328.906 310.225 329.648 310.698 330.272 311.294C330.896 311.891 331.391 312.599 331.729 313.379C332.067 314.158 332.241 314.993 332.24 315.837Z" fill="#3F3D56"/>
<path id="Vector 11" d="M397.247 321.069H30.2879V322.026H397.247V321.069Z" fill="#3F3D56"/>
<path id="Vector 12" d="M314.24 193.58H230.914V191.939H193.131V193.58H109.462C107.967 193.58 106.534 194.147 105.477 195.157C104.42 196.167 103.826 197.536 103.826 198.964V307.965C103.826 309.393 104.42 310.763 105.477 311.773C106.534 312.782 107.967 313.349 109.462 313.349H314.24C315.735 313.349 317.168 312.782 318.225 311.773C319.283 310.763 319.876 309.393 319.876 307.965V198.964C319.876 198.257 319.731 197.557 319.447 196.904C319.164 196.25 318.749 195.657 318.225 195.157C317.702 194.657 317.081 194.26 316.397 193.99C315.713 193.719 314.98 193.58 314.24 193.58Z" fill="#3F3D56"/>
<path id="Vector 13" d="M212.015 243.591C218.927 243.591 224.531 238.237 224.531 231.634C224.531 225.031 218.927 219.678 212.015 219.678C205.103 219.678 199.499 225.031 199.499 231.634C199.499 238.237 205.103 243.591 212.015 243.591Z" stroke="#6ADC25" stroke-width="2" stroke-miterlimit="10"/>
<path id="Vector 14" d="M208.01 247.895C214.922 247.895 220.526 242.542 220.526 235.939C220.526 229.335 214.922 223.982 208.01 223.982C201.098 223.982 195.494 229.335 195.494 235.939C195.494 242.542 201.098 247.895 208.01 247.895Z" fill="#68E1FD"/>
<path id="Vector 15" d="M54.2909 316.238H40.2735V329.628H54.2909V316.238Z" fill="#6ADC25"/>
<path id="Vector 16" d="M45.7823 305.716V321.976H62.8035V305.716H45.7823ZM62.0626 321.268H46.5183V306.423H62.0626V321.268Z" fill="#3F3D56"/>
<path id="Vector 17" d="M378.696 316.238H364.679V329.628H378.696V316.238Z" fill="#6ADC25"/>
<path id="Vector 18" d="M370.188 305.716V321.976H387.209V305.716H370.188ZM386.468 321.268H370.924V306.423H386.468V321.268Z" fill="#3F3D56"/>
<path id="Vector 19" d="M47.3493 110.054C69.2861 110.054 87.0693 93.0658 87.0693 72.1089C87.0693 51.1525 69.2861 34.1635 47.3493 34.1635C25.4126 34.1635 7.62939 51.1525 7.62939 72.1089C7.62939 93.0658 25.4126 110.054 47.3493 110.054Z" fill="#68E1FD"/>
<path id="Vector 20" d="M61.191 27.0171C57.5945 26.5802 53.9544 26.5802 50.3579 27.0171C42.3459 28.0221 34.8036 31.2018 28.6263 36.1789C22.4489 41.1561 17.8957 47.7217 15.5071 55.0968C14.4207 58.4575 13.8054 61.9417 13.6775 65.4569C13.6595 65.9457 13.6474 66.4402 13.6474 66.9347C13.6586 77.6047 18.1006 87.8352 25.9985 95.3802C33.8965 102.925 44.6052 107.169 55.7747 107.18C56.6713 107.18 57.568 107.151 58.4526 107.099C60.5292 106.975 62.5932 106.702 64.6273 106.283C74.3404 104.287 83.0027 99.0772 89.0849 91.5718C95.1665 84.067 98.2768 74.75 97.8658 65.267C97.4543 55.7836 93.5484 46.7444 86.838 39.7455C80.1272 32.7466 71.0433 28.2384 61.191 27.0171ZM68.9602 103.949H68.9542C65.5614 105.054 62.03 105.725 58.4526 105.944C57.568 106.001 56.6713 106.03 55.7747 106.03C44.925 106.017 34.5236 101.894 26.8519 94.5653C19.1801 87.2359 14.8643 77.2996 14.851 66.9347C14.851 66.4402 14.8631 65.9457 14.8811 65.4569C15.2948 55.356 19.7825 45.7993 27.4048 38.7875C35.0271 31.7758 45.193 27.8527 55.7747 27.8392C65.4698 27.8398 74.8501 31.1285 82.2443 37.1195C89.638 43.1105 94.5657 51.4147 96.1487 60.5528C97.7317 69.6904 95.8678 79.0687 90.8886 87.0159C85.9094 94.9632 78.1382 100.964 68.9602 103.949Z" fill="#3F3D56"/>
<path id="Vector 21" d="M56.3765 30.1388H55.173V38.1878H56.3765V30.1388Z" fill="#3F3D56"/>
<path id="Vector 22" d="M28.9651 40.5097L28.114 41.3228L34.0717 47.0143L34.9227 46.2012L28.9651 40.5097Z" fill="#3F3D56"/>
<path id="Vector 23" d="M17.2584 66.3593V67.5095H25.6838V66.3593H17.2584Z" fill="#3F3D56"/>
<path id="Vector 24" d="M28.114 92.5464L28.9652 93.3594L34.9229 87.6683L34.0717 86.8552L28.114 92.5464Z" fill="#3F3D56"/>
<path id="Vector 25" d="M76.6268 46.2012L77.4778 47.0142L83.4353 41.3227L82.5842 40.5096L76.6268 46.2012Z" fill="#3F3D56"/>
<path id="Vector 26" d="M85.8653 66.3593V67.5095H94.2908V66.3593H85.8653Z" fill="#3F3D56"/>
<path id="Vector 27" d="M77.4778 86.8547L76.6268 87.6677L82.5842 93.3594L83.4353 92.5464L77.4778 86.8547Z" fill="#3F3D56"/>
<path id="Vector 28" d="M56.3765 95.6808H55.173V103.73H56.3765V95.6808Z" fill="#3F3D56"/>
<path id="Vector 29" d="M57.58 64.6347C57.0593 64.2616 56.426 64.0598 55.7747 64.0598C55.1239 64.0598 54.4901 64.2616 53.9695 64.6347C53.6125 64.8934 53.3191 65.2229 53.1089 65.6008C52.842 66.0867 52.7269 66.6357 52.7765 67.1829C52.826 67.7295 53.0383 68.2513 53.3887 68.6865C53.7387 69.1217 54.2118 69.4522 54.7524 69.6387C55.2926 69.8248 55.8778 69.8597 56.438 69.7387C56.9987 69.6177 57.5109 69.346 57.9149 68.9553C58.3189 68.565 58.5972 68.0724 58.7174 67.5353C58.8375 66.9987 58.794 66.4401 58.5927 65.9265C58.391 65.4123 58.04 64.9642 57.5805 64.6347H57.58ZM55.7747 68.6592C55.2961 68.6578 54.838 68.4756 54.4996 68.1528C54.1612 67.8295 53.971 67.3914 53.9695 66.9346C53.9715 66.5855 54.0826 66.2455 54.2884 65.9571C54.4646 65.7132 54.7039 65.5166 54.9827 65.387C55.2621 65.2569 55.5715 65.1981 55.8813 65.2162C56.1907 65.2339 56.4906 65.3277 56.7514 65.4889C57.0118 65.6496 57.225 65.8719 57.3692 66.1345C57.5134 66.3971 57.5845 66.6907 57.5755 66.9868C57.5665 67.2833 57.4773 67.5722 57.3171 67.8261C57.1564 68.0801 56.9307 68.29 56.6603 68.4359C56.39 68.5818 56.0851 68.6588 55.7747 68.6592Z" fill="#3F3D56"/>
<path id="Vector 30" d="M61.191 16.9156H50.3585V27.2643H61.191V16.9156Z" fill="#3F3D56"/>
<path id="Vector 31" d="M55.7747 18.6402C63.7517 18.6402 70.2183 16.4523 70.2183 13.7533C70.2183 11.0543 63.7517 8.86639 55.7747 8.86639C47.7976 8.86639 41.331 11.0543 41.331 13.7533C41.331 16.4523 47.7976 18.6402 55.7747 18.6402Z" fill="#3F3D56"/>
<g id="clock-arrow">
<path id="clock arrow" d="M57.572 41.1304H54.0676V64.5652H57.572V41.1304Z" fill="#3F3D56"/>
</g>
<path id="Vector 32" d="M113.141 105.428H0V106.578H113.141V105.428Z" fill="#3F3D56"/>
<g id="plant-left">
<path id="Vector 33" d="M75.3912 286.839C75.8583 302.119 66.5121 307.719 54.7835 308.046C54.5111 308.054 54.2398 308.059 53.97 308.06C53.4263 308.064 52.8876 308.056 52.3539 308.034C41.7467 307.614 33.3503 302.234 32.9159 288.024C32.4663 273.318 51.5735 254.21 53.0073 252.797L53.0098 252.795C53.0643 252.741 53.0924 252.714 53.0924 252.714C53.0924 252.714 74.9241 271.56 75.3912 286.839Z" fill="#6ADC25"/>
<path id="Vector 34" d="M53.9394 305.731L61.3897 295.147L53.9545 306.87L53.97 308.061C53.4263 308.065 52.8876 308.056 52.354 308.035L52.7234 292.725L52.7134 292.607L52.7269 292.584L52.7625 291.137L44.6034 279.82L52.753 290.055L52.782 290.36L53.0608 278.793L46.0136 267.06L53.0809 276.761L53.0073 252.797V252.717L53.0098 252.795L53.4774 271.682L59.9004 264.01L53.4984 273.309L53.6386 283.656L59.5489 273.558L53.6606 285.177L53.7387 290.93L62.3339 276.864L53.7647 292.938L53.9394 305.731Z" fill="#3F3D56"/>
</g>
<g id="plant-right">
<path id="Vector 35" d="M399.797 286.839C400.264 302.119 390.918 307.719 379.189 308.046C378.917 308.054 378.645 308.059 378.375 308.06C377.832 308.064 377.293 308.056 376.759 308.034C366.152 307.614 357.756 302.234 357.321 288.024C356.872 273.318 375.979 254.21 377.413 252.797L377.415 252.795C377.47 252.741 377.498 252.714 377.498 252.714C377.498 252.714 399.33 271.56 399.797 286.839Z" fill="#6ADC25"/>
<path id="Vector 36" d="M378.345 305.731L385.795 295.147L378.36 306.87L378.375 308.061C377.832 308.065 377.293 308.056 376.759 308.035L377.129 292.725L377.119 292.607L377.133 292.584L377.168 291.137L369.009 279.82L377.158 290.055L377.187 290.36L377.466 278.793L370.419 267.06L377.486 276.761L377.413 252.797V252.717L377.415 252.795L377.883 271.682L384.306 264.01L377.904 273.309L378.044 283.656L383.954 273.558L378.066 285.177L378.144 290.93L386.739 276.864L378.17 292.938L378.345 305.731Z" fill="#3F3D56"/>
</g>
</g>
</svg>
