<svg width="400" height="198" viewBox="0 0 400 198" fill="none" xmlns="http://www.w3.org/2000/svg">
<g id="works-svg" clip-path="url(#clip0)">
<path id="Vector" d="M127.608 133.696L127.084 134.347L172.089 170.492L172.612 169.84L127.608 133.696Z" fill="#C2C2C2"/>
<path id="Vector_2" d="M172.089 133.903L127.08 170.476L127.608 171.125L172.616 134.552L172.089 133.903Z" fill="#C2C2C2"/>
<path id="Vector_3" d="M240.688 39.4133L240.158 40.0602L342.442 123.875L342.972 123.228L240.688 39.4133Z" fill="#C2C2C2"/>
<path id="Vector_4" d="M342.428 39.398L240.171 123.663L240.702 124.309L342.96 40.0433L342.428 39.398Z" fill="#C2C2C2"/>
<path id="Vector_5" d="M373.204 0H3.13617C2.3045 0.000300348 1.50698 0.330808 0.918896 0.91889C0.330815 1.50697 0.000300348 2.3045 0 3.13617V194.234C0.000301456 195.065 0.330815 195.863 0.918896 196.451C1.50698 197.039 2.3045 197.369 3.13617 197.37H373.204C373.695 197.368 374.179 197.251 374.617 197.029C375.055 196.807 375.434 196.485 375.726 196.09C375.894 195.872 376.028 195.629 376.123 195.371C376.268 195.009 376.342 194.623 376.341 194.234V3.13617C376.34 2.3045 376.01 1.50698 375.422 0.918896C374.834 0.330815 374.036 0.000301456 373.204 0ZM375.086 194.234C375.085 194.732 374.887 195.211 374.534 195.563C374.181 195.916 373.703 196.115 373.204 196.115H3.13617C2.63734 196.115 2.15916 195.916 1.80644 195.563C1.45371 195.211 1.25522 194.732 1.25447 194.234V3.13617C1.25522 2.63734 1.45371 2.15916 1.80643 1.80643C2.15916 1.45371 2.63734 1.25522 3.13617 1.25447H373.204C373.703 1.25522 374.181 1.45371 374.534 1.80643C374.887 2.15916 375.085 2.63734 375.086 3.13617V194.234Z" fill="#C2C2C2"/>
<path id="Vector_6" d="M376.341 16.028H1.25446V16.8643H376.341V16.028Z" fill="#C2C2C2"/>
<g id="leaves">
<g id="leaf-2">
<path id="Vector_7" d="M388.861 172.051C388.635 180.526 387.215 188.927 384.644 197.006C384.586 197.193 384.524 197.378 384.462 197.565H368.725C368.742 197.398 368.758 197.21 368.775 197.006C369.825 184.942 375.874 111.521 368.641 98.9646C369.273 99.9832 390.081 133.719 388.861 172.051Z" fill="#6ADC25"/>
</g>
<g id="leaf-1">
<path id="Vector_8" d="M387.681 197.006C387.549 197.193 387.412 197.381 387.272 197.565H375.466C375.555 197.406 375.659 197.218 375.779 197.006C377.73 193.485 383.503 182.961 388.861 172.051C394.62 160.326 399.904 148.156 399.459 143.751C399.596 144.745 403.58 175.028 387.681 197.006Z" fill="#6ADC25"/>
</g>
</g>
<path id="Vector_9" d="M228.138 77.1364H128.617C127.841 77.1355 127.097 76.8269 126.548 76.2781C125.999 75.7294 125.69 74.9853 125.69 74.2093V41.175C125.69 40.3989 125.999 39.6549 126.548 39.1062C127.097 38.5574 127.841 38.2487 128.617 38.2479H228.138C228.914 38.2487 229.658 38.5574 230.207 39.1062C230.755 39.6549 231.064 40.3989 231.065 41.175V74.2093C231.064 74.9853 230.755 75.7294 230.207 76.2781C229.658 76.8269 228.914 77.1355 228.138 77.1364ZM128.617 39.0842C128.062 39.0848 127.531 39.3053 127.139 39.6973C126.747 40.0892 126.526 40.6206 126.526 41.175V74.2093C126.526 74.7636 126.747 75.295 127.139 75.687C127.531 76.0789 128.062 76.2994 128.617 76.3001H228.138C228.692 76.2994 229.224 76.0789 229.615 75.687C230.007 75.295 230.228 74.7636 230.229 74.2093V41.175C230.228 40.6206 230.007 40.0892 229.615 39.6973C229.224 39.3053 228.692 39.0848 228.138 39.0842H128.617Z" fill="#C2C2C2"/>
<path id="Vector_10" d="M170.85 124.388H128.617C127.841 124.387 127.097 124.078 126.548 123.53C125.999 122.981 125.69 122.237 125.69 121.461V88.4266C125.69 87.6506 125.999 86.9066 126.548 86.3578C127.097 85.8091 127.841 85.5004 128.617 85.4995H170.85C171.626 85.5004 172.37 85.8091 172.919 86.3578C173.468 86.9066 173.777 87.6506 173.777 88.4266V121.461C173.777 122.237 173.468 122.981 172.919 123.53C172.37 124.078 171.626 124.387 170.85 124.388ZM128.617 86.3358C128.062 86.3365 127.531 86.557 127.139 86.9489C126.747 87.3409 126.526 87.8723 126.526 88.4266V121.461C126.526 122.015 126.747 122.547 127.139 122.939C127.531 123.331 128.062 123.551 128.617 123.552H170.85C171.405 123.551 171.936 123.331 172.328 122.939C172.72 122.547 172.941 122.015 172.941 121.461V88.4266C172.941 87.8723 172.72 87.3409 172.328 86.9489C171.936 86.557 171.405 86.3365 170.85 86.3358H128.617Z" fill="#C2C2C2"/>
<g id="rects">
<g id="rect-2">
<path id="Vector_11" d="M341.876 172.058H242.355C241.579 172.057 240.835 171.748 240.286 171.2C239.738 170.651 239.429 169.907 239.428 169.131V136.096C239.429 135.32 239.738 134.576 240.286 134.028C240.835 133.479 241.579 133.17 242.355 133.169H341.876C342.652 133.17 343.396 133.479 343.945 134.028C344.494 134.576 344.802 135.32 344.803 136.096V169.131C344.802 169.907 344.494 170.651 343.945 171.2C343.396 171.748 342.652 172.057 341.876 172.058Z" fill="#C2C2C2"/>
</g>
<g id="rect-1">
<path id="Vector_12" d="M228.138 124.388H185.904C185.128 124.387 184.384 124.078 183.835 123.53C183.287 122.981 182.978 122.237 182.977 121.461V88.4266C182.978 87.6506 183.286 86.9066 183.835 86.3578C184.384 85.8091 185.128 85.5004 185.904 85.4995H228.138C228.914 85.5004 229.658 85.8091 230.207 86.3578C230.755 86.9066 231.064 87.6506 231.065 88.4266V121.461C231.064 122.237 230.755 122.981 230.207 123.53C229.658 124.078 228.914 124.387 228.138 124.388Z" fill="#C2C2C2"/>
</g>
</g>
<path id="Vector_13" d="M171.161 171.392H128.927C128.151 171.391 127.407 171.082 126.858 170.534C126.31 169.985 126.001 169.241 126 168.465V135.43C126.001 134.654 126.31 133.91 126.858 133.362C127.407 132.813 128.151 132.504 128.927 132.503H171.161C171.937 132.504 172.681 132.813 173.23 133.362C173.778 133.91 174.087 134.654 174.088 135.43V168.465C174.087 169.241 173.778 169.985 173.23 170.534C172.681 171.082 171.937 171.391 171.161 171.392ZM128.927 133.34C128.373 133.34 127.841 133.561 127.449 133.953C127.057 134.345 126.837 134.876 126.836 135.43V168.465C126.837 169.019 127.057 169.55 127.449 169.942C127.841 170.334 128.373 170.555 128.927 170.556H171.161C171.715 170.555 172.247 170.334 172.639 169.942C173.031 169.55 173.251 169.019 173.252 168.465V135.43C173.251 134.876 173.031 134.345 172.639 133.953C172.247 133.561 171.715 133.34 171.161 133.34H128.927Z" fill="#A7A5BE"/>
<path id="Vector_14" d="M228.138 171.64H185.904C185.128 171.639 184.384 171.33 183.835 170.781C183.287 170.233 182.978 169.489 182.977 168.713V135.678C182.978 134.902 183.287 134.158 183.835 133.61C184.384 133.061 185.128 132.752 185.904 132.751H228.138C228.914 132.752 229.658 133.061 230.207 133.61C230.755 134.158 231.064 134.902 231.065 135.678V168.713C231.064 169.489 230.755 170.233 230.207 170.781C229.658 171.33 228.914 171.639 228.138 171.64ZM185.904 133.588C185.35 133.588 184.818 133.809 184.426 134.201C184.034 134.593 183.814 135.124 183.813 135.678V168.713C183.814 169.267 184.034 169.798 184.426 170.19C184.818 170.582 185.35 170.803 185.904 170.803H228.138C228.692 170.803 229.224 170.582 229.615 170.19C230.007 169.798 230.228 169.267 230.229 168.713V135.678C230.228 135.124 230.007 134.593 229.615 134.201C229.224 133.809 228.692 133.588 228.138 133.588H185.904Z" fill="#C2C2C2"/>
<path id="Vector_15" d="M341.769 124.558H242.247C241.471 124.557 240.727 124.249 240.179 123.7C239.63 123.151 239.321 122.407 239.32 121.631V40.9271C239.321 40.151 239.63 39.407 240.179 38.8583C240.727 38.3095 241.471 38.0009 242.247 38H341.769C342.545 38.0009 343.289 38.3096 343.837 38.8583C344.386 39.4071 344.695 40.1511 344.696 40.9271V121.631C344.695 122.407 344.386 123.151 343.837 123.7C343.289 124.249 342.545 124.557 341.769 124.558ZM242.247 38.8363C241.693 38.837 241.162 39.0575 240.77 39.4494C240.378 39.8414 240.157 40.3728 240.157 40.9271V121.631C240.157 122.186 240.378 122.717 240.77 123.109C241.162 123.501 241.693 123.721 242.247 123.722H341.769C342.323 123.721 342.854 123.501 343.246 123.109C343.638 122.717 343.859 122.186 343.859 121.631V40.9271C343.859 40.3728 343.638 39.8414 343.246 39.4494C342.854 39.0575 342.323 38.837 341.769 38.8363H242.247Z" fill="#A7A5BE"/>
<path id="Vector_16" opacity="0.2" d="M319.36 119.579H302.013L310.528 107.21L311.141 106.319L311.448 105.873L312.221 107.21L319.36 119.579Z" fill="black"/>
<g id="picture-2">
<path id="Vector_17" d="M357.766 139.442H258.245C257.469 139.441 256.725 139.132 256.176 138.583C255.628 138.035 255.319 137.291 255.318 136.515V55.8104C255.319 55.0344 255.628 54.2904 256.176 53.7417C256.725 53.1929 257.469 52.8843 258.245 52.8833H357.766C358.542 52.8843 359.286 53.1929 359.835 53.7417C360.384 54.2904 360.692 55.0344 360.693 55.8104V136.515C360.692 137.291 360.384 138.035 359.835 138.583C359.286 139.132 358.542 139.441 357.766 139.442Z" fill="#68E1FD"/>
<path id="Vector_18" d="M319.36 119.579H268.552C268.488 119.58 268.424 119.575 268.362 119.564L292.392 77.9408C292.538 77.6816 292.751 77.4659 293.008 77.3159C293.266 77.1658 293.558 77.0868 293.856 77.0868C294.154 77.0868 294.446 77.1658 294.704 77.3159C294.961 77.4659 295.174 77.6816 295.321 77.9408L311.448 105.873L312.22 107.21L319.36 119.579Z" fill="white"/>
<path id="Vector_19" d="M347.65 119.579H303.705L312.22 107.21L312.833 106.319L323.93 90.1992C324.126 89.9529 324.372 89.7507 324.651 89.6056C324.931 89.4605 325.238 89.3759 325.552 89.3571C325.866 89.3383 326.181 89.3858 326.476 89.4966C326.77 89.6073 327.039 89.7788 327.263 90C327.32 90.0629 327.374 90.1295 327.423 90.1992L347.65 119.579Z" fill="white"/>
<path id="Vector_20" d="M314.529 87.7993C318.686 87.7993 322.056 84.4295 322.056 80.2725C322.056 76.1156 318.686 72.7457 314.529 72.7457C310.372 72.7457 307.002 76.1156 307.002 80.2725C307.002 84.4295 310.372 87.7993 314.529 87.7993Z" fill="white"/>
<path id="Vector_21" d="M269.953 58.7375H260.754V67.937H269.953V58.7375Z" fill="#3F3D56"/>
</g>
<g id="picture-1">
<path id="Vector_22" opacity="0.2" d="M166.18 171.167H158.941L162.495 166.005L162.751 165.633L162.878 165.447L163.201 166.005L166.18 171.167Z" fill="black"/>
<path id="Vector_23" d="M182.559 180.839H140.325C139.549 180.838 138.805 180.53 138.256 179.981C137.707 179.432 137.399 178.688 137.398 177.912V144.878C137.399 144.102 137.707 143.358 138.256 142.809C138.805 142.26 139.549 141.952 140.325 141.951H182.559C183.335 141.952 184.079 142.26 184.628 142.809C185.176 143.358 185.485 144.102 185.486 144.878V177.912C185.485 178.688 185.176 179.432 184.628 179.981C184.079 180.53 183.335 180.838 182.559 180.839Z" fill="#68E1FD"/>
<path id="Vector_24" d="M166.18 171.167H144.977C144.951 171.167 144.924 171.165 144.898 171.161L154.926 153.791C154.987 153.683 155.076 153.593 155.183 153.53C155.291 153.467 155.413 153.434 155.537 153.434C155.661 153.434 155.784 153.467 155.891 153.53C155.998 153.593 156.087 153.683 156.148 153.791L162.878 165.447L163.201 166.005L166.18 171.167Z" fill="white"/>
<path id="Vector_25" d="M177.985 171.167H159.647L163.201 166.005L163.456 165.633L168.087 158.906C168.169 158.804 168.272 158.719 168.388 158.659C168.505 158.598 168.633 158.563 168.764 158.555C168.895 158.547 169.026 158.567 169.149 158.613C169.272 158.659 169.384 158.731 169.478 158.823C169.502 158.85 169.524 158.877 169.545 158.906L177.985 171.167Z" fill="white"/>
<path id="Vector_26" d="M164.164 157.905C165.899 157.905 167.305 156.499 167.305 154.764C167.305 153.029 165.899 151.623 164.164 151.623C162.429 151.623 161.023 153.029 161.023 154.764C161.023 156.499 162.429 157.905 164.164 157.905Z" fill="white"/>
<path id="Vector_27" d="M148.27 145.296H141.579V151.986H148.27V145.296Z" fill="#3F3D56"/>
</g>
<path id="Path 40" d="M41.8985 59.735C41.2463 59.7459 40.6245 60.0126 40.1671 60.4777C39.7097 60.9428 39.4534 61.569 39.4534 62.2213C39.4534 62.8736 39.7097 63.4998 40.1671 63.9649C40.6245 64.43 41.2463 64.6968 41.8985 64.7077H86.6771C87.3352 64.7164 87.97 64.4639 88.4422 64.0055C88.9145 63.5471 89.1858 62.9201 89.1966 62.262C89.2074 61.6039 88.9568 60.9684 88.4999 60.4947C88.0429 60.021 87.4168 59.7478 86.7587 59.735C86.7315 59.7345 86.7043 59.7345 86.6771 59.735H41.8985Z" fill="#C2C2C2"/>
<path id="Path 40_2" d="M41.8985 72.6978C41.2463 72.7087 40.6245 72.9754 40.1671 73.4405C39.7097 73.9056 39.4534 74.5318 39.4534 75.1842C39.4534 75.8365 39.7097 76.4627 40.1671 76.9278C40.6245 77.3929 41.2463 77.6596 41.8985 77.6705H86.6771C87.3352 77.6793 87.97 77.4268 88.4422 76.9683C88.9145 76.5099 89.1858 75.8829 89.1966 75.2249C89.2074 74.5668 88.9568 73.9312 88.4999 73.4576C88.0429 72.9839 87.4168 72.7107 86.7587 72.6978C86.7315 72.6973 86.7043 72.6973 86.6771 72.6978H41.8985Z" fill="#C2C2C2"/>
<path id="Path 40_3" d="M41.8985 85.6607C41.2463 85.6716 40.6245 85.9383 40.1671 86.4034C39.7097 86.8685 39.4534 87.4947 39.4534 88.147C39.4534 88.7993 39.7097 89.4255 40.1671 89.8906C40.6245 90.3557 41.2463 90.6225 41.8985 90.6334H86.6771C87.3352 90.6421 87.97 90.3896 88.4422 89.9312C88.9145 89.4728 89.1858 88.8458 89.1966 88.1877C89.2074 87.5296 88.9568 86.8941 88.4999 86.4204C88.0429 85.9467 87.4168 85.6735 86.7587 85.6607C86.7315 85.6602 86.7043 85.6602 86.6771 85.6607H41.8985Z" fill="#C2C2C2"/>
<path id="Path 40_4" d="M41.8985 98.6235C41.2463 98.6344 40.6245 98.9011 40.1671 99.3662C39.7097 99.8313 39.4534 100.458 39.4534 101.11C39.4534 101.762 39.7097 102.388 40.1671 102.853C40.6245 103.319 41.2463 103.585 41.8985 103.596H86.6771C87.3352 103.605 87.97 103.352 88.4422 102.894C88.9145 102.436 89.1858 101.809 89.1966 101.151C89.2074 100.492 88.9568 99.8569 88.4999 99.3832C88.0429 98.9095 87.4168 98.6363 86.7587 98.6235C86.7315 98.623 86.7043 98.623 86.6771 98.6235H41.8985Z" fill="#C2C2C2"/>
<path id="Path 40_5" d="M41.8985 111.586C41.2463 111.597 40.6245 111.864 40.1671 112.329C39.7097 112.794 39.4534 113.42 39.4534 114.073C39.4534 114.725 39.7097 115.351 40.1671 115.816C40.6245 116.281 41.2463 116.548 41.8985 116.559H86.6771C87.3352 116.568 87.97 116.315 88.4422 115.857C88.9145 115.398 89.1858 114.771 89.1966 114.113C89.2074 113.455 88.9568 112.82 88.4999 112.346C88.0429 111.872 87.4168 111.599 86.7587 111.586C86.7315 111.586 86.7043 111.586 86.6771 111.586H41.8985Z" fill="#C2C2C2"/>
<path id="Path 40_6" d="M41.8985 124.549C41.2463 124.56 40.6245 124.827 40.1671 125.292C39.7097 125.757 39.4534 126.383 39.4534 127.036C39.4534 127.688 39.7097 128.314 40.1671 128.779C40.6245 129.244 41.2463 129.511 41.8985 129.522H86.6771C87.3352 129.531 87.97 129.278 88.4422 128.82C88.9145 128.361 89.1858 127.734 89.1966 127.076C89.2074 126.418 88.9568 125.783 88.4999 125.309C88.0429 124.835 87.4168 124.562 86.7587 124.549C86.7315 124.549 86.7043 124.549 86.6771 124.549H41.8985Z" fill="#C2C2C2"/>
<path id="Vector_28" d="M25.895 66.8343C24.9853 66.8343 24.096 66.5645 23.3395 66.0591C22.5831 65.5536 21.9936 64.8353 21.6454 63.9948C21.2973 63.1543 21.2062 62.2294 21.3837 61.3372C21.5612 60.4449 21.9992 59.6253 22.6425 58.982C23.2858 58.3388 24.1054 57.9007 24.9976 57.7232C25.8899 57.5457 26.8148 57.6368 27.6552 57.985C28.4957 58.3331 29.2141 58.9226 29.7195 59.6791C30.225 60.4355 30.4947 61.3248 30.4947 62.2345C30.4934 63.454 30.0083 64.6232 29.146 65.4855C28.2837 66.3478 27.1145 66.8329 25.895 66.8343ZM25.895 58.4711C25.1507 58.4711 24.4231 58.6918 23.8042 59.1054C23.1853 59.5189 22.7029 60.1067 22.4181 60.7943C22.1332 61.482 22.0587 62.2387 22.2039 62.9687C22.3491 63.6988 22.7076 64.3693 23.2339 64.8957C23.7602 65.422 24.4308 65.7804 25.1608 65.9256C25.8908 66.0708 26.6475 65.9963 27.3352 65.7115C28.0229 65.4266 28.6106 64.9443 29.0242 64.3254C29.4377 63.7065 29.6584 62.9789 29.6584 62.2345C29.6573 61.2368 29.2604 60.2802 28.5549 59.5747C27.8494 58.8691 26.8928 58.4723 25.895 58.4711Z" fill="#C2C2C2"/>
<path id="Vector_29" d="M25.895 79.7971C24.9853 79.7971 24.096 79.5273 23.3395 79.0219C22.5831 78.5165 21.9936 77.7981 21.6454 76.9576C21.2973 76.1171 21.2062 75.1923 21.3837 74.3C21.5612 73.4078 21.9992 72.5882 22.6425 71.9449C23.2858 71.3016 24.1054 70.8635 24.9976 70.686C25.8899 70.5086 26.8148 70.5997 27.6552 70.9478C28.4957 71.2959 29.2141 71.8855 29.7195 72.6419C30.225 73.3983 30.4947 74.2876 30.4947 75.1974C30.4934 76.4169 30.0083 77.586 29.146 78.4484C28.2837 79.3107 27.1145 79.7957 25.895 79.7971ZM25.895 71.434C25.1507 71.434 24.4231 71.6547 23.8042 72.0682C23.1853 72.4817 22.7029 73.0695 22.4181 73.7572C22.1332 74.4449 22.0587 75.2016 22.2039 75.9316C22.3491 76.6616 22.7076 77.3322 23.2339 77.8585C23.7602 78.3848 24.4308 78.7433 25.1608 78.8885C25.8908 79.0337 26.6475 78.9592 27.3352 78.6743C28.0229 78.3895 28.6106 77.9071 29.0242 77.2882C29.4377 76.6693 29.6584 75.9417 29.6584 75.1974C29.6573 74.1996 29.2604 73.243 28.5549 72.5375C27.8494 71.832 26.8928 71.4351 25.895 71.434Z" fill="#C2C2C2"/>
<path id="Vector_30" d="M25.895 92.7469C24.9853 92.7469 24.096 92.4771 23.3395 91.9717C22.5831 91.4662 21.9936 90.7479 21.6454 89.9074C21.2973 89.0669 21.2062 88.1421 21.3837 87.2498C21.5612 86.3575 21.9992 85.5379 22.6425 84.8947C23.2858 84.2514 24.1054 83.8133 24.9976 83.6358C25.8899 83.4583 26.8148 83.5494 27.6552 83.8976C28.4957 84.2457 29.2141 84.8353 29.7195 85.5917C30.225 86.3481 30.4947 87.2374 30.4947 88.1472C30.4934 89.3667 30.0083 90.5358 29.146 91.3981C28.2837 92.2604 27.1145 92.7455 25.895 92.7469ZM25.895 84.3837C25.1507 84.3837 24.4231 84.6045 23.8042 85.018C23.1853 85.4315 22.7029 86.0193 22.4181 86.707C22.1332 87.3946 22.0587 88.1513 22.2039 88.8814C22.3491 89.6114 22.7076 90.282 23.2339 90.8083C23.7602 91.3346 24.4308 91.693 25.1608 91.8382C25.8908 91.9835 26.6475 91.9089 27.3352 91.6241C28.0229 91.3392 28.6106 90.8569 29.0242 90.238C29.4377 89.6191 29.6584 88.8915 29.6584 88.1472C29.6573 87.1494 29.2604 86.1928 28.5549 85.4873C27.8494 84.7817 26.8928 84.3849 25.895 84.3837Z" fill="#C2C2C2"/>
<path id="Vector_31" d="M25.895 105.71C24.9853 105.71 24.096 105.44 23.3395 104.935C22.5831 104.429 21.9936 103.711 21.6454 102.87C21.2973 102.03 21.2062 101.105 21.3837 100.213C21.5612 99.3204 21.9992 98.5008 22.6425 97.8575C23.2858 97.2142 24.1054 96.7761 24.9976 96.5987C25.8899 96.4212 26.8148 96.5123 27.6552 96.8604C28.4957 97.2086 29.2141 97.7981 29.7195 98.5545C30.225 99.311 30.4947 100.2 30.4947 101.11C30.4934 102.33 30.0083 103.499 29.146 104.361C28.2837 105.223 27.1145 105.708 25.895 105.71ZM25.895 97.3466C25.1507 97.3466 24.4231 97.5673 23.8042 97.9809C23.1853 98.3944 22.7029 98.9822 22.4181 99.6698C22.1332 100.357 22.0587 101.114 22.2039 101.844C22.3491 102.574 22.7076 103.245 23.2339 103.771C23.7602 104.297 24.4308 104.656 25.1608 104.801C25.8908 104.946 26.6475 104.872 27.3352 104.587C28.0229 104.302 28.6106 103.82 29.0242 103.201C29.4377 102.582 29.6584 101.854 29.6584 101.11C29.6573 100.112 29.2604 99.1557 28.5549 98.4501C27.8494 97.7446 26.8928 97.3477 25.895 97.3466Z" fill="#C2C2C2"/>
<path id="Vector_32" d="M25.895 118.673C24.9853 118.673 24.096 118.403 23.3395 117.897C22.5831 117.392 21.9936 116.674 21.6454 115.833C21.2973 114.993 21.2062 114.068 21.3837 113.176C21.5612 112.283 21.9992 111.464 22.6425 110.82C23.2858 110.177 24.1054 109.739 24.9976 109.562C25.8899 109.384 26.8148 109.475 27.6552 109.823C28.4957 110.171 29.2141 110.761 29.7195 111.517C30.225 112.274 30.4947 113.163 30.4947 114.073C30.4934 115.292 30.0083 116.462 29.146 117.324C28.2837 118.186 27.1145 118.671 25.895 118.673ZM25.895 110.309C25.1507 110.309 24.4231 110.53 23.8042 110.944C23.1853 111.357 22.7029 111.945 22.4181 112.633C22.1332 113.32 22.0587 114.077 22.2039 114.807C22.3491 115.537 22.7076 116.208 23.2339 116.734C23.7602 117.26 24.4308 117.619 25.1608 117.764C25.8908 117.909 26.6475 117.835 27.3352 117.55C28.0229 117.265 28.6106 116.783 29.0242 116.164C29.4377 115.545 29.6584 114.817 29.6584 114.073C29.6573 113.075 29.2604 112.119 28.5549 111.413C27.8494 110.707 26.8928 110.311 25.895 110.309Z" fill="#C2C2C2"/>
<path id="Vector_33" d="M25.895 131.635C24.9853 131.635 24.096 131.366 23.3395 130.86C22.5831 130.355 21.9936 129.636 21.6454 128.796C21.2973 127.955 21.2062 127.031 21.3837 126.138C21.5612 125.246 21.9992 124.426 22.6425 123.783C23.2858 123.14 24.1054 122.702 24.9976 122.524C25.8899 122.347 26.8148 122.438 27.6552 122.786C28.4957 123.134 29.2141 123.724 29.7195 124.48C30.225 125.237 30.4947 126.126 30.4947 127.036C30.4934 128.255 30.0083 129.424 29.146 130.287C28.2837 131.149 27.1145 131.634 25.895 131.635ZM25.895 123.272C25.1507 123.272 24.4231 123.493 23.8042 123.907C23.1853 124.32 22.7029 124.908 22.4181 125.595C22.1332 126.283 22.0587 127.04 22.2039 127.77C22.3491 128.5 22.7076 129.17 23.2339 129.697C23.7602 130.223 24.4308 130.582 25.1608 130.727C25.8908 130.872 26.6475 130.797 27.3352 130.513C28.0229 130.228 28.6106 129.745 29.0242 129.127C29.4377 128.508 29.6584 127.78 29.6584 127.036C29.6573 126.038 29.2604 125.081 28.5549 124.376C27.8494 123.67 26.8928 123.273 25.895 123.272Z" fill="#C2C2C2"/>
<g id="list-dots">
<g id="list-dot-3">
<path id="Vector_34" d="M25.895 64.3253C27.0498 64.3253 27.9858 63.3892 27.9858 62.2345C27.9858 61.0798 27.0498 60.1438 25.895 60.1438C24.7403 60.1438 23.8043 61.0798 23.8043 62.2345C23.8043 63.3892 24.7403 64.3253 25.895 64.3253Z" fill="#68E1FD"/>
</g>
<g id="list-dot-2">
<path id="Vector_35" d="M25.895 90.251C27.0498 90.251 27.9858 89.3149 27.9858 88.1602C27.9858 87.0055 27.0498 86.0695 25.895 86.0695C24.7403 86.0695 23.8043 87.0055 23.8043 88.1602C23.8043 89.3149 24.7403 90.251 25.895 90.251Z" fill="#68E1FD"/>
</g>
<g id="list-dot-1">
<path id="Vector_36" d="M25.895 103.214C27.0498 103.214 27.9858 102.278 27.9858 101.123C27.9858 99.9684 27.0498 99.0323 25.895 99.0323C24.7403 99.0323 23.8043 99.9684 23.8043 101.123C23.8043 102.278 24.7403 103.214 25.895 103.214Z" fill="#68E1FD"/>
</g>
</g>
<g id="left-arm">
<path id="Vector_37" d="M212.243 111.47L212.92 116.552C212.989 117.066 213.169 117.559 213.448 117.997C213.726 118.435 214.097 118.806 214.534 119.086C214.971 119.365 215.464 119.546 215.978 119.616C216.492 119.685 217.015 119.642 217.511 119.488C218.044 119.323 218.532 119.035 218.933 118.647C219.335 118.26 219.64 117.783 219.824 117.256C220.008 116.729 220.066 116.166 219.992 115.612C219.919 115.059 219.717 114.53 219.402 114.069L216.361 109.616L210.389 93.7599L216.567 85.7286L209.36 82.6397L203.388 93.1421L212.243 111.47Z" fill="#FFB8B8"/>
</g>
<path id="Vector_38" d="M207.712 83.0516L218.009 86.9642L220.522 79.9814C220.856 79.0542 220.852 78.0388 220.509 77.1147C220.167 76.1906 219.509 75.4173 218.651 74.9315C217.784 74.44 216.77 74.2749 215.791 74.4659C214.813 74.6569 213.935 75.1915 213.316 75.9731L207.712 83.0516Z" fill="#68E1FD"/>
<path id="Vector_39" d="M200.505 180.662L213.993 180.991L221.921 129.18C229.443 142.88 235.409 161.139 240.661 181.486L252.399 178.809C249.128 157.155 243.135 137.638 234.071 120.531L234.483 108.793L215.743 105.91C215.213 106.158 214.709 106.46 214.24 106.811C203.652 114.696 202.281 150.204 200.505 180.662Z" fill="#2F2E41"/>
<path id="Vector_40" d="M243.75 197.548L248.258 196.985L247.662 191.576C249.491 195.256 251.827 196.862 254.634 196.542C255.296 196.455 255.918 196.181 256.429 195.752C256.94 195.324 257.319 194.759 257.522 194.124C257.561 194.004 257.595 193.882 257.622 193.759C257.715 193.243 257.622 192.71 257.359 192.256C257.096 191.802 256.68 191.456 256.186 191.281C252.818 189.939 251.899 183.832 251.163 177.367L245.603 178.397L245.809 183.133C242.638 187.725 242.547 192.319 243.75 197.548Z" fill="#2F2E41"/>
<path id="Vector_41" d="M203.388 197.548L207.896 196.985L207.3 191.576C209.129 195.256 211.465 196.862 214.272 196.542C214.933 196.455 215.556 196.181 216.067 195.752C216.578 195.324 216.957 194.759 217.159 194.124C217.199 194.004 217.233 193.882 217.26 193.759C217.353 193.243 217.26 192.71 216.997 192.256C216.734 191.802 216.318 191.456 215.823 191.281C212.456 189.939 211.536 183.832 210.801 177.367L205.241 178.397L205.447 183.133C202.276 187.725 202.184 192.319 203.388 197.548Z" fill="#2F2E41"/>
<path id="Vector_42" d="M214.767 106.623L234.277 111.264C235.78 99.051 235.272 88.3673 231.701 80.0113C231.151 78.7402 230.318 77.6114 229.265 76.7108C228.213 75.8103 226.969 75.1617 225.628 74.8144L217.391 74.4025C215.548 75.2943 214.043 76.7586 213.101 78.5764C212.159 80.3943 211.831 82.4682 212.165 84.4882C215.292 92.7293 217.443 100.598 214.767 106.623Z" fill="#68E1FD"/>
<g id="right-arm">
<path id="Vector_43" d="M250.393 103.159L254.946 105.517C255.407 105.756 255.914 105.891 256.432 105.913C256.951 105.936 257.468 105.845 257.947 105.647C258.427 105.449 258.858 105.149 259.209 104.768C259.561 104.386 259.825 103.933 259.984 103.439C260.154 102.907 260.197 102.343 260.11 101.791C260.023 101.24 259.807 100.717 259.48 100.264C259.154 99.8107 258.726 99.4407 258.23 99.1835C257.734 98.9263 257.185 98.789 256.627 98.7827L251.236 98.7218L234.82 94.5254L231.781 84.8595L225.118 88.9945L230.3 99.9082L250.393 103.159Z" fill="#FFB8B8"/>
<path id="Vector_44" d="M224.511 90.5804L233.619 84.3866L229.339 78.324C228.77 77.5189 227.936 76.9407 226.982 76.6915C226.029 76.4424 225.018 76.5383 224.128 76.9623C223.228 77.3912 222.512 78.1278 222.107 79.039C221.703 79.9502 221.638 80.976 221.923 81.931L224.511 90.5804Z" fill="#68E1FD"/>
</g>
<g id="girl-head">
<path id="Vector_45" d="M228.227 73.023C232.261 73.023 235.532 69.7528 235.532 65.7188C235.532 61.6848 232.261 58.4146 228.227 58.4146C224.193 58.4146 220.923 61.6848 220.923 65.7188C220.923 69.7528 224.193 73.023 228.227 73.023Z" fill="#FFB8B8"/>
<path id="Vector_46" d="M213.89 79.7567L223.569 78.1093L228.511 69.8721L221.509 65.3417C220.14 70.0798 217.438 74.8941 213.89 79.7567Z" fill="#FFB8B8"/>
<path id="Vector_47" d="M226.555 65.6506C229.356 65.2523 231.742 64.5313 234.543 64.1331C235.233 64.0349 236.026 63.8676 236.347 63.2482C236.643 62.6774 236.393 61.9812 236.084 61.4176C235.284 59.9596 234.11 58.7412 232.683 57.888C231.255 57.0348 229.626 56.5775 227.963 56.5634C226.3 56.5493 224.664 56.9787 223.222 57.8076C221.781 58.6364 220.586 59.8347 219.761 61.2788C219.023 62.5729 218.588 64.05 217.651 65.2085C217.024 65.908 216.328 66.5422 215.573 67.1016C209.911 71.8017 206.28 78.5043 205.436 85.8143C205.244 87.1473 205.28 88.503 205.539 89.8243C205.807 91.1551 206.549 92.3434 207.627 93.1682C209.25 94.3174 211.502 94.2213 213.329 93.436C216.828 91.932 219.012 88.241 219.645 84.4854C220.278 80.7299 219.593 76.8841 218.746 73.1711C218.436 71.8159 218.106 70.3895 218.503 69.0573C219.054 67.2067 221.609 70.1529 223.26 69.1514C223.949 68.7336 223.923 64.1915 224.725 64.2584C225.528 64.3253 226.302 65.1572 225.99 65.8998L226.555 65.6506Z" fill="#2F2E41"/>
<path id="Vector_48" d="M219.093 69.0166C219.301 68.8854 219.448 68.6771 219.502 68.4374C219.557 68.1977 219.514 67.9463 219.382 67.7384L218.202 65.8685C218.071 65.6606 217.863 65.5134 217.623 65.4592C217.383 65.4049 217.132 65.4482 216.924 65.5793C216.716 65.7105 216.569 65.9189 216.515 66.1586C216.461 66.3983 216.504 66.6497 216.635 66.8576L217.815 68.7275C217.946 68.9352 218.155 69.0822 218.394 69.1364C218.634 69.1906 218.886 69.1475 219.093 69.0166H219.093Z" fill="#68E1FD"/>
</g>
<path id="Vector_49" d="M11.6206 12.6425C13.5836 12.6425 15.1749 11.0512 15.1749 9.08817C15.1749 7.12517 13.5836 5.53384 11.6206 5.53384C9.65761 5.53384 8.06628 7.12517 8.06628 9.08817C8.06628 11.0512 9.65761 12.6425 11.6206 12.6425Z" fill="#C2C2C2"/>
<path id="Vector_50" d="M21.9282 12.6425C23.8912 12.6425 25.4825 11.0512 25.4825 9.08817C25.4825 7.12517 23.8912 5.53384 21.9282 5.53384C19.9652 5.53384 18.3738 7.12517 18.3738 9.08817C18.3738 11.0512 19.9652 12.6425 21.9282 12.6425Z" fill="#C2C2C2"/>
<path id="Vector_51" d="M32.2357 12.6425C34.1987 12.6425 35.7901 11.0512 35.7901 9.08817C35.7901 7.12517 34.1987 5.53384 32.2357 5.53384C30.2727 5.53384 28.6814 7.12517 28.6814 9.08817C28.6814 11.0512 30.2727 12.6425 32.2357 12.6425Z" fill="#C2C2C2"/>
</g>
<defs>
<clipPath id="clip0">
<rect width="400" height="197.565" fill="white"/>
</clipPath>
</defs>
</svg>
