<svg width="50" height="50" viewBox="0 0 50 50" fill="none" xmlns="http://www.w3.org/2000/svg">
<path d="M36.7188 5.85938V11.7188H13.2812V5.85938H5.95703V50H44.043V5.85938H36.7188ZM14.7461 44.6494L10.7803 40.6846L12.8525 38.6123L14.7461 40.5068L19.5693 35.6826L21.6416 37.7549L14.7461 44.6494ZM14.7461 35.8604L10.7803 31.8955L12.8525 29.8232L14.7461 31.7178L19.5693 26.8936L21.6416 28.9658L14.7461 35.8604ZM14.7461 27.0713L10.7803 23.1064L12.8525 21.0342L14.7461 22.9287L19.5693 18.1045L21.6416 20.1768L14.7461 27.0713ZM38.1836 41.1133H23.5352V38.1836H38.1836V41.1133ZM38.1836 32.3242H23.5352V29.3945H38.1836V32.3242ZM38.1836 23.5352H23.5352V20.6055H38.1836V23.5352Z" fill="#FF9838"/>
<path d="M27.9297 2.92969C27.9297 1.31162 26.6182 0 25 0C23.3819 0 22.0703 1.31152 22.0703 2.92969C21.3614 2.92969 16.9245 2.92969 16.2109 2.92969V8.78906H33.7891C33.7891 8.08018 33.7891 3.64326 33.7891 2.92969C33.0802 2.92969 28.6433 2.92969 27.9297 2.92969Z" fill="#FF9838"/>
</svg>
