<svg width="50" height="50" viewBox="0 0 50 50" fill="none" xmlns="http://www.w3.org/2000/svg">
<path d="M35.3516 0V2.92969H47.0703V14.6484H50V0H35.3516Z" fill="#FF9838"/>
<path d="M47.0703 47.0703H35.3516V50H50V35.3516H47.0703V47.0703Z" fill="#FF9838"/>
<path d="M2.92969 35.3516H0V50H14.6484V47.0703H2.92969V35.3516Z" fill="#FF9838"/>
<path d="M2.92969 2.92969H14.6484V0H0V14.6484H2.92969V2.92969Z" fill="#FF9838"/>
<path d="M41.0389 26.4648H44.043V23.5352H41.0389C40.3393 15.8184 34.1816 9.66072 26.4648 8.96111V5.95703H23.5352V8.96111C15.8184 9.66072 9.66072 15.8184 8.96111 23.5352H5.95703V26.4648H8.96111C9.66072 34.1816 15.8184 40.3393 23.5352 41.0389V44.043H26.4648V41.0389C34.1816 40.3393 40.3393 34.1816 41.0389 26.4648V26.4648ZM26.4648 38.0356V35.1059C30.9383 34.4574 34.4574 30.9383 35.1059 26.4648H38.0356C37.3508 32.5512 32.5512 37.3508 26.4648 38.0356ZM25 17.6758C29.0382 17.6758 32.3242 20.9618 32.3242 25C32.3242 29.0382 29.0382 32.3242 25 32.3242C20.9618 32.3242 17.6758 29.0382 17.6758 25C17.6758 20.9618 20.9618 17.6758 25 17.6758ZM38.0356 23.5352H35.1059C34.4574 19.0617 30.9383 15.5426 26.4648 14.8941V11.9644C32.5512 12.6492 37.3508 17.4488 38.0356 23.5352ZM23.5352 11.9644V14.8941C19.0617 15.5426 15.5426 19.0617 14.8941 23.5352H11.9644C12.6492 17.4488 17.4488 12.6492 23.5352 11.9644ZM11.9644 26.4648H14.8941C15.5426 30.9383 19.0617 34.4574 23.5352 35.1059V38.0356C17.4488 37.3508 12.6492 32.5512 11.9644 26.4648Z" fill="#FF9838"/>
<path d="M23.5352 23.5352H26.4648V26.4648H23.5352V23.5352Z" fill="#FF9838"/>
</svg>
