<svg width="50" height="50" viewBox="0 0 50 50" fill="none" xmlns="http://www.w3.org/2000/svg">
<path d="M26.5094 30.4541V24.0646H23.5816V30.4391L18.1545 35.8662L20.2247 37.9363L25.0397 33.1214L29.8879 37.9403L31.9518 35.8637L26.5094 30.4541Z" fill="#FF9838"/>
<path d="M27.5516 10.8183H22.5577C19.6979 10.8183 17.3712 13.145 17.3712 16.0048V19.6017H32.738V16.0048C32.738 13.1448 30.4113 10.8183 27.5516 10.8183Z" fill="#FF9838"/>
<path d="M25.0547 0.0927124C22.5156 0.0927124 20.4497 2.15843 20.4497 4.69769C20.4497 7.23685 22.5154 9.30248 25.0547 9.30248C27.5938 9.30248 29.6597 7.23685 29.6597 4.6976C29.6597 2.15844 27.5937 0.0927124 25.0547 0.0927124Z" fill="#FF9838"/>
<path d="M10.1803 41.1238H5.18652C2.32666 41.1238 0 43.4506 0 46.3103V49.9071H15.3668V46.3103C15.3668 43.4506 13.0401 41.1238 10.1803 41.1238Z" fill="#FF9838"/>
<path d="M7.68335 30.3984C5.14419 30.3984 3.07837 32.4642 3.07837 35.0034C3.07837 37.5427 5.14409 39.6084 7.68335 39.6084C10.2225 39.6084 12.2883 37.5427 12.2883 35.0034C12.2883 32.4642 10.2226 30.3984 7.68335 30.3984Z" fill="#FF9838"/>
<path d="M44.8136 41.1238H39.8197C36.96 41.1238 34.6333 43.4505 34.6333 46.3104V49.9072H50V46.3104C50 43.4506 47.6734 41.1238 44.8136 41.1238Z" fill="#FF9838"/>
<path d="M42.3167 30.3984C39.7776 30.3984 37.7117 32.4642 37.7117 35.0034C37.7117 37.5427 39.7775 39.6084 42.3167 39.6084C44.8559 39.6084 46.9217 37.5427 46.9217 35.0034C46.9217 32.4642 44.8559 30.3984 42.3167 30.3984Z" fill="#FF9838"/>
</svg>
