<svg width="75" height="75" viewBox="0 0 75 75" fill="none" xmlns="http://www.w3.org/2000/svg">
<g clip-path="url(#clip0)">
<path d="M60.1023 21.877C60.19 21.7976 60.2772 21.717 60.3621 21.6334C61.9768 20.0454 62.8663 17.9237 62.8663 15.659V11.626C63.5883 11.2345 64.0796 10.4697 64.0796 9.59224V5.9521C64.0796 2.67012 61.4095 0 58.1274 0H50.8472C47.5653 0 44.895 2.67012 44.895 5.9521V9.59224C44.895 10.4697 45.3863 11.2345 46.1083 11.626V15.5394C46.1083 18.0437 47.2002 20.3108 48.9243 21.873C44.6351 22.2346 41.2547 25.8387 41.2547 30.2197V37.5C41.2547 39.444 42.8363 41.0254 44.7801 41.0254H64.1942C66.1382 41.0254 67.7195 39.444 67.7195 37.5V30.2197C67.7197 25.8564 64.3667 22.2633 60.1023 21.877V21.877ZM52.9869 31.3184H55.9877L56.9451 36.904C56.9461 36.9431 56.9272 36.9798 56.894 37.002L54.5509 38.5641C54.5123 38.5898 54.4623 38.5898 54.4237 38.5641L52.0805 37.002C52.0474 36.98 52.0286 36.9432 52.0294 36.9041L52.9869 31.3184ZM56.1223 29.1211H52.8525L52.4638 27.9552L54.4874 24.9199L56.5109 27.9552L56.1223 29.1211ZM50.065 27.5924C50.0523 27.6116 50.0266 27.6516 49.9553 27.6426C49.885 27.6338 49.8689 27.5887 49.8612 27.567L48.6424 24.1187C48.9653 24.0664 49.2963 24.0381 49.6338 24.0381H52.4345L50.065 27.5924ZM56.5401 24.0381H59.3408C59.6783 24.0381 60.0092 24.0664 60.3322 24.1187L59.1133 27.5669C59.1057 27.5886 59.0898 27.6338 59.0193 27.6426C58.9478 27.651 58.9225 27.6116 58.9096 27.5924L56.5401 24.0381ZM47.0923 5.9521C47.0923 3.88169 48.7767 2.19727 50.8472 2.19727H58.1274C60.1979 2.19727 61.8823 3.88169 61.8823 5.9521V9.59224C61.8823 9.65552 61.8308 9.70693 61.7676 9.70693C59.9886 9.70693 58.441 8.44409 58.0878 6.70386C57.8701 5.63159 56.9178 4.85332 55.8236 4.85332H53.1511C52.0569 4.85332 51.1046 5.63159 50.8868 6.704C50.5338 8.44395 48.9861 9.70693 47.2071 9.70693C47.1438 9.70693 47.0924 9.65537 47.0924 9.59224V5.9521H47.0923ZM48.3057 15.5394V11.8005C50.6439 11.3587 52.5544 9.53511 53.0401 7.14126C53.0508 7.08882 53.0975 7.05073 53.1511 7.05073H55.8236C55.8772 7.05073 55.9239 7.08882 55.9345 7.14111C56.4204 9.53511 58.3308 11.3585 60.669 11.8005V15.6592C60.669 17.3298 60.0129 18.8952 58.8216 20.0669C57.6558 21.2133 56.1207 21.8408 54.4878 21.8408C54.4865 21.8408 54.4852 21.8408 54.4839 21.8408C54.4828 21.8408 54.4817 21.8408 54.4806 21.8408C54.4477 21.8408 54.4146 21.8405 54.3813 21.8399C51.0312 21.784 48.3057 18.9576 48.3057 15.5394V15.5394ZM43.4521 37.5V30.2197C43.4521 27.9249 44.71 25.9197 46.5716 24.8533L47.7898 28.2993C48.0835 29.13 48.8092 29.7139 49.6836 29.8229C49.7813 29.8351 49.8785 29.8411 49.9749 29.8411C50.2368 29.8411 50.4926 29.7959 50.7334 29.712L50.9313 30.3057L49.8574 36.5704C49.8547 36.5867 49.8523 36.6031 49.8501 36.6195C49.7408 37.493 50.1274 38.3389 50.8591 38.8282H44.7803C44.0479 38.8282 43.4521 38.2324 43.4521 37.5V37.5ZM65.5225 37.5C65.5225 38.2324 64.9267 38.8282 64.1945 38.8282H58.1156C58.8472 38.3391 59.2338 37.4933 59.1246 36.6198C59.1224 36.6032 59.1201 36.5867 59.1173 36.5703L58.0434 30.3056L58.2413 29.712C58.4823 29.7959 58.7379 29.8411 58.9998 29.8411C59.0962 29.8411 59.1935 29.8351 59.2912 29.8229C60.1655 29.7138 60.8912 29.13 61.1849 28.2992L62.4029 24.8533C64.2645 25.9197 65.5223 27.9249 65.5223 30.2197V37.5H65.5225Z" fill="#CE0000"/>
<path d="M52.0606 14.9378C52.6675 14.9378 53.1592 14.4459 53.1592 13.8392V13.2324C53.1592 12.6257 52.6675 12.1338 52.0606 12.1338C51.4537 12.1338 50.9619 12.6257 50.9619 13.2324V13.8392C50.9619 14.4459 51.4538 14.9378 52.0606 14.9378Z" fill="#CE0000"/>
<path d="M56.914 14.9378C57.5209 14.9378 58.0127 14.4459 58.0127 13.8392V13.2324C58.0127 12.6257 57.5209 12.1338 56.914 12.1338C56.3071 12.1338 55.8154 12.6257 55.8154 13.2324V13.8392C55.8154 14.4459 56.3073 14.9378 56.914 14.9378Z" fill="#CE0000"/>
<path d="M26.1277 55.8515C26.2155 55.7721 26.3025 55.6916 26.3874 55.6081C28.0021 54.02 28.8916 51.8983 28.8916 49.6337V45.6005C29.6136 45.209 30.1049 44.4442 30.1049 43.5667V39.9266C30.1049 36.6445 27.4346 33.9744 24.1527 33.9744H16.8725C13.5906 33.9744 10.9203 36.6445 10.9203 39.9266V43.5667C10.9203 44.4442 11.4116 45.209 12.1336 45.6005V49.5139C12.1336 52.018 13.2255 54.2852 14.9496 55.8474C10.6606 56.2091 7.28015 59.813 7.28015 64.1941V71.4744C7.2803 73.4185 8.86174 75 10.8057 75H12.2315C12.8384 75 13.3301 74.5081 13.3301 73.9013C13.3301 73.2946 12.8384 72.8027 12.2315 72.8027H10.8057C10.0735 72.8027 9.47771 72.2069 9.47771 71.4745V64.1942C9.47771 61.8994 10.7356 59.8942 12.5971 58.8278L13.8151 62.2737C14.1088 63.1044 14.8344 63.6883 15.7089 63.7974C15.8064 63.8096 15.9038 63.8156 16.0002 63.8156C16.2621 63.8156 16.5179 63.7705 16.7587 63.6865L16.9566 64.2802L15.8827 70.5449C15.88 70.5613 15.8776 70.5779 15.8754 70.5944C15.7664 71.4681 16.153 72.3139 16.8845 72.8028H16.626C16.0191 72.8028 15.5274 73.2947 15.5274 73.9015C15.5274 74.5082 16.0191 75.0001 16.626 75.0001H30.2198C32.1636 75.0001 33.7452 73.4187 33.7452 71.4747V64.1944C33.7452 59.8309 30.3922 56.2378 26.1277 55.8515ZM22.1476 63.0956H18.8778L18.4891 61.9297L20.5127 58.8944L22.5362 61.9297L22.1476 63.0956ZM19.0124 65.2929H22.013L22.9705 70.8786C22.9714 70.9177 22.9525 70.9543 22.9194 70.9765L20.5762 72.5386C20.5376 72.5645 20.4876 72.5644 20.449 72.5386L18.1058 70.9763C18.0727 70.9544 18.0539 70.9176 18.0548 70.8785L19.0124 65.2929ZM22.5655 58.0126H25.3663C25.7038 58.0126 26.0347 58.0409 26.3577 58.0932L25.1388 61.5416C25.131 61.5632 25.1152 61.6085 25.0448 61.6173C24.9739 61.6252 24.9478 61.5862 24.935 61.567L22.5655 58.0126ZM13.1177 39.9268C13.1177 37.8562 14.8021 36.1718 16.8727 36.1718H24.1528C26.2234 36.1718 27.9078 37.8562 27.9078 39.9268V43.5669C27.9078 43.6302 27.8562 43.6817 27.7931 43.6817H22.9395C20.8691 43.6817 19.1846 41.9973 19.1846 39.9269C19.1846 39.3202 18.6929 38.8283 18.086 38.8283C17.4791 38.8283 16.9874 39.3202 16.9874 39.9269C16.9874 41.9973 15.303 43.6817 13.2324 43.6817C13.1691 43.6817 13.1177 43.6302 13.1177 43.5669V39.9268ZM14.331 49.514V45.7756C15.8744 45.4863 17.2089 44.5999 18.086 43.3658C19.1656 44.885 20.9381 45.8789 22.9395 45.8789H26.6945V49.6337C26.6945 51.3043 26.0384 52.8697 24.847 54.0414C23.6561 55.2127 22.085 55.8417 20.4068 55.8145C17.0565 55.7586 14.331 52.9322 14.331 49.514V49.514ZM15.9807 61.6171C15.9104 61.6084 15.8945 61.5631 15.8867 61.5414L14.6678 58.0932C14.9908 58.0409 15.3217 58.0126 15.6594 58.0126H18.46L16.0905 61.5669C16.0777 61.5861 16.0518 61.6256 15.9807 61.6171V61.6171ZM31.5479 71.4745C31.5479 72.2069 30.9522 72.8027 30.2198 72.8027H24.1411C24.8728 72.3134 25.2593 71.4675 25.1501 70.594C25.1479 70.5776 25.1455 70.5612 25.1427 70.5449L24.0689 64.2802L24.2668 63.6867C24.5077 63.7706 24.7634 63.8157 25.0253 63.8157C25.1217 63.8157 25.2191 63.8097 25.3166 63.7976C26.1911 63.6884 26.9167 63.1047 27.2104 62.2738L28.4285 58.8278C30.2901 59.8942 31.5481 61.8996 31.5481 64.1942V71.4745H31.5479Z" fill="#CE0000"/>
<path d="M18.086 48.9123C18.6929 48.9123 19.1846 48.4204 19.1846 47.8136V47.2069C19.1846 46.6002 18.6929 46.1083 18.086 46.1083C17.4791 46.1083 16.9874 46.6002 16.9874 47.2069V47.8136C16.9874 48.4204 17.4791 48.9123 18.086 48.9123V48.9123Z" fill="#CE0000"/>
<path d="M22.9395 48.9123C23.5463 48.9123 24.0381 48.4204 24.0381 47.8136V47.2069C24.0381 46.6002 23.5463 46.1083 22.9395 46.1083C22.3326 46.1083 21.8408 46.6002 21.8408 47.2069V47.8136C21.8408 48.4204 22.3326 48.9123 22.9395 48.9123Z" fill="#CE0000"/>
<path d="M18.663 30.3936C19.1039 30.9813 19.7779 31.3182 20.5127 31.3182C21.2474 31.3182 21.9214 30.9812 22.3623 30.3935L27.2158 23.9221C27.7446 23.2169 27.8284 22.2892 27.434 21.5008C27.04 20.7126 26.2475 20.2228 25.3663 20.2228H24.0381V14.4458C24.0381 14.3826 24.0897 14.3312 24.1528 14.3312H41.1401C42.415 14.3312 43.4521 13.2939 43.4521 12.019V9.59224C43.4521 8.31738 42.415 7.28027 41.1401 7.28027H36.3066C35.6999 7.28027 35.208 7.77217 35.208 8.37891C35.208 8.98564 35.6999 9.47754 36.3066 9.47754H41.1401C41.2034 9.47754 41.2548 9.5291 41.2548 9.59224V12.019C41.2548 12.0823 41.2033 12.1339 41.1401 12.1339H24.1528C22.8779 12.1339 21.8408 13.1711 21.8408 14.4458V21.3217C21.8408 21.9284 22.3326 22.4203 22.9395 22.4203H25.3663C25.3893 22.4203 25.437 22.4203 25.4688 22.4837C25.5006 22.5472 25.4717 22.5855 25.458 22.604L20.6045 29.0752C20.596 29.0867 20.5702 29.1211 20.5127 29.1211C20.4551 29.1211 20.4293 29.0865 20.4208 29.0752L15.5673 22.6039C15.5534 22.5854 15.5247 22.5472 15.5565 22.4837C15.5883 22.4203 15.6362 22.4203 15.6592 22.4203H18.0858C18.6927 22.4203 19.1845 21.9284 19.1845 21.3217V10.8057C19.1845 10.0734 19.7802 9.47768 20.5125 9.47768H31.9118C32.5187 9.47768 33.0104 8.98579 33.0104 8.37905C33.0104 7.77231 32.5187 7.28042 31.9118 7.28042H20.5125C18.5685 7.28042 16.9872 8.86186 16.9872 10.8057V20.223H15.6592C14.7776 20.223 13.9853 20.7127 13.5913 21.5011C13.1971 22.2894 13.2807 23.2172 13.8095 23.9222L18.663 30.3936Z" fill="#CE0000"/>
<path d="M61.1905 44.6064C60.7496 44.0187 60.0756 43.6818 59.3408 43.6818C58.6062 43.6818 57.9322 44.0188 57.4913 44.6065L52.6377 51.0779C52.1089 51.7831 52.0251 52.7108 52.4195 53.499C52.8135 54.2874 53.606 54.7771 54.4874 54.7771H55.8154V60.5543C55.8154 60.6176 55.7638 60.669 55.7007 60.669H38.7134C37.4385 60.669 36.4014 61.7062 36.4014 62.9811V65.4077C36.4014 66.6826 37.4385 67.7197 38.7134 67.7197H59.3408C61.2847 67.7197 62.8663 66.1383 62.8663 64.1944V54.7771H64.1943C65.0757 54.7771 65.868 54.2874 66.2621 53.4991C66.6563 52.7108 66.5728 51.7831 66.044 51.0778L61.1905 44.6064ZM64.297 52.5164C64.2653 52.5798 64.2175 52.5798 64.1945 52.5798H61.7678C61.1609 52.5798 60.6692 53.0717 60.6692 53.6784V64.1944C60.6692 64.9267 60.0734 65.5224 59.341 65.5224H38.7134C38.6501 65.5224 38.5987 65.4709 38.5987 65.4077V62.9809C38.5987 62.9177 38.6502 62.8661 38.7134 62.8661H55.7007C56.9756 62.8661 58.0127 61.8288 58.0127 60.5541V53.6783C58.0127 53.0716 57.5209 52.5797 56.914 52.5797H54.4874C54.4644 52.5797 54.4165 52.5797 54.3847 52.5162C54.3529 52.4528 54.3816 52.4146 54.3955 52.3961L59.2491 45.9249C59.2576 45.9135 59.2836 45.8789 59.3408 45.8789C59.3984 45.8789 59.4242 45.9135 59.4327 45.9247L64.2861 52.396C64.2999 52.4144 64.3286 52.4528 64.297 52.5164V52.5164Z" fill="#CE0000"/>
</g>
<defs>
<clipPath id="clip0">
<rect width="75" height="75" fill="white"/>
</clipPath>
</defs>
</svg>
