<svg width="75" height="75" viewBox="0 0 100 100" fill="none" xmlns="http://www.w3.org/2000/svg">
<path d="M1.46484 48.2303H14.5215C14.9459 48.2303 15.3494 48.0463 15.6277 47.7256C15.9059 47.4051 16.0314 46.9797 15.9717 46.5594C15.9059 46.0955 15.8725 45.6199 15.8725 45.1467C15.8725 39.7098 20.2957 35.2867 25.7324 35.2867C31.1691 35.2867 35.5924 39.7098 35.5924 45.1467C35.5924 45.6207 35.559 46.0957 35.4932 46.5586C35.4334 46.9789 35.5588 47.4045 35.8371 47.7252C36.1154 48.0459 36.5189 48.2299 36.9436 48.2299L46.7646 48.2297C47.1531 48.2297 47.5258 48.0754 47.8004 47.8006C48.0752 47.526 48.2295 47.1535 48.2295 46.7648L48.2289 32.2043C48.2287 31.5291 48.6043 30.9219 49.2078 30.6203C49.8125 30.3182 50.5232 30.3826 51.0635 30.7887C52.1631 31.6145 53.4738 32.0508 54.8537 32.0508C58.3377 32.0508 61.1721 29.2164 61.1721 25.7324C61.1721 22.2484 58.3375 19.4141 54.8535 19.4141C53.4732 19.4141 52.1627 19.8504 51.0635 20.6762C50.523 21.082 49.8121 21.1469 49.2084 20.8449C48.6041 20.543 48.2287 19.9359 48.2287 19.2605V1.46484C48.2287 0.655664 47.5729 0 46.7639 0H4.70059C2.10859 0 0 2.10859 0 4.70039V8.54805C0 9.35723 0.655859 10.0129 1.46484 10.0129C2.27383 10.0129 2.92969 9.35723 2.92969 8.54805V4.70039C2.92969 3.72402 3.72402 2.92969 4.70059 2.92969H45.2992V19.2605C45.2992 21.0531 46.2955 22.6645 47.8992 23.4656C49.5025 24.2672 51.3895 24.0957 52.823 23.0188C53.4109 22.5771 54.1129 22.3438 54.8535 22.3438C56.7221 22.3438 58.2422 23.8639 58.2422 25.7324C58.2422 27.601 56.7221 29.1211 54.8535 29.1211C54.1131 29.1211 53.4107 28.8877 52.8227 28.4461C51.3896 27.3697 49.5033 27.1982 47.8986 27.9992C46.2951 28.8008 45.299 30.4123 45.299 32.2045L45.2994 45.3L38.5211 45.3002C38.5217 45.249 38.5221 45.1979 38.5221 45.1467C38.5221 38.0945 32.7846 32.357 25.7324 32.357C18.6801 32.357 12.9428 38.0945 12.9428 45.1467C12.9428 45.198 12.943 45.2492 12.9438 45.3006H2.92969V14.4076C2.92969 13.5984 2.27383 12.9428 1.46484 12.9428C0.655859 12.9428 0 13.5984 0 14.4076V46.7654C0 47.5744 0.655859 48.2303 1.46484 48.2303V48.2303Z" fill="#CE0000"/>
<path d="M9.40099 17.6432V9.55356C9.40099 9.46919 9.46974 9.40063 9.55392 9.40063H17.6432C18.4522 9.40063 19.108 8.74478 19.108 7.93579C19.108 7.12661 18.4522 6.47095 17.6432 6.47095H9.55411C7.85431 6.47095 6.4715 7.85376 6.4715 9.55356V17.6432C6.4715 18.4524 7.12736 19.1081 7.93634 19.1081C8.74532 19.1081 9.40099 18.4524 9.40099 17.6432Z" fill="#CE0000"/>
<path d="M90.4463 6.47107H82.3566C81.5476 6.47107 80.8918 7.12673 80.8918 7.93591C80.8918 8.74509 81.5476 9.40076 82.3566 9.40076H90.4463C90.5307 9.40076 90.5992 9.46951 90.5992 9.55369V17.6429C90.5992 18.4521 91.2551 19.1078 92.0641 19.1078C92.873 19.1078 93.5289 18.4521 93.5289 17.6429V9.55369C93.5289 7.85388 92.1459 6.47107 90.4463 6.47107V6.47107Z" fill="#CE0000"/>
<path d="M93.5289 90.4463V82.3564C93.5289 81.5473 92.8731 80.8916 92.0641 80.8916C91.2551 80.8916 90.5992 81.5473 90.5992 82.3564V90.4463C90.5992 90.5307 90.5305 90.5992 90.4463 90.5992H82.3571C81.5481 90.5992 80.8922 91.2549 80.8922 92.0641C80.8922 92.8732 81.5481 93.5289 82.3571 93.5289H90.4463C92.1459 93.5289 93.5289 92.1461 93.5289 90.4463V90.4463Z" fill="#CE0000"/>
<path d="M17.6438 90.599H9.55411C9.46974 90.599 9.40118 90.5303 9.40118 90.4459V82.3568C9.40118 81.5476 8.74532 80.892 7.93634 80.892C7.12736 80.892 6.4715 81.5476 6.4715 82.3568V90.4459C6.4715 92.1457 7.8545 93.5287 9.55411 93.5287H17.6438C18.4527 93.5287 19.1086 92.873 19.1086 92.0638C19.1086 91.2549 18.4527 90.599 17.6438 90.599Z" fill="#CE0000"/>
<path d="M95.2994 0H53.2354C52.4264 0 51.7705 0.655664 51.7705 1.46484V14.5213C51.7705 14.9457 51.9545 15.3492 52.2752 15.6275C52.5957 15.9057 53.0209 16.0307 53.4414 15.9717C53.9045 15.9059 54.3795 15.8725 54.8535 15.8725C60.2902 15.8725 64.7135 20.2955 64.7135 25.7324C64.7135 31.1693 60.2902 35.5924 54.8535 35.5924C54.3807 35.5924 53.9055 35.559 53.4412 35.4932C53.0211 35.434 52.5955 35.5592 52.2752 35.8375C51.9547 36.1158 51.7707 36.5191 51.7707 36.9436L51.7711 46.7645C51.7711 47.5736 52.427 48.2293 53.2359 48.2293L67.7957 48.2291C68.4711 48.2291 69.0781 48.6045 69.3799 49.2086C69.6816 49.8129 69.6172 50.5234 69.2117 51.0633C68.3857 52.1627 67.9492 53.4734 67.9492 54.8533C67.9492 58.3373 70.7836 61.1719 74.2676 61.1719C77.7516 61.1719 80.5859 58.3373 80.5859 54.8533C80.5859 53.4734 80.1494 52.1629 79.3236 51.0635C78.9182 50.5234 78.8537 49.8129 79.1557 49.2088C79.4574 48.6047 80.0645 48.2293 80.7396 48.2293H98.5352C99.3441 48.2293 100 47.5736 100 46.7645V4.70039C100 2.10859 97.8914 0 95.2994 0V0ZM97.0703 45.2998H80.7396C78.9469 45.2998 77.3357 46.2961 76.5348 47.8996C75.7334 49.5033 75.9045 51.3898 76.9811 52.823C77.4227 53.4111 77.6563 54.1135 77.6563 54.8537C77.6563 56.7223 76.1361 58.2426 74.2676 58.2426C72.399 58.2426 70.8789 56.7225 70.8789 54.8537C70.8789 54.1135 71.1123 53.4111 71.5541 52.823C72.6307 51.3898 72.8018 49.5033 72.0008 47.8996C71.1996 46.2959 69.5883 45.2996 67.7957 45.2996L54.7008 45.2998L54.7004 38.5213C61.8258 38.5994 67.6434 32.8359 67.6434 25.7324C67.6434 18.6803 61.9061 12.9428 54.8537 12.9428C54.8025 12.9428 54.7516 12.9432 54.7004 12.9438V2.92969H95.2996C96.276 2.92969 97.0705 3.72402 97.0705 4.70039V45.2998H97.0703Z" fill="#CE0000"/>
<path d="M47.7248 84.3727C47.4043 84.0941 46.9791 83.9689 46.5588 84.0283C46.0945 84.0941 45.6193 84.1275 45.1465 84.1275C39.7098 84.1275 35.2865 79.7045 35.2865 74.2676C35.2865 68.8307 39.7098 64.4076 45.1465 64.4076C45.6195 64.4076 46.0951 64.441 46.5596 64.5068C46.9805 64.5674 47.4051 64.4408 47.7256 64.1625C48.0461 63.8842 48.2301 63.4809 48.2301 63.0564L48.2297 53.2361C48.2297 52.427 47.5738 51.7713 46.7648 51.7713L32.2041 51.7715C31.5287 51.7715 30.9217 51.3961 30.6197 50.7918C30.318 50.1877 30.3824 49.4771 30.7883 48.9371C31.6143 47.8373 32.0508 46.5266 32.0508 45.1467C32.0508 41.6627 29.2164 38.8281 25.7324 38.8281C22.2484 38.8281 19.4141 41.6625 19.4141 45.1465C19.4141 46.5264 19.8508 47.8373 20.6771 48.9375C21.0828 49.4773 21.1473 50.1879 20.8455 50.792C20.5437 51.3963 19.9367 51.7717 19.2613 51.7717H1.46484C0.655859 51.7717 0 52.4273 0 53.2365V95.2994C0 97.8914 2.10859 100 4.70059 100H46.7645C47.5734 100 48.2293 99.3443 48.2293 98.5352V85.4787C48.2293 85.0543 48.0451 84.6508 47.7248 84.3727V84.3727ZM45.2996 97.0703H4.70059C3.72402 97.0703 2.92969 96.276 2.92969 95.2996V54.7014H19.2611C21.0539 54.7014 22.6652 53.7049 23.4662 52.1014C24.2674 50.4975 24.0961 48.6109 23.0191 47.1779C22.5771 46.5893 22.3436 45.8871 22.3436 45.1467C22.3436 43.2781 23.8637 41.7578 25.7322 41.7578C27.6008 41.7578 29.1209 43.2779 29.1209 45.1467C29.1209 45.8871 28.8873 46.5895 28.4457 47.1773C27.3686 48.6107 27.1973 50.4975 27.9986 52.1012C28.7998 53.7049 30.4111 54.701 32.2037 54.701L45.2996 54.7008L45.2998 61.4787C45.2486 61.4781 45.1973 61.4777 45.1461 61.4777C38.0939 61.4777 32.3564 67.2152 32.3564 74.2674C32.3564 81.3195 38.0939 87.057 45.1461 87.057C45.1971 87.057 45.248 87.0566 45.2992 87.0561V97.0703H45.2996Z" fill="#CE0000"/>
<path d="M98.5351 51.7709H85.4787C85.0543 51.7709 84.6506 51.9549 84.3724 52.2756C84.0943 52.5961 83.9687 53.0215 84.0285 53.4418C84.0943 53.9051 84.1277 54.3801 84.1277 54.8535C84.1277 60.2904 79.7045 64.7135 74.2678 64.7135C68.831 64.7135 64.4078 60.2902 64.4078 54.8535C64.4078 54.3801 64.4412 53.9051 64.507 53.4416C64.5668 53.0215 64.4412 52.5959 64.1631 52.2754C63.8848 51.9547 63.4812 51.7707 63.0568 51.7707L53.2365 51.7709C52.848 51.7709 52.4754 51.9252 52.2008 52.2C51.926 52.4746 51.7717 52.8472 51.7717 53.2357L51.7723 67.7963C51.7723 68.4717 51.3969 69.0789 50.7926 69.3807C50.1883 69.6824 49.4775 69.6176 48.9373 69.2119C47.8379 68.3859 46.5271 67.9492 45.1467 67.9492C41.6627 67.9492 38.8283 70.7836 38.8283 74.2676C38.8283 77.7516 41.6627 80.5859 45.1467 80.5859C46.5266 80.5859 47.8371 80.1496 48.9367 79.3238C49.4769 78.9182 50.1875 78.8537 50.7918 79.1557C51.3959 79.4574 51.7711 80.0643 51.7711 80.7396V98.5352C51.7711 99.3443 52.4269 100 53.2359 100H86.3281C87.1371 100 87.793 99.3443 87.793 98.5352C87.793 97.726 87.1371 97.0703 86.3281 97.0703H54.7006V80.7396C54.7006 78.9469 53.7043 77.3355 52.1008 76.5348C50.4973 75.7336 48.6105 75.9045 47.1769 76.9813C46.5889 77.4229 45.8867 77.6563 45.1463 77.6563C43.2777 77.6563 41.7576 76.1361 41.7576 74.2676C41.7576 72.399 43.2777 70.8789 45.1463 70.8789C45.8869 70.8789 46.5891 71.1123 47.1769 71.5541C48.6103 72.6314 50.4974 72.8029 52.101 72.0016C53.7049 71.2004 54.7012 69.5889 54.7012 67.7963L54.7006 54.7006L61.4783 54.7004C61.4777 54.7516 61.4775 54.8023 61.4775 54.8533C61.4775 61.9055 67.215 67.643 74.2672 67.643C81.3195 67.643 87.0568 61.9055 87.0568 54.8533C87.0568 54.8023 87.0566 54.7514 87.056 54.7006H97.0703V95.2994C97.0703 96.2758 96.276 97.0701 95.2994 97.0701H92.0641C91.2551 97.0701 90.5992 97.7258 90.5992 98.535C90.5992 99.3442 91.2551 99.9998 92.0641 99.9998H95.2994C97.8912 99.9998 100 97.8912 100 95.2994V53.2357C100 52.4267 99.3441 51.7709 98.5351 51.7709V51.7709Z" fill="#CE0000"/>
</svg>
