<svg width="75" height="75" viewBox="0 0 75 75" fill="none" xmlns="http://www.w3.org/2000/svg">
<path d="M72.7295 31.5479H68.5286V28.9649C68.5286 27.7129 67.5101 26.6944 66.2581 26.6944H66.102V24.1113C66.102 22.8593 65.0834 21.8408 63.8314 21.8408H63.6751V18.4116C64.5344 18.0126 65.3282 17.4647 66.0246 16.7799C67.375 15.4519 68.2156 13.7502 68.4555 11.9042H69.8568C71.8008 11.9042 73.3822 10.3228 73.3822 8.37891V3.52544C73.3822 2.25059 72.345 1.21333 71.0701 1.21333H68.2504C67.8589 0.491309 67.0941 0 66.2167 0H54.0829C53.2055 0 52.4407 0.491309 52.049 1.21333H49.2293C47.9544 1.21333 46.9173 2.25059 46.9173 3.52544V8.37891C46.9173 10.3228 48.4988 11.9042 50.4426 11.9042H51.859C52.2716 14.7696 54.1147 17.1917 56.6243 18.3861V21.8408H56.4681C55.2161 21.8408 54.1976 22.8593 54.1976 24.1113V26.6943H54.0413C52.7893 26.6943 51.7708 27.7128 51.7708 28.9648V31.5478H47.5699C46.3179 31.5478 45.2994 32.5663 45.2994 33.8183V36.3281C45.2994 37.5801 46.3179 38.5986 47.5699 38.5986H47.7262V43.6816H34.109C33.5021 43.6816 33.0104 44.1735 33.0104 44.7803C33.0104 45.387 33.5021 45.8789 34.109 45.8789H47.7262V48.5351H26.1751H24.9204C24.8801 48.5351 24.8471 48.5023 24.8471 48.4619V45.9522C24.8471 45.9117 24.8801 45.8789 24.9204 45.8789H29.7146C30.3215 45.8789 30.8133 45.387 30.8133 44.7803C30.8133 44.1735 30.3215 43.6816 29.7146 43.6816H24.9204C23.6684 43.6816 22.6499 44.7001 22.6499 45.9522V48.4619C22.6499 49.7139 23.6684 50.7324 24.9204 50.7324H25.0765V55.8154H2.27051C1.01851 55.8154 0 56.8339 0 58.0859V60.5956C0 61.8476 1.01851 62.8661 2.27051 62.8661H2.42666V72.6879C2.42666 73.9627 3.46377 74.9999 4.73862 74.9999H8.49229C9.09917 74.9999 9.59092 74.508 9.59092 73.9012C9.59092 73.2945 9.09917 72.8026 8.49229 72.8026H4.73877C4.67549 72.8026 4.62407 72.7512 4.62407 72.6879V70.1464H70.3761V72.6879C70.3761 72.7512 70.3245 72.8026 70.2614 72.8026H12.8871C12.2802 72.8026 11.7885 73.2945 11.7885 73.9012C11.7885 74.508 12.2802 74.9999 12.8871 74.9999H70.2612C71.5361 74.9999 72.5732 73.9627 72.5732 72.6879V38.5986H72.7293C73.9813 38.5986 74.9999 37.5801 74.9999 36.3281V33.8184C75 32.5664 73.9815 31.5479 72.7295 31.5479V31.5479ZM71.185 3.52544V8.37891C71.185 9.11118 70.5892 9.70693 69.8568 9.70693H68.5288V3.4106H71.0703C71.1334 3.4106 71.185 3.46216 71.185 3.52544V3.52544ZM49.1146 8.37891V3.52544C49.1146 3.46216 49.1662 3.4106 49.2293 3.4106H51.7708V9.70693H50.4428C49.7103 9.70708 49.1146 9.11118 49.1146 8.37891V8.37891ZM53.9681 10.6859V2.31196C53.9681 2.24868 54.0196 2.19727 54.0829 2.19727H66.2167C66.2799 2.19727 66.3313 2.24883 66.3313 2.31196V10.8056C66.3313 12.4762 65.6752 14.0416 64.4839 15.2133C63.293 16.3844 61.7213 17.0142 60.0437 16.9863C56.6936 16.9305 53.9681 14.1041 53.9681 10.6859ZM58.8217 19.0758C59.209 19.1392 59.6045 19.1767 60.007 19.1833C60.0552 19.184 60.1033 19.1845 60.1513 19.1845C60.6 19.1845 61.043 19.1477 61.4779 19.0789V21.8408H58.8217V19.0758ZM56.3949 24.1113C56.3949 24.0709 56.4278 24.0381 56.4681 24.0381H63.8314C63.8717 24.0381 63.9047 24.0709 63.9047 24.1113V26.6943H56.3949V24.1113ZM53.9681 28.9648C53.9681 28.9244 54.001 28.8916 54.0413 28.8916H66.2581C66.2984 28.8916 66.3313 28.9244 66.3313 28.9648V31.5478H53.9681V28.9648ZM2.19727 60.5958V58.086C2.19727 58.0456 2.23022 58.0128 2.27051 58.0128H25.0765V60.669H3.52529H2.27051C2.23022 60.669 2.19727 60.636 2.19727 60.5958V60.5958ZM70.3761 67.9493H4.62393V62.8663H26.175C26.7819 62.8663 27.2736 62.3744 27.2736 61.7676V56.9142V50.7325H48.8249C49.4317 50.7325 49.9235 50.2406 49.9235 49.6339V44.7803V38.5986H70.3759V67.9493H70.3761ZM72.8027 36.3281C72.8027 36.3686 72.7698 36.4014 72.7295 36.4014H47.5699C47.5296 36.4014 47.4967 36.3686 47.4967 36.3281V33.8184C47.4967 33.778 47.5296 33.7452 47.5699 33.7452H72.7295C72.7698 33.7452 72.8027 33.778 72.8027 33.8184V36.3281Z" fill="#CE0000"/>
<path d="M63.6751 5.95209C63.6751 5.34535 63.1834 4.85345 62.5765 4.85345H57.723C57.1161 4.85345 56.6244 5.34535 56.6244 5.95209C56.6244 6.55883 57.1161 7.05072 57.723 7.05072H62.5765C63.1832 7.05072 63.6751 6.55883 63.6751 5.95209Z" fill="#CE0000"/>
<path d="M10.176 42.2723C10.6125 42.709 11.1932 42.9495 11.8109 42.9495C12.4285 42.9495 13.0091 42.709 13.4457 42.2723L34.9982 20.7198C35.0397 20.6785 35.1059 20.6719 35.1435 20.7057C35.8233 21.3188 36.7008 21.6382 37.6185 21.6092C39.497 21.5471 41.0253 19.9358 41.0253 18.0173V13.2325C41.0253 11.2885 39.4439 9.70709 37.5 9.70709H32.7151C30.7812 9.70709 29.1694 11.2485 29.1223 13.1432C29.0997 14.0486 29.4208 14.9171 30.0267 15.5889C30.0479 15.6123 30.0478 15.6992 30.0125 15.7343L8.45992 37.2867C7.55875 38.1882 7.55875 39.6549 8.46007 40.5564L10.176 42.2723ZM10.0137 38.8403L31.5662 17.2878C32.422 16.4319 32.4631 15.0095 31.6584 14.1173C31.4309 13.8651 31.3103 13.5385 31.319 13.1978C31.3367 12.4844 31.9629 11.9042 32.7151 11.9042H37.5C38.2323 11.9042 38.828 12.5 38.828 13.2324V18.0173C38.828 18.7636 38.2528 19.3897 37.5459 19.4131C37.1987 19.4247 36.8704 19.3042 36.6149 19.074C35.7073 18.2553 34.3144 18.2959 33.4443 19.1662L11.8919 40.7187C11.8471 40.7632 11.7744 40.7632 11.7297 40.7186L10.0137 39.0028C9.969 38.958 9.969 38.8852 10.0137 38.8403V38.8403Z" fill="#CE0000"/>
</svg>
