<svg width="16" height="16" viewBox="0 0 16 16" fill="none" xmlns="http://www.w3.org/2000/svg">
<path d="M13.4473 8.08588V8.45118C13.4473 8.64679 13.4366 8.84351 13.4154 9.03586L13.8811 9.09171C13.9043 8.88087 13.9161 8.66537 13.9161 8.45118V8.08588H13.4473V8.08588Z" fill="#A61827"/>
<path d="M13.3609 9.40657C13.0746 10.9623 12.0625 12.3 10.6536 12.9849L10.8516 13.4282C11.6051 13.0619 12.2732 12.5154 12.7837 11.8476C13.3052 11.1656 13.664 10.3534 13.8212 9.49877L13.3609 9.40657Z" fill="#A61827"/>
<path d="M9.55347 14.7786H8.85878V15.2676H9.55347V14.7786Z" fill="#A61827"/>
<path d="M8.55066 14.7786H5.15533V15.2676H8.55066V14.7786Z" fill="#A61827"/>
<path d="M0 7.31726V8.50631C0 11.2657 1.70341 13.6408 4.2573 14.4726V16H10.4517V14.4726C13.0056 13.6408 14.709 11.2657 14.709 8.50631V7.31726H0ZM14.2403 8.50635C14.2403 11.1055 12.598 13.3352 10.1537 14.0549L9.98294 14.1052V15.511H4.72605V14.5348H8.71272V14.0457H4.5252C3.04795 13.602 1.86648 12.6057 1.16785 11.3102H3.63008V10.8212H0.933379C0.632534 10.1102 0.468752 9.32671 0.468752 8.50631V7.80632H10.6639V8.9038H11.1327V7.80632H14.2403V8.50635Z" fill="#A61827"/>
<path d="M7.35452 8.63988L5.37314 10.707L7.35452 12.774L9.3359 10.707L7.35452 8.63988ZM6.03605 10.707L7.35452 9.33146L8.673 10.707L7.35452 12.0825L6.03605 10.707Z" fill="#A61827"/>
<path d="M15.9181 2.21894C15.8612 2.15592 15.7811 2.1198 15.6982 2.1198H14.7108C12.7598 2.1198 10.8798 2.86139 9.41704 4.20798C9.37654 4.24527 9.32451 4.26575 9.27051 4.26575H5.70531C5.61093 4.26575 5.52462 4.3155 5.47437 4.39886C5.42415 4.48219 5.41856 4.58492 5.45946 4.67366L5.61668 5.01481C6.13197 6.13279 7.23322 6.85515 8.42226 6.85515C9.54035 6.85515 10.5694 6.17263 11.0438 5.11636C11.1948 4.78004 11.4453 4.49892 11.749 4.32479C12.337 3.98782 13.0023 3.80968 13.673 3.80968H14.6166C15.3474 3.80968 15.9548 3.21408 15.9994 2.45364C16.0045 2.36744 15.9748 2.28189 15.9181 2.21894ZM14.6167 3.32065H13.6731C12.9236 3.32065 12.1802 3.51965 11.5234 3.89617C11.1276 4.12305 10.815 4.47323 10.6194 4.90888C10.2218 5.79412 9.35938 6.36612 8.42229 6.36612C7.41228 6.36612 6.47684 5.75252 6.03912 4.8029L6.01697 4.75477H9.27045C9.43876 4.75477 9.60095 4.69081 9.7271 4.57468C11.1042 3.30696 12.8741 2.60882 14.7108 2.60882H15.5032C15.3992 3.02003 15.0391 3.32065 14.6167 3.32065Z" fill="#A61827"/>
<path d="M9.82241 4.74507C9.78072 4.83782 9.73069 4.92686 9.67366 5.00977L10.0545 5.2949C10.1283 5.18764 10.193 5.07249 10.2468 4.95258L9.82241 4.74507Z" fill="#A61827"/>
<path d="M9.54659 5.17186C9.24549 5.50997 8.81911 5.70389 8.3768 5.70389V6.19292C8.94902 6.19292 9.50055 5.94208 9.89002 5.50469L9.54659 5.17186Z" fill="#A61827"/>
<path d="M8.85085 1.27212C8.85085 1.03553 8.92703 0.929446 9.03244 0.782672C9.15503 0.611936 9.30763 0.39947 9.30763 0H8.83888C8.83888 0.236592 8.76269 0.342678 8.65728 0.489451C8.53469 0.660187 8.3821 0.872653 8.3821 1.27212C8.3821 1.67163 8.53469 1.88409 8.65728 2.05486C8.76269 2.2017 8.83888 2.30779 8.83888 2.54441C8.83888 2.78107 8.76269 2.88715 8.65728 3.03399C8.53466 3.20476 8.3821 3.41726 8.3821 3.81673H8.85085C8.85085 3.58007 8.92703 3.47399 9.03244 3.32715C9.15503 3.15641 9.30763 2.94391 9.30763 2.54441C9.30763 2.14494 9.15503 1.93244 9.03244 1.76171C8.92703 1.61487 8.85085 1.50878 8.85085 1.27212Z" fill="#A61827"/>
<path d="M7.6414 0.000137329H7.17265C7.17265 0.236729 7.09646 0.342783 6.99106 0.489589C6.86843 0.660292 6.71584 0.87279 6.71584 1.27226C6.71584 1.48747 6.75855 1.6672 6.8503 1.838L7.25924 1.59896C7.22449 1.53428 7.18459 1.43866 7.18459 1.27226C7.18459 1.03567 7.26077 0.929616 7.36618 0.78281C7.48881 0.612106 7.6414 0.399608 7.6414 0.000137329Z" fill="#A61827"/>
<path d="M7.50706 1.97887L7.09806 2.21784C7.13277 2.28249 7.17265 2.37808 7.17265 2.54444C7.17265 2.7811 7.09646 2.88719 6.99102 3.03399C6.86843 3.20476 6.71584 3.41726 6.71584 3.81676H7.18459C7.18459 3.58011 7.26078 3.47402 7.36621 3.32718C7.48881 3.15648 7.6414 2.94395 7.6414 2.54444C7.6414 2.3293 7.59871 2.1496 7.50706 1.97887Z" fill="#A61827"/>
</svg>
