<svg width="50" height="50" viewBox="0 0 50 50" fill="none" xmlns="http://www.w3.org/2000/svg">
<g clip-path="url(#clip0)">
<path d="M22.0703 29.3945H23.5352V26.4648H17.6758V22.0703C17.6758 21.2627 17.0186 20.6055 16.2109 20.6055C15.4033 20.6055 14.7461 21.2627 14.7461 22.0703V26.4648H4.21289C1.44854 31.1808 3.69492 37.4525 9.11621 39.1895C7.82988 44.8697 12.1355 50 17.6758 50C19.9248 50 21.9795 49.1504 23.5352 47.7549V38.1836H22.0703C19.6475 38.1836 17.6758 36.2119 17.6758 33.7891C17.6758 31.3662 19.6475 29.3945 22.0703 29.3945ZM45.7871 26.4648H38.1836V27.9297C38.1836 30.3525 36.2119 32.3242 33.7891 32.3242C31.3662 32.3242 29.3945 30.3525 29.3945 27.9297V26.4648H26.4648V32.3242H22.0703C21.2627 32.3242 20.6055 32.9814 20.6055 33.7891C20.6055 34.5967 21.2627 35.2539 22.0703 35.2539H26.4648V47.7549C28.0205 49.1504 30.0752 50 32.3242 50C37.86 50 42.1714 44.8747 40.8838 39.1895C46.3014 37.4537 48.5536 31.1844 45.7871 26.4648V26.4648ZM40.8838 10.8105C42.1701 5.13057 37.8647 0 32.3242 0C30.0752 0 28.0205 0.849609 26.4648 2.24512V11.8164H27.9297C30.3525 11.8164 32.3242 13.7881 32.3242 16.2109C32.3242 18.6338 30.3525 20.6055 27.9297 20.6055H26.4648V23.5352H32.3242V27.9297C32.3242 28.7373 32.9814 29.3945 33.7891 29.3945C34.5967 29.3945 35.2539 28.7373 35.2539 27.9297V23.5352H45.7871C48.5515 18.8192 46.3051 12.5475 40.8838 10.8105ZM27.9297 14.7461H23.5352V2.24512C21.9795 0.849609 19.9248 0 17.6758 0C12.14 0 7.82871 5.125 9.11621 10.8105C3.69863 12.5463 1.44639 18.8156 4.21289 23.5352H11.8164V22.0703C11.8164 19.6475 13.7881 17.6758 16.2109 17.6758C18.6338 17.6758 20.6055 19.6475 20.6055 22.0703V23.5352H23.5352V17.6758H27.9297C28.7373 17.6758 29.3945 17.0186 29.3945 16.2109C29.3945 15.4033 28.7373 14.7461 27.9297 14.7461V14.7461Z" fill="#FF9838"/>
</g>
<defs>
<clipPath id="clip0">
<rect width="50" height="50" fill="white"/>
</clipPath>
</defs>
</svg>
