<svg width="50" height="50" viewBox="0 0 50 50" fill="none" xmlns="http://www.w3.org/2000/svg">
<path d="M12.1299 19.1406C11.3584 22.6025 11.9512 26.4551 14.2656 29.6758C16.4239 32.6797 17.6035 36.1387 17.6758 39.6787L17.7051 41.1133H32.2901L32.3242 39.6826C32.4043 36.2803 33.625 32.8086 35.9522 29.3633C38.044 26.2686 38.6319 22.5586 37.8545 19.1406H12.1299ZM26.4649 28.5361V33.7891H23.5352V28.5361L19.5694 24.5713L21.6416 22.499L25 25.8584L28.3584 22.499L30.4307 24.5713L26.4649 28.5361Z" fill="#FF9838"/>
<path d="M20.6055 44.043H29.3945V46.9727H20.6055V44.043Z" fill="#FF9838"/>
<path d="M0 3.02734V5.95703H11.8164V16.2109H38.1836V5.95703H47.0703V20.6055H50V3.02734H0Z" fill="#FF9838"/>
</svg>
