<svg width="183" height="146" viewBox="0 0 183 146" fill="none" xmlns="http://www.w3.org/2000/svg">
<path d="M135.621 21.7669V22.7503C135.621 23.2768 135.59 23.8064 135.531 24.3242L136.841 24.4745C136.906 23.907 136.939 23.3269 136.939 22.7503V21.7669H135.621V21.7669Z" fill="#E2FDDB"/>
<path d="M135.378 25.3222C134.572 29.5102 131.726 33.1113 127.763 34.955L128.32 36.1482C130.439 35.1622 132.318 33.6909 133.754 31.8934C135.221 30.0573 136.23 27.8709 136.672 25.5704L135.378 25.3222Z" fill="#E2FDDB"/>
<path d="M124.669 39.7835H122.715V41.0999H124.669V39.7835Z" fill="#E2FDDB"/>
<path d="M121.849 39.7835H112.299V41.0999H121.849V39.7835Z" fill="#E2FDDB"/>
<path d="M97.8 19.6978V22.8987C97.8 30.3268 102.591 36.7205 109.774 38.9597V43.0714H127.195V38.9597C134.378 36.7205 139.169 30.3268 139.169 22.8987V19.6978H97.8ZM137.851 22.8988C137.851 29.8955 133.232 35.8979 126.357 37.8353L125.877 37.9706V41.755H111.092V39.127H122.305V37.8106H110.527C106.372 36.6162 103.049 33.9341 101.085 30.4467H108.01V29.1303H100.425C99.579 27.2163 99.1184 25.1071 99.1184 22.8987V21.0143H127.792V23.9687H129.111V21.0143H137.851V22.8988Z" fill="#E2FDDB"/>
<path d="M118.485 23.2582L112.912 28.8228L118.485 34.3873L124.057 28.8228L118.485 23.2582ZM114.776 28.8228L118.485 25.12L122.193 28.8228L118.485 32.5256L114.776 28.8228Z" fill="#E2FDDB"/>
<path d="M142.57 5.97332C142.41 5.80368 142.184 5.70644 141.951 5.70644H139.174C133.687 5.70644 128.4 7.70278 124.285 11.3277C124.172 11.4281 124.025 11.4833 123.873 11.4833H113.846C113.581 11.4833 113.338 11.6172 113.197 11.8416C113.055 12.0659 113.04 12.3425 113.155 12.5813L113.597 13.4997C115.046 16.5093 118.143 18.4538 121.488 18.4538C124.632 18.4538 127.526 16.6165 128.861 13.7731C129.285 12.8677 129.99 12.1109 130.844 11.6422C132.498 10.7351 134.369 10.2555 136.255 10.2555H138.909C140.965 10.2555 142.673 8.6522 142.798 6.60513C142.813 6.37308 142.729 6.14279 142.57 5.97332ZM138.909 8.9391H136.255C134.148 8.9391 132.057 9.4748 130.209 10.4884C129.096 11.0991 128.217 12.0418 127.667 13.2146C126.549 15.5976 124.123 17.1374 121.488 17.1374C118.647 17.1374 116.016 15.4856 114.785 12.9292L114.723 12.7997H123.873C124.347 12.7997 124.803 12.6275 125.157 12.3149C129.031 8.90224 134.008 7.02288 139.174 7.02288H141.403C141.11 8.12983 140.097 8.9391 138.909 8.9391Z" fill="#E2FDDB"/>
<path d="M125.426 12.7735C125.308 13.0232 125.168 13.2629 125.007 13.4861L126.078 14.2537C126.286 13.9649 126.468 13.6549 126.619 13.3322L125.426 12.7735Z" fill="#E2FDDB"/>
<path d="M124.65 13.9225C123.803 14.8326 122.604 15.3547 121.36 15.3547V16.6711C122.969 16.6711 124.52 15.9959 125.616 14.8184L124.65 13.9225Z" fill="#E2FDDB"/>
<path d="M122.693 3.42451C122.693 2.78762 122.907 2.50203 123.204 2.10693C123.549 1.64731 123.978 1.07536 123.978 0H122.659C122.659 0.636896 122.445 0.922477 122.149 1.31759C121.804 1.7772 121.375 2.34915 121.375 3.42451C121.375 4.49996 121.804 5.07191 122.149 5.53161C122.445 5.9269 122.659 6.21248 122.659 6.84946C122.659 7.48653 122.445 7.77211 122.149 8.1674C121.804 8.6271 121.375 9.19914 121.375 10.2745H122.693C122.693 9.63743 122.907 9.35185 123.204 8.95656C123.549 8.49695 123.978 7.92491 123.978 6.84946C123.978 5.7741 123.549 5.20206 123.204 4.74245C122.907 4.34716 122.693 4.06158 122.693 3.42451Z" fill="#E2FDDB"/>
<path d="M119.291 0.000137329H117.973C117.973 0.637033 117.759 0.922526 117.462 1.31772C117.117 1.77725 116.688 2.34929 116.688 3.42465C116.688 4.00397 116.808 4.48781 117.066 4.9476L118.217 4.30412C118.119 4.13 118.007 3.87259 118.007 3.42465C118.007 2.78775 118.221 2.50226 118.517 2.10706C118.862 1.64754 119.291 1.0755 119.291 0.000137329Z" fill="#E2FDDB"/>
<path d="M118.914 5.32703L117.763 5.97034C117.861 6.14437 117.973 6.40169 117.973 6.84955C117.973 7.48662 117.759 7.7722 117.462 8.16739C117.117 8.6271 116.688 9.19913 116.688 10.2746H118.007C118.007 9.63751 118.221 9.35193 118.517 8.95665C118.862 8.49712 119.291 7.92499 119.291 6.84955C119.291 6.2704 119.171 5.78665 118.914 5.32703Z" fill="#E2FDDB"/>
<path d="M22.836 33.6H35.904V32.304L32.16 31.836V11.928H33.024C35.868 11.928 37.776 12.036 38.748 12.252L39.216 16.608H40.836V10.02H17.94V16.608H19.524L19.992 12.252C21.072 12 22.944 11.892 25.644 11.892H26.544V31.836L22.8 32.304L22.836 33.6ZM49.4046 15.78V8.616H42.6366V9.768L44.3286 10.2V32.016L42.7086 32.448V33.6H50.9166V32.448L49.4046 32.016V19.668C50.3046 19.272 51.2046 19.056 52.1046 19.056C52.8606 19.056 53.4366 19.344 53.8686 19.884C54.3006 20.424 54.5166 21.18 54.5166 22.152V31.98L53.0406 32.412V33.564H61.2486V32.412L59.5926 31.98V21.468C59.5926 18.228 58.0806 16.608 55.0206 16.608C53.6886 16.608 52.2126 17.04 50.5566 17.868L49.3326 18.48C49.4046 17.436 49.4406 16.536 49.4406 15.78H49.4046ZM70.7765 16.68C68.2925 16.68 66.4205 17.4 65.1965 18.804C63.9725 20.208 63.3605 22.368 63.3605 25.248C63.3605 28.236 64.0085 30.432 65.3045 31.836C66.6005 33.24 68.6165 33.96 71.3165 33.96C72.2885 33.96 73.2965 33.852 74.3405 33.6C75.3845 33.348 76.2125 33.024 76.8605 32.628V31.296C75.2765 31.62 73.9805 31.8 72.9365 31.8C71.8205 31.8 70.9565 31.62 70.3445 31.224C69.7325 30.828 69.2645 30.252 68.9765 29.496C68.6885 28.74 68.5445 27.48 68.5445 25.716V25.428H77.2205V23.988C77.2205 21.468 76.7165 19.632 75.7085 18.444C74.7005 17.256 73.0805 16.68 70.8485 16.68H70.7765ZM70.6685 18.444C71.1365 18.444 71.4965 18.588 71.7485 18.876C72.0005 19.164 72.1805 19.632 72.2885 20.28C72.3965 20.928 72.4325 22.044 72.4325 23.592H68.6165C68.6165 21.684 68.7965 20.352 69.1565 19.596C69.5165 18.84 70.0205 18.444 70.7045 18.444H70.6685Z" fill="#E2FDDB"/>
<path d="M34.589 53.787C34.589 55.55 34.261 56.821 33.564 57.559C32.867 58.297 31.801 58.666 30.366 58.666H27.414V49.318H30.202C31.719 49.318 32.826 49.687 33.523 50.384C34.22 51.081 34.548 52.229 34.548 53.787H34.589ZM36.557 66.169C36.557 68.096 36.188 69.531 35.45 70.474C34.712 71.417 33.564 71.909 32.006 71.909C30.899 71.909 29.382 71.868 27.455 71.786V60.921H30.899C32.908 60.921 34.343 61.372 35.245 62.233C36.147 63.094 36.598 64.406 36.598 66.169H36.557ZM17.697 74H22.945L32.047 74.123C35.655 74.123 38.402 73.467 40.329 72.114C42.256 70.761 43.199 68.793 43.199 66.21C43.199 64.324 42.543 62.848 41.272 61.741C40.001 60.634 38.115 59.978 35.614 59.732C37.295 59.363 38.648 58.625 39.632 57.477C40.616 56.329 41.108 54.935 41.108 53.336C41.108 51.204 40.247 49.646 38.525 48.703C36.803 47.76 34.179 47.268 30.612 47.268H17.615V48.744L21.059 49.277V72.114L17.615 72.647L17.697 74ZM55.4176 54.689C49.2266 54.689 46.6846 58.133 46.6846 64.488C46.6846 70.761 49.1856 74.41 55.2536 74.41C61.5266 74.41 64.0686 70.925 64.0686 64.488C64.0686 58.256 61.5676 54.689 55.4176 54.689ZM58.2056 64.488C58.2056 68.465 58.2056 72.401 55.2946 72.401C52.6296 72.401 52.5476 68.588 52.5476 64.488C52.5476 60.429 52.5886 56.698 55.2946 56.698C58.2056 56.698 58.2056 60.511 58.2056 64.488ZM75.1796 53.705V45.546H67.4716V46.858L69.3986 47.35V72.196L67.5536 72.688V74H76.9016V72.688L75.1796 72.196V58.133C76.2046 57.682 77.2296 57.436 78.2546 57.436C79.1156 57.436 79.7716 57.764 80.2636 58.379C80.7556 58.994 81.0016 59.855 81.0016 60.962V72.155L79.3206 72.647V73.959H88.6686V72.647L86.7826 72.155V60.183C86.7826 56.493 85.0606 54.648 81.5756 54.648C80.0586 54.648 78.3776 55.14 76.4916 56.083L75.0976 56.78C75.1796 55.591 75.2206 54.566 75.2206 53.705H75.1796ZM99.2739 59.076L99.0689 55.181H91.1559V56.493L93.5749 56.985V72.196L91.1559 72.688V74H102.39V72.688L99.3969 72.196V60.757C100.176 60.265 101.119 59.855 102.185 59.486C103.251 59.117 104.194 58.953 105.055 58.953L106.244 61.495H107.351V54.607H106.285C105.342 54.607 104.276 54.976 103.128 55.673C101.98 56.37 100.668 57.518 99.2329 59.117L99.2739 59.076ZM119.994 54.771C119.01 54.771 118.026 54.812 117.083 54.894C116.14 54.976 114.664 55.181 112.655 55.468V60.019H114.008L114.746 57.682C116.14 56.985 117.411 56.616 118.518 56.616C120.363 56.616 121.306 57.764 121.306 60.019V62.766L118.846 62.848C116.509 62.889 114.787 63.094 113.721 63.504C112.655 63.914 111.835 64.529 111.261 65.39C110.687 66.251 110.4 67.399 110.4 68.834C110.4 72.565 112.327 74.451 116.222 74.451C117.083 74.451 117.944 74.328 118.764 74.082C119.584 73.836 120.527 73.344 121.552 72.647L122.003 74.082H128.932V72.77L127.046 72.278V60.06C127.046 56.575 124.709 54.853 119.994 54.853V54.771ZM121.265 64.652V71.376C120.199 71.827 119.215 72.073 118.313 72.073C117.657 72.073 117.124 71.827 116.714 71.294C116.304 70.761 116.099 69.941 116.099 68.793C116.099 67.399 116.345 66.374 116.837 65.759C117.329 65.144 118.231 64.816 119.502 64.775L121.265 64.652ZM147.546 72.852V71.335C146.234 71.704 144.676 71.909 142.831 71.909C140.986 71.909 139.633 71.335 138.813 70.187C137.993 69.039 137.583 67.112 137.583 64.447C137.583 62.848 137.747 61.495 138.116 60.347C138.485 59.199 138.977 58.338 139.633 57.723C140.289 57.108 140.986 56.78 141.765 56.78C142.462 56.78 143.036 56.862 143.487 56.985C143.938 57.108 144.389 57.354 144.84 57.682L145.701 61.003H147.136V55.427C144.922 54.976 142.872 54.73 141.027 54.73C139.182 54.73 137.542 55.14 136.148 55.919C134.754 56.698 133.688 57.846 132.95 59.322C132.212 60.798 131.843 62.561 131.843 64.652C131.843 67.973 132.663 70.433 134.303 72.032C135.943 73.631 138.444 74.451 141.806 74.451C142.913 74.451 144.02 74.328 145.086 74.082C146.152 73.836 146.972 73.467 147.587 72.975L147.546 72.852ZM158.097 53.705V45.546H150.389V46.858L152.316 47.35V72.196L150.471 72.688V74H159.819V72.688L158.097 72.196V58.133C159.122 57.682 160.147 57.436 161.172 57.436C162.033 57.436 162.689 57.764 163.181 58.379C163.673 58.994 163.919 59.855 163.919 60.962V72.155L162.238 72.647V73.959H171.586V72.647L169.7 72.155V60.183C169.7 56.493 167.978 54.648 164.493 54.648C162.976 54.648 161.295 55.14 159.409 56.083L158.015 56.78C158.097 55.591 158.138 54.566 158.138 53.705H158.097Z" fill="#E2FDDB"/>
<path d="M23.7968 98.856C24.5008 100.019 25.3861 101.299 26.4528 102.696L26.4368 102.856C26.0528 103.005 25.6581 103.101 25.2528 103.144L25.0768 103.032C24.2021 101.72 23.4181 100.44 22.7248 99.192H20.8528V99.8L20.9168 103H19.6208L19.7008 99.912L19.6208 92.744L22.7568 92.728C23.7595 92.728 24.5328 92.984 25.0768 93.496C25.6315 93.9973 25.9088 94.7173 25.9088 95.656C25.9088 96.36 25.7221 96.9947 25.3488 97.56C24.9861 98.1147 24.4688 98.5467 23.7968 98.856ZM20.8688 98.104L22.7888 98.152C23.9835 97.8107 24.5808 97.016 24.5808 95.768C24.5808 95.1173 24.4048 94.632 24.0528 94.312C23.7008 93.9813 23.1728 93.8053 22.4688 93.784L20.9168 93.832L20.8688 98.104ZM33.3118 101.976L33.4078 102.072L33.2958 103H28.4478L28.4958 100.6L28.4478 95.032H33.3278L33.4078 95.128L33.3118 96.056L31.2958 95.992L29.6318 96.008L29.6158 98.424L31.1998 98.44L32.5918 98.392L32.6718 98.504L32.5758 99.448L31.1038 99.4L29.6158 99.416L29.5998 100.504L29.6158 102.024L31.1838 102.04L33.3118 101.976ZM37.7529 94.952C38.4036 94.952 39.0543 95.08 39.7049 95.336L39.4969 96.52L39.3049 96.568C39.0063 96.3333 38.7236 96.1627 38.4569 96.056C38.1903 95.9387 37.9129 95.88 37.6249 95.88C37.1663 95.88 36.8036 96.0027 36.5369 96.248C36.2703 96.4827 36.1369 96.7547 36.1369 97.064C36.1369 97.3733 36.2649 97.624 36.5209 97.816C36.7876 98.008 37.1929 98.2213 37.7369 98.456C38.2169 98.6693 38.5956 98.8613 38.8729 99.032C39.1609 99.2027 39.4063 99.432 39.6089 99.72C39.8223 99.9973 39.9289 100.339 39.9289 100.744C39.9289 101.16 39.8169 101.549 39.5929 101.912C39.3689 102.264 39.0383 102.552 38.6009 102.776C38.1743 102.989 37.6623 103.096 37.0649 103.096C36.6916 103.096 36.2969 103.053 35.8809 102.968C35.4756 102.872 35.0969 102.733 34.7449 102.552L34.8889 101.288L35.0489 101.224C35.3476 101.523 35.6943 101.757 36.0889 101.928C36.4943 102.088 36.8676 102.168 37.2089 102.168C37.6569 102.168 38.0249 102.051 38.3129 101.816C38.6009 101.571 38.7449 101.277 38.7449 100.936C38.7449 100.616 38.6116 100.36 38.3449 100.168C38.0889 99.976 37.6836 99.752 37.1289 99.496C36.6703 99.2933 36.2916 99.1067 35.9929 98.936C35.7049 98.7653 35.4596 98.5413 35.2569 98.264C35.0543 97.976 34.9529 97.6293 34.9529 97.224C34.9529 96.7973 35.0649 96.4133 35.2889 96.072C35.5236 95.7307 35.8489 95.4587 36.2649 95.256C36.6916 95.0533 37.1876 94.952 37.7529 94.952ZM46.9878 95.128L46.9078 96.136L45.4198 96.024H44.6198L44.5718 100.504L44.6198 103H43.4198L43.4678 100.6L43.4358 96.024H42.6358L41.1158 96.136L41.0198 96.024L41.1158 95.032H46.9238L46.9878 95.128ZM54.2652 103H53.0652L52.8732 102.136L52.4572 100.952L50.5532 100.936L48.8572 100.952L48.4252 102.072L48.2012 103H47.0172L50.0892 95.032H51.4652L54.2652 103ZM52.1212 99.976L50.7932 96.2H50.6972L49.2412 99.976L50.6492 99.992L52.1212 99.976ZM62.1071 99.08V100.232C62.1177 101.139 61.8404 101.843 61.2751 102.344C60.7204 102.845 59.9204 103.096 58.8751 103.096C57.8404 103.096 57.0511 102.851 56.5071 102.36C55.9631 101.859 55.7017 101.149 55.7231 100.232L55.7391 99.016L55.7231 95.032H56.9231L56.8591 100.04C56.8484 100.712 57.0137 101.219 57.3551 101.56C57.7071 101.901 58.2297 102.072 58.9231 102.072C59.6057 102.072 60.1231 101.901 60.4751 101.56C60.8271 101.219 60.9977 100.712 60.9871 100.04L60.9391 95.032H62.1551L62.1071 99.08ZM68.4243 99.784C69.075 100.776 69.795 101.752 70.5843 102.712L70.5683 102.872C70.1203 103.011 69.7523 103.091 69.4643 103.112L69.2563 102.984C68.4456 101.757 67.8323 100.792 67.4163 100.088L65.9123 100.104V100.504L65.9443 103H64.7603L64.8083 100.6L64.7603 95.032L67.4803 95.016C68.323 95.016 68.9683 95.2133 69.4163 95.608C69.875 96.0027 70.1043 96.5733 70.1043 97.32C70.1043 97.864 69.955 98.3493 69.6563 98.776C69.3683 99.2027 68.9576 99.5387 68.4243 99.784ZM65.9283 99.112L67.4323 99.16C68.3816 98.8933 68.8563 98.312 68.8563 97.416C68.8563 96.9467 68.7176 96.5947 68.4403 96.36C68.163 96.1253 67.7416 95.9973 67.1763 95.976L65.9443 95.992L65.9283 99.112ZM78.9058 103H77.7058L77.5138 102.136L77.0978 100.952L75.1938 100.936L73.4978 100.952L73.0658 102.072L72.8418 103H71.6578L74.7298 95.032H76.1058L78.9058 103ZM76.7618 99.976L75.4338 96.2H75.3378L73.8818 99.976L75.2898 99.992L76.7618 99.976ZM87.4933 100.616L87.5093 103H86.2293L82.0373 96.92H81.9573L81.9413 100.344L81.9733 103H80.8853L80.9333 100.648L80.9013 95.032H82.1653L86.3573 101.112H86.4693L86.4373 95.08L87.5413 95L87.4933 100.616ZM95.2378 95.128L95.1578 96.136L93.6698 96.024H92.8698L92.8218 100.504L92.8698 103H91.6698L91.7178 100.6L91.6858 96.024H90.8858L89.3658 96.136L89.2698 96.024L89.3658 95.032H95.1738L95.2378 95.128ZM102.959 94.936C104.121 94.936 105.012 95.2773 105.631 95.96C106.26 96.6427 106.575 97.608 106.575 98.856C106.575 100.211 106.239 101.261 105.567 102.008C104.905 102.744 103.956 103.112 102.719 103.112C101.567 103.112 100.676 102.765 100.047 102.072C99.4175 101.368 99.1028 100.371 99.1028 99.08C99.1028 97.7573 99.4388 96.7387 100.111 96.024C100.783 95.2987 101.732 94.936 102.959 94.936ZM102.847 95.944C102.004 95.944 101.375 96.184 100.959 96.664C100.553 97.144 100.351 97.9013 100.351 98.936C100.351 100.045 100.553 100.851 100.959 101.352C101.364 101.853 101.983 102.104 102.815 102.104C103.668 102.104 104.303 101.859 104.719 101.368C105.135 100.877 105.343 100.109 105.343 99.064C105.343 97.9867 105.135 97.1973 104.719 96.696C104.313 96.1947 103.689 95.944 102.847 95.944ZM109.833 96.008L109.817 98.632L111.193 98.648L112.601 98.6L112.681 98.712L112.601 99.624L111.081 99.608L109.801 99.624V100.504L109.833 103H108.649L108.681 100.6L108.649 95.032H113.289L113.353 95.128L113.257 96.056L111.289 95.992L109.833 96.008ZM125.477 99.992L125.509 103H124.165L118.853 94.792H118.773L118.757 99.624L118.773 103H117.621L117.669 99.96L117.637 92.744H118.965L124.261 100.952H124.373L124.357 92.808L125.557 92.712L125.477 99.992ZM134.687 103H133.487L133.295 102.136L132.879 100.952L130.975 100.936L129.279 100.952L128.847 102.072L128.623 103H127.439L130.511 95.032H131.887L134.687 103ZM132.543 99.976L131.215 96.2H131.119L129.663 99.976L131.071 99.992L132.543 99.976ZM140.832 95.128L140.752 96.136L139.264 96.024H138.464L138.416 100.504L138.464 103H137.264L137.312 100.6L137.28 96.024H136.48L134.96 96.136L134.864 96.024L134.96 95.032H140.768L140.832 95.128ZM143.928 100.504L143.96 103H142.776L142.824 100.6L142.776 95.032H143.976L143.928 100.504ZM149.787 94.936C150.95 94.936 151.84 95.2773 152.459 95.96C153.088 96.6427 153.403 97.608 153.403 98.856C153.403 100.211 153.067 101.261 152.395 102.008C151.734 102.744 150.784 103.112 149.547 103.112C148.395 103.112 147.504 102.765 146.875 102.072C146.246 101.368 145.931 100.371 145.931 99.08C145.931 97.7573 146.267 96.7387 146.939 96.024C147.611 95.2987 148.56 94.936 149.787 94.936ZM149.675 95.944C148.832 95.944 148.203 96.184 147.787 96.664C147.382 97.144 147.179 97.9013 147.179 98.936C147.179 100.045 147.382 100.851 147.787 101.352C148.192 101.853 148.811 102.104 149.643 102.104C150.496 102.104 151.131 101.859 151.547 101.368C151.963 100.877 152.171 100.109 152.171 99.064C152.171 97.9867 151.963 97.1973 151.547 96.696C151.142 96.1947 150.518 95.944 149.675 95.944ZM162.165 100.616L162.181 103H160.901L156.709 96.92H156.629L156.613 100.344L156.645 103H155.557L155.605 100.648L155.573 95.032H156.837L161.029 101.112H161.141L161.109 95.08L162.213 95L162.165 100.616ZM171.296 103H170.096L169.904 102.136L169.488 100.952L167.584 100.936L165.888 100.952L165.456 102.072L165.232 103H164.048L167.12 95.032H168.496L171.296 103ZM169.152 99.976L167.824 96.2H167.728L166.272 99.976L167.68 99.992L169.152 99.976ZM177.564 102.104L177.484 103H173.244L173.292 100.6L173.244 95.032H174.444L174.396 100.504L174.428 101.992H177.5L177.564 102.104ZM46.4097 115.96L46.3938 117.112C46.4151 118.371 46.0844 119.352 45.4018 120.056C44.7191 120.76 43.7484 121.112 42.4898 121.112C41.2844 121.112 40.3564 120.776 39.7057 120.104C39.0658 119.432 38.7564 118.483 38.7778 117.256L38.7938 115.864L38.7778 110.744H40.0418L39.9938 117.096C39.9831 118.056 40.1964 118.781 40.6338 119.272C41.0711 119.752 41.7218 119.992 42.5858 119.992C43.4498 119.992 44.1058 119.763 44.5538 119.304C45.0018 118.845 45.2204 118.163 45.2098 117.256L45.1458 110.744H46.4258L46.4097 115.96ZM51.6414 116.76C52.772 118.147 53.972 119.469 55.2414 120.728L55.2094 120.904C54.8787 121.011 54.4947 121.091 54.0574 121.144L53.8654 121.064C52.5 119.528 51.3214 118.12 50.3294 116.84V116.744L53.0814 113.736L53.6094 113.032L55.0334 113.016L51.6414 116.76ZM50.2014 118.504L50.2334 121H49.0494L49.0974 118.6L49.0494 113.032H50.2494L50.2014 118.504ZM60.5571 117.784C61.2078 118.776 61.9278 119.752 62.7171 120.712L62.7011 120.872C62.2531 121.011 61.8851 121.091 61.5971 121.112L61.3891 120.984C60.5785 119.757 59.9651 118.792 59.5491 118.088L58.0451 118.104V118.504L58.0771 121H56.8931L56.9411 118.6L56.8931 113.032L59.6131 113.016C60.4558 113.016 61.1011 113.213 61.5491 113.608C62.0078 114.003 62.2371 114.573 62.2371 115.32C62.2371 115.864 62.0878 116.349 61.7891 116.776C61.5011 117.203 61.0905 117.539 60.5571 117.784ZM58.0611 117.112L59.5651 117.16C60.5145 116.893 60.9891 116.312 60.9891 115.416C60.9891 114.947 60.8505 114.595 60.5731 114.36C60.2958 114.125 59.8745 113.997 59.3091 113.976L58.0771 113.992L58.0611 117.112ZM71.0386 121H69.8386L69.6466 120.136L69.2306 118.952L67.3266 118.936L65.6306 118.952L65.1986 120.072L64.9746 121H63.7906L66.8626 113.032H68.2386L71.0386 121ZM68.8946 117.976L67.5666 114.2H67.4706L66.0146 117.976L67.4226 117.992L68.8946 117.976ZM74.1701 118.504L74.2021 121H73.0181L73.0661 118.6L73.0181 113.032H74.2181L74.1701 118.504ZM83.7668 118.616L83.7828 121H82.5028L78.3108 114.92H78.2308L78.2148 118.344L78.2468 121H77.1588L77.2068 118.648L77.1748 113.032H78.4388L82.6308 119.112H82.7428L82.7108 113.08L83.8148 113L83.7668 118.616ZM87.842 118.504L87.874 121H86.69L86.738 118.6L86.69 113.032H87.89L87.842 118.504ZM97.0386 121H95.8386L95.6466 120.136L95.2306 118.952L93.3266 118.936L91.6306 118.952L91.1986 120.072L90.9746 121H89.7906L92.8626 113.032H94.2386L97.0386 121ZM94.8946 117.976L93.5666 114.2H93.4706L92.0146 117.976L93.4226 117.992L94.8946 117.976ZM105.626 118.616L105.642 121H104.362L100.17 114.92H100.09L100.074 118.344L100.106 121H99.0181L99.0661 118.648L99.0341 113.032H100.298L104.49 119.112H104.602L104.57 113.08L105.674 113L105.626 118.616ZM114.902 110.664C115.979 110.664 116.913 110.92 117.702 111.432L117.446 112.6L117.302 112.632C116.587 112.035 115.766 111.736 114.838 111.736C113.825 111.736 113.046 112.088 112.502 112.792C111.958 113.485 111.686 114.504 111.686 115.848C111.686 117.203 111.958 118.237 112.502 118.952C113.046 119.667 113.814 120.024 114.806 120.024C115.275 120.024 115.739 119.939 116.198 119.768C116.667 119.597 117.094 119.357 117.478 119.048L117.638 119.128L117.526 120.344C116.598 120.856 115.654 121.112 114.694 121.112C113.318 121.112 112.251 120.669 111.494 119.784C110.737 118.888 110.358 117.613 110.358 115.96C110.358 114.264 110.753 112.957 111.542 112.04C112.331 111.123 113.451 110.664 114.902 110.664ZM125.631 117.08V118.232C125.641 119.139 125.364 119.843 124.799 120.344C124.244 120.845 123.444 121.096 122.399 121.096C121.364 121.096 120.575 120.851 120.031 120.36C119.487 119.859 119.225 119.149 119.247 118.232L119.263 117.016L119.247 113.032H120.447L120.383 118.04C120.372 118.712 120.537 119.219 120.879 119.56C121.231 119.901 121.753 120.072 122.447 120.072C123.129 120.072 123.647 119.901 123.999 119.56C124.351 119.219 124.521 118.712 124.511 118.04L124.463 113.032H125.679L125.631 117.08ZM129.436 118.504L129.468 121H128.284L128.332 118.6L128.284 113.032H129.484L129.436 118.504ZM134.776 112.952C135.427 112.952 136.078 113.08 136.728 113.336L136.52 114.52L136.328 114.568C136.03 114.333 135.747 114.163 135.48 114.056C135.214 113.939 134.936 113.88 134.648 113.88C134.19 113.88 133.827 114.003 133.56 114.248C133.294 114.483 133.16 114.755 133.16 115.064C133.16 115.373 133.288 115.624 133.544 115.816C133.811 116.008 134.216 116.221 134.76 116.456C135.24 116.669 135.619 116.861 135.896 117.032C136.184 117.203 136.43 117.432 136.632 117.72C136.846 117.997 136.952 118.339 136.952 118.744C136.952 119.16 136.84 119.549 136.616 119.912C136.392 120.264 136.062 120.552 135.624 120.776C135.198 120.989 134.686 121.096 134.088 121.096C133.715 121.096 133.32 121.053 132.904 120.968C132.499 120.872 132.12 120.733 131.768 120.552L131.912 119.288L132.072 119.224C132.371 119.523 132.718 119.757 133.112 119.928C133.518 120.088 133.891 120.168 134.232 120.168C134.68 120.168 135.048 120.051 135.336 119.816C135.624 119.571 135.768 119.277 135.768 118.936C135.768 118.616 135.635 118.36 135.368 118.168C135.112 117.976 134.707 117.752 134.152 117.496C133.694 117.293 133.315 117.107 133.016 116.936C132.728 116.765 132.483 116.541 132.28 116.264C132.078 115.976 131.976 115.629 131.976 115.224C131.976 114.797 132.088 114.413 132.312 114.072C132.547 113.731 132.872 113.459 133.288 113.256C133.715 113.053 134.211 112.952 134.776 112.952ZM140.373 118.504L140.405 121H139.221L139.269 118.6L139.221 113.032H140.421L140.373 118.504ZM149.97 118.616L149.986 121H148.706L144.514 114.92H144.434L144.418 118.344L144.45 121H143.362L143.41 118.648L143.378 113.032H144.642L148.834 119.112H148.946L148.914 113.08L150.018 113L149.97 118.616ZM157.757 119.976L157.853 120.072L157.741 121H152.893L152.941 118.6L152.893 113.032H157.773L157.853 113.128L157.757 114.056L155.741 113.992L154.077 114.008L154.061 116.424L155.645 116.44L157.037 116.392L157.117 116.504L157.021 117.448L155.549 117.4L154.061 117.416L154.045 118.504L154.061 120.024L155.629 120.04L157.757 119.976Z" fill="#E2FDDB"/>
<line x1="1.02186" y1="145" x2="1.02186" y2="97" stroke="#E2FDDB" stroke-width="2"/>
<line x1="2" y1="144.014" x2="50" y2="144.014" stroke="#E2FDDB" stroke-width="2"/>
</svg>
