<svg width="50" height="50" viewBox="0 0 50 50" fill="none" xmlns="http://www.w3.org/2000/svg">
<path d="M44.4427 20.0291L46.431 12.6118L39.0121 10.6247L38.2542 13.4544L40.8413 14.1472L32.9868 18.6821C31.3965 16.6698 29.0905 15.279 26.4381 14.8945V5.6076L28.3321 7.5016L30.4035 5.43022L24.9733 0L19.5431 5.43022L21.6145 7.5016L23.5085 5.6076V14.8941C20.8561 15.2786 18.5501 16.6698 16.9598 18.6817L9.1053 14.1472L11.6924 13.4544L10.9344 10.6247L3.51563 12.6118L5.50385 20.0291L8.33359 19.2707L7.64008 16.6843L15.4671 21.2032C14.9952 22.3804 14.7194 23.6568 14.7194 25C14.7194 26.3432 14.9952 27.6196 15.4671 28.7964L7.64008 33.3153L8.33359 30.7293L5.50423 29.9709L3.51562 37.3882L10.9344 39.3753L11.6924 36.5456L9.1053 35.8528L16.9598 31.3179C18.5501 33.3302 20.8561 34.721 23.5085 35.1055V44.392L21.6145 42.498L19.5431 44.5694L24.9733 50L30.4035 44.5698L28.3321 42.4984L26.4381 44.3924V35.1059C29.0909 34.7214 31.3969 33.3302 32.9868 31.3183L40.8417 35.8532L38.2542 36.5459L39.0125 39.3753L46.431 37.3882L44.4427 29.9713L41.613 30.7293L42.3065 33.3157L34.4795 28.7968C34.9514 27.6196 35.2272 26.3432 35.2272 25C35.2272 23.6568 34.9514 22.3804 34.4795 21.2036L42.3065 16.6847L41.613 19.2711L44.4427 20.0291ZM29.3678 26.4648H26.4381V29.3945H23.5085V26.4648H20.5788V23.5352H23.5085V20.6055H26.4381V23.5352H29.3678V26.4648Z" fill="#FF9838"/>
</svg>
