<svg width="300" height="300" viewBox="0 0 300 300" fill="none" xmlns="http://www.w3.org/2000/svg">
<g id="The Bohrach">
<rect id="Rectangle 1" width="300" height="300" opacity=".7" fill="#A61827"/>
<g id="Bohrach-svg">
<g id="Group">
<g id="Group_2">
<path id="Vector" d="M187.621 92.7669V93.7503C187.621 94.2768 187.59 94.8064 187.531 95.3242L188.841 95.4745C188.906 94.907 188.939 94.3269 188.939 93.7503V92.7669H187.621Z" fill="#E2FDDB"/>
</g>
</g>
<g id="Group_3">
<g id="Group_4">
<path id="Vector_2" d="M187.378 96.3222C186.572 100.51 183.726 104.111 179.763 105.955L180.32 107.148C182.439 106.162 184.318 104.691 185.754 102.893C187.221 101.057 188.23 98.8709 188.672 96.5704L187.378 96.3222Z" fill="#E2FDDB"/>
</g>
</g>
<g id="Group_5">
<g id="Group_6">
<path id="Vector_3" d="M176.669 110.783H174.715V112.1H176.669V110.783Z" fill="#E2FDDB"/>
</g>
</g>
<g id="Group_7">
<g id="Group_8">
<path id="Vector_4" d="M173.849 110.783H164.299V112.1H173.849V110.783Z" fill="#E2FDDB"/>
</g>
</g>
<g id="Bowl">
<g id="Group_9">
<path id="Vector_5" d="M149.8 90.6978V93.8987C149.8 101.327 154.591 107.72 161.774 109.96V114.071H179.195V109.96C186.378 107.72 191.169 101.327 191.169 93.8987V90.6978H149.8ZM189.851 93.8988C189.851 100.895 185.232 106.898 178.357 108.835L177.877 108.971V112.755H163.092V110.127H174.305V108.811H162.527C158.372 107.616 155.049 104.934 153.085 101.447H160.01V100.13H152.425C151.579 98.2163 151.118 96.1071 151.118 93.8987V92.0143H179.792V94.9687H181.111V92.0143H189.851V93.8988Z" fill="#E2FDDB"/>
</g>
</g>
<g id="B-sign">
<g id="Group_10">
<path id="Vector_6" d="M170.485 94.2582L164.912 99.8228L170.485 105.387L176.057 99.8228L170.485 94.2582ZM166.776 99.8228L170.485 96.12L174.193 99.8228L170.485 103.526L166.776 99.8228Z" fill="#E2FDDB"/>
</g>
</g>
<g id="Spoone">
<g id="Group_11">
<g id="Group_12">
<path id="Vector_7" d="M194.57 76.9733C194.41 76.8037 194.184 76.7064 193.951 76.7064H191.174C185.687 76.7064 180.4 78.7028 176.285 82.3277C176.172 82.4281 176.025 82.4833 175.873 82.4833H165.846C165.581 82.4833 165.338 82.6172 165.197 82.8416C165.055 83.0659 165.04 83.3425 165.155 83.5813L165.597 84.4997C167.046 87.5093 170.143 89.4538 173.488 89.4538C176.632 89.4538 179.526 87.6165 180.861 84.7731C181.285 83.8677 181.99 83.1109 182.844 82.6422C184.498 81.7351 186.369 81.2555 188.255 81.2555H190.909C192.965 81.2555 194.673 79.6522 194.798 77.6051C194.813 77.3731 194.729 77.1428 194.57 76.9733ZM190.909 79.9391H188.255C186.148 79.9391 184.057 80.4748 182.209 81.4884C181.096 82.0991 180.217 83.0418 179.667 84.2146C178.549 86.5976 176.123 88.1374 173.488 88.1374C170.647 88.1374 168.016 86.4856 166.785 83.9292L166.723 83.7997H175.873C176.347 83.7997 176.803 83.6275 177.157 83.3149C181.031 79.9022 186.008 78.0229 191.174 78.0229H193.403C193.11 79.1298 192.097 79.9391 190.909 79.9391Z" fill="#E2FDDB"/>
</g>
</g>
<g id="Group_13">
<g id="Group_14">
<path id="Vector_8" d="M177.426 83.7735C177.308 84.0232 177.168 84.2629 177.007 84.4861L178.078 85.2537C178.286 84.9649 178.468 84.6549 178.619 84.3322L177.426 83.7735Z" fill="#E2FDDB"/>
</g>
</g>
<g id="Group_15">
<g id="Group_16">
<path id="Vector_9" d="M176.65 84.9225C175.803 85.8326 174.604 86.3547 173.36 86.3547V87.6711C174.969 87.6711 176.52 86.9959 177.616 85.8184L176.65 84.9225Z" fill="#E2FDDB"/>
</g>
</g>
</g>
<g id="Wind">
<g id="Group_17">
<g id="Group_18">
<path id="Vector_10" d="M174.693 74.4245C174.693 73.7876 174.907 73.502 175.204 73.1069C175.549 72.6473 175.978 72.0754 175.978 71H174.659C174.659 71.6369 174.445 71.9225 174.149 72.3176C173.804 72.7772 173.375 73.3492 173.375 74.4245C173.375 75.5 173.804 76.0719 174.149 76.5316C174.445 76.9269 174.659 77.2125 174.659 77.8495C174.659 78.4865 174.445 78.7721 174.149 79.1674C173.804 79.6271 173.375 80.1991 173.375 81.2745H174.693C174.693 80.6374 174.907 80.3518 175.204 79.9566C175.549 79.4969 175.978 78.9249 175.978 77.8495C175.978 76.7741 175.549 76.2021 175.204 75.7424C174.907 75.3472 174.693 75.0616 174.693 74.4245Z" fill="#E2FDDB"/>
</g>
</g>
<g id="Group_19">
<g id="Group_20">
<path id="Vector_11" d="M171.291 71.0001H169.973C169.973 71.637 169.759 71.9225 169.462 72.3177C169.117 72.7772 168.688 73.3493 168.688 74.4246C168.688 75.004 168.808 75.4878 169.066 75.9476L170.217 75.3041C170.119 75.13 170.007 74.8726 170.007 74.4246C170.007 73.7878 170.221 73.5023 170.517 73.1071C170.862 72.6475 171.291 72.0755 171.291 71.0001Z" fill="#E2FDDB"/>
</g>
</g>
<g id="Group_21">
<g id="Group_22">
<path id="Vector_12" d="M170.914 76.327L169.763 76.9703C169.861 77.1444 169.973 77.4017 169.973 77.8495C169.973 78.4866 169.759 78.7722 169.462 79.1674C169.117 79.6271 168.688 80.1991 168.688 81.2746H170.007C170.007 80.6375 170.221 80.3519 170.517 79.9566C170.862 79.4971 171.291 78.925 171.291 77.8495C171.291 77.2704 171.171 76.7866 170.914 76.327Z" fill="#E2FDDB"/>
</g>
</g>
</g>
</g>
<g id="title">
<path id="The" d="M74.836 104.6H87.904V103.304L84.16 102.836V82.928H85.024C87.868 82.928 89.776 83.036 90.748 83.252L91.216 87.608H92.836V81.02H69.94V87.608H71.524L71.992 83.252C73.072 83 74.944 82.892 77.644 82.892H78.544V102.836L74.8 103.304L74.836 104.6ZM101.405 86.78V79.616H94.6366V80.768L96.3286 81.2V103.016L94.7086 103.448V104.6H102.917V103.448L101.405 103.016V90.668C102.305 90.272 103.205 90.056 104.105 90.056C104.861 90.056 105.437 90.344 105.869 90.884C106.301 91.424 106.517 92.18 106.517 93.152V102.98L105.041 103.412V104.564H113.249V103.412L111.593 102.98V92.468C111.593 89.228 110.081 87.608 107.021 87.608C105.689 87.608 104.213 88.04 102.557 88.868L101.333 89.48C101.405 88.436 101.441 87.536 101.441 86.78H101.405ZM122.776 87.68C120.292 87.68 118.42 88.4 117.196 89.804C115.972 91.208 115.36 93.368 115.36 96.248C115.36 99.236 116.008 101.432 117.304 102.836C118.6 104.24 120.616 104.96 123.316 104.96C124.288 104.96 125.296 104.852 126.34 104.6C127.384 104.348 128.212 104.024 128.86 103.628V102.296C127.276 102.62 125.98 102.8 124.936 102.8C123.82 102.8 122.956 102.62 122.344 102.224C121.732 101.828 121.264 101.252 120.976 100.496C120.688 99.74 120.544 98.48 120.544 96.716V96.428H129.22V94.988C129.22 92.468 128.716 90.632 127.708 89.444C126.7 88.256 125.08 87.68 122.848 87.68H122.776ZM122.668 89.444C123.136 89.444 123.496 89.588 123.748 89.876C124 90.164 124.18 90.632 124.288 91.28C124.396 91.928 124.432 93.044 124.432 94.592H120.616C120.616 92.684 120.796 91.352 121.156 90.596C121.516 89.84 122.02 89.444 122.704 89.444H122.668Z" fill="#E2FDDB"/>
<path id="Bohrach" d="M86.589 124.787C86.589 126.55 86.261 127.821 85.564 128.559C84.867 129.297 83.801 129.666 82.366 129.666H79.414V120.318H82.202C83.719 120.318 84.826 120.687 85.523 121.384C86.22 122.081 86.548 123.229 86.548 124.787H86.589ZM88.557 137.169C88.557 139.096 88.188 140.531 87.45 141.474C86.712 142.417 85.564 142.909 84.006 142.909C82.899 142.909 81.382 142.868 79.455 142.786V131.921H82.899C84.908 131.921 86.343 132.372 87.245 133.233C88.147 134.094 88.598 135.406 88.598 137.169H88.557ZM69.697 145H74.945L84.047 145.123C87.655 145.123 90.402 144.467 92.329 143.114C94.256 141.761 95.199 139.793 95.199 137.21C95.199 135.324 94.543 133.848 93.272 132.741C92.001 131.634 90.115 130.978 87.614 130.732C89.295 130.363 90.648 129.625 91.632 128.477C92.616 127.329 93.108 125.935 93.108 124.336C93.108 122.204 92.247 120.646 90.525 119.703C88.803 118.76 86.179 118.268 82.612 118.268H69.615V119.744L73.059 120.277V143.114L69.615 143.647L69.697 145ZM107.418 125.689C101.227 125.689 98.6846 129.133 98.6846 135.488C98.6846 141.761 101.186 145.41 107.254 145.41C113.527 145.41 116.069 141.925 116.069 135.488C116.069 129.256 113.568 125.689 107.418 125.689ZM110.206 135.488C110.206 139.465 110.206 143.401 107.295 143.401C104.63 143.401 104.548 139.588 104.548 135.488C104.548 131.429 104.589 127.698 107.295 127.698C110.206 127.698 110.206 131.511 110.206 135.488ZM127.18 124.705V116.546H119.472V117.858L121.399 118.35V143.196L119.554 143.688V145H128.902V143.688L127.18 143.196V129.133C128.205 128.682 129.23 128.436 130.255 128.436C131.116 128.436 131.772 128.764 132.264 129.379C132.756 129.994 133.002 130.855 133.002 131.962V143.155L131.321 143.647V144.959H140.669V143.647L138.783 143.155V131.183C138.783 127.493 137.061 125.648 133.576 125.648C132.059 125.648 130.378 126.14 128.492 127.083L127.098 127.78C127.18 126.591 127.221 125.566 127.221 124.705H127.18ZM151.274 130.076L151.069 126.181H143.156V127.493L145.575 127.985V143.196L143.156 143.688V145H154.39V143.688L151.397 143.196V131.757C152.176 131.265 153.119 130.855 154.185 130.486C155.251 130.117 156.194 129.953 157.055 129.953L158.244 132.495H159.351V125.607H158.285C157.342 125.607 156.276 125.976 155.128 126.673C153.98 127.37 152.668 128.518 151.233 130.117L151.274 130.076ZM171.994 125.771C171.01 125.771 170.026 125.812 169.083 125.894C168.14 125.976 166.664 126.181 164.655 126.468V131.019H166.008L166.746 128.682C168.14 127.985 169.411 127.616 170.518 127.616C172.363 127.616 173.306 128.764 173.306 131.019V133.766L170.846 133.848C168.509 133.889 166.787 134.094 165.721 134.504C164.655 134.914 163.835 135.529 163.261 136.39C162.687 137.251 162.4 138.399 162.4 139.834C162.4 143.565 164.327 145.451 168.222 145.451C169.083 145.451 169.944 145.328 170.764 145.082C171.584 144.836 172.527 144.344 173.552 143.647L174.003 145.082H180.932V143.77L179.046 143.278V131.06C179.046 127.575 176.709 125.853 171.994 125.853V125.771ZM173.265 135.652V142.376C172.199 142.827 171.215 143.073 170.313 143.073C169.657 143.073 169.124 142.827 168.714 142.294C168.304 141.761 168.099 140.941 168.099 139.793C168.099 138.399 168.345 137.374 168.837 136.759C169.329 136.144 170.231 135.816 171.502 135.775L173.265 135.652ZM199.546 143.852V142.335C198.234 142.704 196.676 142.909 194.831 142.909C192.986 142.909 191.633 142.335 190.813 141.187C189.993 140.039 189.583 138.112 189.583 135.447C189.583 133.848 189.747 132.495 190.116 131.347C190.485 130.199 190.977 129.338 191.633 128.723C192.289 128.108 192.986 127.78 193.765 127.78C194.462 127.78 195.036 127.862 195.487 127.985C195.938 128.108 196.389 128.354 196.84 128.682L197.701 132.003H199.136V126.427C196.922 125.976 194.872 125.73 193.027 125.73C191.182 125.73 189.542 126.14 188.148 126.919C186.754 127.698 185.688 128.846 184.95 130.322C184.212 131.798 183.843 133.561 183.843 135.652C183.843 138.973 184.663 141.433 186.303 143.032C187.943 144.631 190.444 145.451 193.806 145.451C194.913 145.451 196.02 145.328 197.086 145.082C198.152 144.836 198.972 144.467 199.587 143.975L199.546 143.852ZM210.097 124.705V116.546H202.389V117.858L204.316 118.35V143.196L202.471 143.688V145H211.819V143.688L210.097 143.196V129.133C211.122 128.682 212.147 128.436 213.172 128.436C214.033 128.436 214.689 128.764 215.181 129.379C215.673 129.994 215.919 130.855 215.919 131.962V143.155L214.238 143.647V144.959H223.586V143.647L221.7 143.155V131.183C221.7 127.493 219.978 125.648 216.493 125.648C214.976 125.648 213.295 126.14 211.409 127.083L210.015 127.78C210.097 126.591 210.138 125.566 210.138 124.705H210.097Z" fill="#E2FDDB"/>
</g>
<path id="Restaurant of National Ukrainian Cuisine" d="M75.7968 169.856C76.5008 171.019 77.3861 172.299 78.4528 173.696L78.4368 173.856C78.0528 174.005 77.6581 174.101 77.2528 174.144L77.0768 174.032C76.2021 172.72 75.4181 171.44 74.7248 170.192H72.8528V170.8L72.9168 174H71.6208L71.7008 170.912L71.6208 163.744L74.7568 163.728C75.7595 163.728 76.5328 163.984 77.0768 164.496C77.6315 164.997 77.9088 165.717 77.9088 166.656C77.9088 167.36 77.7221 167.995 77.3488 168.56C76.9861 169.115 76.4688 169.547 75.7968 169.856ZM72.8688 169.104L74.7888 169.152C75.9835 168.811 76.5808 168.016 76.5808 166.768C76.5808 166.117 76.4048 165.632 76.0528 165.312C75.7008 164.981 75.1728 164.805 74.4688 164.784L72.9168 164.832L72.8688 169.104ZM85.3118 172.976L85.4078 173.072L85.2958 174H80.4478L80.4958 171.6L80.4478 166.032H85.3278L85.4078 166.128L85.3118 167.056L83.2958 166.992L81.6318 167.008L81.6158 169.424L83.1998 169.44L84.5918 169.392L84.6718 169.504L84.5758 170.448L83.1038 170.4L81.6158 170.416L81.5998 171.504L81.6158 173.024L83.1838 173.04L85.3118 172.976ZM89.7529 165.952C90.4036 165.952 91.0543 166.08 91.7049 166.336L91.4969 167.52L91.3049 167.568C91.0063 167.333 90.7236 167.163 90.4569 167.056C90.1903 166.939 89.9129 166.88 89.6249 166.88C89.1663 166.88 88.8036 167.003 88.5369 167.248C88.2703 167.483 88.1369 167.755 88.1369 168.064C88.1369 168.373 88.2649 168.624 88.5209 168.816C88.7876 169.008 89.1929 169.221 89.7369 169.456C90.2169 169.669 90.5956 169.861 90.8729 170.032C91.1609 170.203 91.4063 170.432 91.6089 170.72C91.8223 170.997 91.9289 171.339 91.9289 171.744C91.9289 172.16 91.8169 172.549 91.5929 172.912C91.3689 173.264 91.0383 173.552 90.6009 173.776C90.1743 173.989 89.6623 174.096 89.0649 174.096C88.6916 174.096 88.2969 174.053 87.8809 173.968C87.4756 173.872 87.0969 173.733 86.7449 173.552L86.8889 172.288L87.0489 172.224C87.3476 172.523 87.6943 172.757 88.0889 172.928C88.4943 173.088 88.8676 173.168 89.2089 173.168C89.6569 173.168 90.0249 173.051 90.3129 172.816C90.6009 172.571 90.7449 172.277 90.7449 171.936C90.7449 171.616 90.6116 171.36 90.3449 171.168C90.0889 170.976 89.6836 170.752 89.1289 170.496C88.6703 170.293 88.2916 170.107 87.9929 169.936C87.7049 169.765 87.4596 169.541 87.2569 169.264C87.0543 168.976 86.9529 168.629 86.9529 168.224C86.9529 167.797 87.0649 167.413 87.2889 167.072C87.5236 166.731 87.8489 166.459 88.2649 166.256C88.6916 166.053 89.1876 165.952 89.7529 165.952ZM98.9878 166.128L98.9078 167.136L97.4198 167.024H96.6198L96.5718 171.504L96.6198 174H95.4198L95.4678 171.6L95.4358 167.024H94.6358L93.1158 167.136L93.0198 167.024L93.1158 166.032H98.9238L98.9878 166.128ZM106.265 174H105.065L104.873 173.136L104.457 171.952L102.553 171.936L100.857 171.952L100.425 173.072L100.201 174H99.0172L102.089 166.032H103.465L106.265 174ZM104.121 170.976L102.793 167.2H102.697L101.241 170.976L102.649 170.992L104.121 170.976ZM114.107 170.08V171.232C114.118 172.139 113.84 172.843 113.275 173.344C112.72 173.845 111.92 174.096 110.875 174.096C109.84 174.096 109.051 173.851 108.507 173.36C107.963 172.859 107.702 172.149 107.723 171.232L107.739 170.016L107.723 166.032H108.923L108.859 171.04C108.848 171.712 109.014 172.219 109.355 172.56C109.707 172.901 110.23 173.072 110.923 173.072C111.606 173.072 112.123 172.901 112.475 172.56C112.827 172.219 112.998 171.712 112.987 171.04L112.939 166.032H114.155L114.107 170.08ZM120.424 170.784C121.075 171.776 121.795 172.752 122.584 173.712L122.568 173.872C122.12 174.011 121.752 174.091 121.464 174.112L121.256 173.984C120.446 172.757 119.832 171.792 119.416 171.088L117.912 171.104V171.504L117.944 174H116.76L116.808 171.6L116.76 166.032L119.48 166.016C120.323 166.016 120.968 166.213 121.416 166.608C121.875 167.003 122.104 167.573 122.104 168.32C122.104 168.864 121.955 169.349 121.656 169.776C121.368 170.203 120.958 170.539 120.424 170.784ZM117.928 170.112L119.432 170.16C120.382 169.893 120.856 169.312 120.856 168.416C120.856 167.947 120.718 167.595 120.44 167.36C120.163 167.125 119.742 166.997 119.176 166.976L117.944 166.992L117.928 170.112ZM130.906 174H129.706L129.514 173.136L129.098 171.952L127.194 171.936L125.498 171.952L125.066 173.072L124.842 174H123.658L126.73 166.032H128.106L130.906 174ZM128.762 170.976L127.434 167.2H127.338L125.882 170.976L127.29 170.992L128.762 170.976ZM139.493 171.616L139.509 174H138.229L134.037 167.92H133.957L133.941 171.344L133.973 174H132.885L132.933 171.648L132.901 166.032H134.165L138.357 172.112H138.469L138.437 166.08L139.541 166L139.493 171.616ZM147.238 166.128L147.158 167.136L145.67 167.024H144.87L144.822 171.504L144.87 174H143.67L143.718 171.6L143.686 167.024H142.886L141.366 167.136L141.27 167.024L141.366 166.032H147.174L147.238 166.128ZM154.959 165.936C156.121 165.936 157.012 166.277 157.631 166.96C158.26 167.643 158.575 168.608 158.575 169.856C158.575 171.211 158.239 172.261 157.567 173.008C156.905 173.744 155.956 174.112 154.719 174.112C153.567 174.112 152.676 173.765 152.047 173.072C151.417 172.368 151.103 171.371 151.103 170.08C151.103 168.757 151.439 167.739 152.111 167.024C152.783 166.299 153.732 165.936 154.959 165.936ZM154.847 166.944C154.004 166.944 153.375 167.184 152.959 167.664C152.553 168.144 152.351 168.901 152.351 169.936C152.351 171.045 152.553 171.851 152.959 172.352C153.364 172.853 153.983 173.104 154.815 173.104C155.668 173.104 156.303 172.859 156.719 172.368C157.135 171.877 157.343 171.109 157.343 170.064C157.343 168.987 157.135 168.197 156.719 167.696C156.313 167.195 155.689 166.944 154.847 166.944ZM161.833 167.008L161.817 169.632L163.193 169.648L164.601 169.6L164.681 169.712L164.601 170.624L163.081 170.608L161.801 170.624V171.504L161.833 174H160.649L160.681 171.6L160.649 166.032H165.289L165.353 166.128L165.257 167.056L163.289 166.992L161.833 167.008ZM177.477 170.992L177.509 174H176.165L170.853 165.792H170.773L170.757 170.624L170.773 174H169.621L169.669 170.96L169.637 163.744H170.965L176.261 171.952H176.373L176.357 163.808L177.557 163.712L177.477 170.992ZM186.687 174H185.487L185.295 173.136L184.879 171.952L182.975 171.936L181.279 171.952L180.847 173.072L180.623 174H179.439L182.511 166.032H183.887L186.687 174ZM184.543 170.976L183.215 167.2H183.119L181.663 170.976L183.071 170.992L184.543 170.976ZM192.832 166.128L192.752 167.136L191.264 167.024H190.464L190.416 171.504L190.464 174H189.264L189.312 171.6L189.28 167.024H188.48L186.96 167.136L186.864 167.024L186.96 166.032H192.768L192.832 166.128ZM195.928 171.504L195.96 174H194.776L194.824 171.6L194.776 166.032H195.976L195.928 171.504ZM201.787 165.936C202.95 165.936 203.84 166.277 204.459 166.96C205.088 167.643 205.403 168.608 205.403 169.856C205.403 171.211 205.067 172.261 204.395 173.008C203.734 173.744 202.784 174.112 201.547 174.112C200.395 174.112 199.504 173.765 198.875 173.072C198.246 172.368 197.931 171.371 197.931 170.08C197.931 168.757 198.267 167.739 198.939 167.024C199.611 166.299 200.56 165.936 201.787 165.936ZM201.675 166.944C200.832 166.944 200.203 167.184 199.787 167.664C199.382 168.144 199.179 168.901 199.179 169.936C199.179 171.045 199.382 171.851 199.787 172.352C200.192 172.853 200.811 173.104 201.643 173.104C202.496 173.104 203.131 172.859 203.547 172.368C203.963 171.877 204.171 171.109 204.171 170.064C204.171 168.987 203.963 168.197 203.547 167.696C203.142 167.195 202.518 166.944 201.675 166.944ZM214.165 171.616L214.181 174H212.901L208.709 167.92H208.629L208.613 171.344L208.645 174H207.557L207.605 171.648L207.573 166.032H208.837L213.029 172.112H213.141L213.109 166.08L214.213 166L214.165 171.616ZM223.296 174H222.096L221.904 173.136L221.488 171.952L219.584 171.936L217.888 171.952L217.456 173.072L217.232 174H216.048L219.12 166.032H220.496L223.296 174ZM221.152 170.976L219.824 167.2H219.728L218.272 170.976L219.68 170.992L221.152 170.976ZM229.564 173.104L229.484 174H225.244L225.292 171.6L225.244 166.032H226.444L226.396 171.504L226.428 172.992H229.5L229.564 173.104ZM98.4097 186.96L98.3938 188.112C98.4151 189.371 98.0844 190.352 97.4018 191.056C96.7191 191.76 95.7484 192.112 94.4898 192.112C93.2844 192.112 92.3564 191.776 91.7057 191.104C91.0658 190.432 90.7564 189.483 90.7778 188.256L90.7938 186.864L90.7778 181.744H92.0418L91.9938 188.096C91.9831 189.056 92.1964 189.781 92.6338 190.272C93.0711 190.752 93.7218 190.992 94.5858 190.992C95.4498 190.992 96.1058 190.763 96.5538 190.304C97.0018 189.845 97.2204 189.163 97.2098 188.256L97.1458 181.744H98.4258L98.4097 186.96ZM103.641 187.76C104.772 189.147 105.972 190.469 107.241 191.728L107.209 191.904C106.879 192.011 106.495 192.091 106.057 192.144L105.865 192.064C104.5 190.528 103.321 189.12 102.329 187.84V187.744L105.081 184.736L105.609 184.032L107.033 184.016L103.641 187.76ZM102.201 189.504L102.233 192H101.049L101.097 189.6L101.049 184.032H102.249L102.201 189.504ZM112.557 188.784C113.208 189.776 113.928 190.752 114.717 191.712L114.701 191.872C114.253 192.011 113.885 192.091 113.597 192.112L113.389 191.984C112.578 190.757 111.965 189.792 111.549 189.088L110.045 189.104V189.504L110.077 192H108.893L108.941 189.6L108.893 184.032L111.613 184.016C112.456 184.016 113.101 184.213 113.549 184.608C114.008 185.003 114.237 185.573 114.237 186.32C114.237 186.864 114.088 187.349 113.789 187.776C113.501 188.203 113.09 188.539 112.557 188.784ZM110.061 188.112L111.565 188.16C112.514 187.893 112.989 187.312 112.989 186.416C112.989 185.947 112.85 185.595 112.573 185.36C112.296 185.125 111.874 184.997 111.309 184.976L110.077 184.992L110.061 188.112ZM123.039 192H121.839L121.647 191.136L121.231 189.952L119.327 189.936L117.631 189.952L117.199 191.072L116.975 192H115.791L118.863 184.032H120.239L123.039 192ZM120.895 188.976L119.567 185.2H119.471L118.015 188.976L119.423 188.992L120.895 188.976ZM126.17 189.504L126.202 192H125.018L125.066 189.6L125.018 184.032H126.218L126.17 189.504ZM135.767 189.616L135.783 192H134.503L130.311 185.92H130.231L130.215 189.344L130.247 192H129.159L129.207 189.648L129.175 184.032H130.439L134.631 190.112H134.743L134.711 184.08L135.815 184L135.767 189.616ZM139.842 189.504L139.874 192H138.69L138.738 189.6L138.69 184.032H139.89L139.842 189.504ZM149.039 192H147.839L147.647 191.136L147.231 189.952L145.327 189.936L143.631 189.952L143.199 191.072L142.975 192H141.791L144.863 184.032H146.239L149.039 192ZM146.895 188.976L145.567 185.2H145.471L144.015 188.976L145.423 188.992L146.895 188.976ZM157.626 189.616L157.642 192H156.362L152.17 185.92H152.09L152.074 189.344L152.106 192H151.018L151.066 189.648L151.034 184.032H152.298L156.49 190.112H156.602L156.57 184.08L157.674 184L157.626 189.616ZM166.902 181.664C167.979 181.664 168.913 181.92 169.702 182.432L169.446 183.6L169.302 183.632C168.587 183.035 167.766 182.736 166.838 182.736C165.825 182.736 165.046 183.088 164.502 183.792C163.958 184.485 163.686 185.504 163.686 186.848C163.686 188.203 163.958 189.237 164.502 189.952C165.046 190.667 165.814 191.024 166.806 191.024C167.275 191.024 167.739 190.939 168.198 190.768C168.667 190.597 169.094 190.357 169.478 190.048L169.638 190.128L169.526 191.344C168.598 191.856 167.654 192.112 166.694 192.112C165.318 192.112 164.251 191.669 163.494 190.784C162.737 189.888 162.358 188.613 162.358 186.96C162.358 185.264 162.753 183.957 163.542 183.04C164.331 182.123 165.451 181.664 166.902 181.664ZM177.631 188.08V189.232C177.641 190.139 177.364 190.843 176.799 191.344C176.244 191.845 175.444 192.096 174.399 192.096C173.364 192.096 172.575 191.851 172.031 191.36C171.487 190.859 171.225 190.149 171.247 189.232L171.263 188.016L171.247 184.032H172.447L172.383 189.04C172.372 189.712 172.537 190.219 172.879 190.56C173.231 190.901 173.753 191.072 174.447 191.072C175.129 191.072 175.647 190.901 175.999 190.56C176.351 190.219 176.521 189.712 176.511 189.04L176.463 184.032H177.679L177.631 188.08ZM181.436 189.504L181.468 192H180.284L180.332 189.6L180.284 184.032H181.484L181.436 189.504ZM186.776 183.952C187.427 183.952 188.078 184.08 188.728 184.336L188.52 185.52L188.328 185.568C188.03 185.333 187.747 185.163 187.48 185.056C187.214 184.939 186.936 184.88 186.648 184.88C186.19 184.88 185.827 185.003 185.56 185.248C185.294 185.483 185.16 185.755 185.16 186.064C185.16 186.373 185.288 186.624 185.544 186.816C185.811 187.008 186.216 187.221 186.76 187.456C187.24 187.669 187.619 187.861 187.896 188.032C188.184 188.203 188.43 188.432 188.632 188.72C188.846 188.997 188.952 189.339 188.952 189.744C188.952 190.16 188.84 190.549 188.616 190.912C188.392 191.264 188.062 191.552 187.624 191.776C187.198 191.989 186.686 192.096 186.088 192.096C185.715 192.096 185.32 192.053 184.904 191.968C184.499 191.872 184.12 191.733 183.768 191.552L183.912 190.288L184.072 190.224C184.371 190.523 184.718 190.757 185.112 190.928C185.518 191.088 185.891 191.168 186.232 191.168C186.68 191.168 187.048 191.051 187.336 190.816C187.624 190.571 187.768 190.277 187.768 189.936C187.768 189.616 187.635 189.36 187.368 189.168C187.112 188.976 186.707 188.752 186.152 188.496C185.694 188.293 185.315 188.107 185.016 187.936C184.728 187.765 184.483 187.541 184.28 187.264C184.078 186.976 183.976 186.629 183.976 186.224C183.976 185.797 184.088 185.413 184.312 185.072C184.547 184.731 184.872 184.459 185.288 184.256C185.715 184.053 186.211 183.952 186.776 183.952ZM192.373 189.504L192.405 192H191.221L191.269 189.6L191.221 184.032H192.421L192.373 189.504ZM201.97 189.616L201.986 192H200.706L196.514 185.92H196.434L196.418 189.344L196.45 192H195.362L195.41 189.648L195.378 184.032H196.642L200.834 190.112H200.946L200.914 184.08L202.018 184L201.97 189.616ZM209.757 190.976L209.853 191.072L209.741 192H204.893L204.941 189.6L204.893 184.032H209.773L209.853 184.128L209.757 185.056L207.741 184.992L206.077 185.008L206.061 187.424L207.645 187.44L209.037 187.392L209.117 187.504L209.021 188.448L207.549 188.4L206.061 188.416L206.045 189.504L206.061 191.024L207.629 191.04L209.757 190.976Z" fill="#E2FDDB"/>
<g id="corner">
<line id="Line 1" x1="53.0219" y1="216" x2="53.0219" y2="168" stroke="#E2FDDB" stroke-width="2"/>
<line id="Line 2" x1="54" y1="215.014" x2="102" y2="215.014" stroke="#E2FDDB" stroke-width="2"/>
</g>
</g>
</svg>
