<svg width="300" height="300" viewBox="0 0 300 300" fill="none" xmlns="http://www.w3.org/2000/svg">
<g id="PhotoX">
<rect id="Rectangle 1" width="300" height="300" opacity="0.7" fill="#EA7D23"/>
<g id="Camera-svg">
<path id="Vector" d="M176.771 82.6127H164.305C163.818 82.6127 163.424 83.007 163.424 83.4934C163.424 83.9798 163.818 84.3741 164.305 84.3741H176.771C177.58 84.3741 178.239 85.0324 178.239 85.8417V92.5263H168.292C165.18 88.5258 160.322 85.9472 154.872 85.9472C149.423 85.9472 144.565 88.5258 141.453 92.5263H121.761V85.8417C121.761 85.0324 122.42 84.3741 123.229 84.3741H160.782C161.268 84.3741 161.663 83.9798 161.663 83.4934C161.663 83.007 161.268 82.6127 160.782 82.6127H144.522V81.8419C144.522 80.3852 143.337 79.2 141.881 79.2H137.864C136.407 79.2 135.222 80.3852 135.222 81.8419V82.6127H133.091V81.8419C133.091 80.3852 131.906 79.2 130.449 79.2H126.432C124.975 79.2 123.79 80.3852 123.79 81.8419V82.6127H123.229C121.449 82.6127 120 84.0613 120 85.8417V119.808C120 121.588 121.449 123.037 123.229 123.037H135.561C136.048 123.037 136.442 122.642 136.442 122.156C136.442 121.669 136.048 121.275 135.561 121.275H123.229C122.42 121.275 121.761 120.617 121.761 119.808V116.293H144.368C147.261 118.575 150.911 119.937 154.872 119.937C158.781 119.937 162.461 118.607 165.396 116.293H178.239V119.808C178.239 120.617 177.58 121.275 176.771 121.275H139.084C138.597 121.275 138.203 121.669 138.203 122.156C138.203 122.642 138.597 123.037 139.084 123.037H176.771C178.551 123.037 180 121.588 180 119.808V85.8417C180 84.0613 178.551 82.6127 176.771 82.6127ZM136.983 81.8419C136.983 81.3562 137.378 80.9612 137.864 80.9612H141.881C142.366 80.9612 142.761 81.3562 142.761 81.8419V82.6127H136.983V81.8419ZM125.552 81.8419C125.552 81.3562 125.947 80.9612 126.432 80.9612H130.449C130.935 80.9612 131.33 81.3562 131.33 81.8419V82.6127H125.552V81.8419ZM121.761 94.2875H140.252C139.363 95.7823 138.697 97.4236 138.301 99.1663C136.223 99.172 134.535 100.864 134.535 102.942C134.535 105.021 136.223 106.712 138.3 106.718C138.978 109.694 140.439 112.374 142.454 114.532H121.761V94.2875ZM137.994 104.93C137.033 104.777 136.296 103.945 136.296 102.942C136.296 101.939 137.034 101.108 137.994 100.955C137.918 101.607 137.877 102.27 137.877 102.942C137.877 103.614 137.918 104.277 137.994 104.93ZM139.639 102.942C139.639 94.5424 146.472 87.7085 154.872 87.7085C163.272 87.7085 170.106 94.5424 170.106 102.942C170.106 103.862 170.024 104.784 169.861 105.681C169.774 106.159 170.092 106.617 170.57 106.704C171.048 106.791 171.507 106.474 171.594 105.995C171.775 104.995 171.867 103.968 171.867 102.942C171.867 99.7836 171 96.8242 169.493 94.2877H178.239V114.532H167.308C168.64 113.102 169.74 111.429 170.531 109.558C170.721 109.11 170.511 108.593 170.063 108.404C169.615 108.214 169.099 108.424 168.909 108.872C166.519 114.524 161.009 118.176 154.872 118.176C146.472 118.176 139.639 111.342 139.639 102.942Z" fill="white" fill-opacity="0.95"/>
<path id="Vector_2" d="M154.872 90.0668C147.773 90.0668 141.997 95.8427 141.997 102.942C141.997 110.042 147.773 115.818 154.872 115.818C161.972 115.818 167.748 110.042 167.748 102.942C167.748 95.8426 161.972 90.0668 154.872 90.0668ZM154.872 114.056C148.744 114.056 143.758 109.071 143.758 102.942C143.758 96.814 148.744 91.828 154.872 91.828C161.001 91.828 165.986 96.8139 165.986 102.942C165.986 109.071 161.001 114.056 154.872 114.056Z" fill="white" fill-opacity="0.95"/>
<path id="Vector_3" d="M154.872 97.686C151.974 97.686 149.616 100.044 149.616 102.942C149.616 105.84 151.974 108.198 154.872 108.198C157.771 108.198 160.129 105.84 160.129 102.942C160.129 100.044 157.771 97.686 154.872 97.686ZM154.872 106.437C152.945 106.437 151.377 104.869 151.377 102.942C151.377 101.015 152.945 99.4473 154.872 99.4473C156.799 99.4473 158.367 101.015 158.367 102.942C158.367 104.869 156.799 106.437 154.872 106.437Z" fill="white" fill-opacity="0.95"/>
<path id="Vector_4" d="M128.342 105.613C126.567 105.613 125.123 107.057 125.123 108.832C125.123 110.607 126.567 112.051 128.342 112.051C130.117 112.051 131.561 110.607 131.561 108.832C131.561 107.057 130.117 105.613 128.342 105.613ZM128.342 110.289C127.538 110.289 126.884 109.635 126.884 108.832C126.884 108.028 127.538 107.374 128.342 107.374C129.146 107.374 129.8 108.028 129.8 108.832C129.8 109.635 129.146 110.289 128.342 110.289Z" fill="white" fill-opacity="0.95"/>
<path id="Vector_5" d="M173.857 90.9115C175.214 90.9115 176.318 89.8072 176.318 88.4501C176.318 87.0929 175.214 85.9887 173.857 85.9887H170.551C169.194 85.9887 168.09 87.0929 168.09 88.4501C168.09 89.8072 169.194 90.9115 170.551 90.9115H173.857ZM169.851 88.4501C169.851 88.0641 170.165 87.75 170.551 87.75H173.857C174.243 87.75 174.557 88.0641 174.557 88.4501C174.557 88.8362 174.243 89.1503 173.857 89.1503H170.551C170.165 89.1503 169.851 88.8362 169.851 88.4501Z" fill="white" fill-opacity="0.95"/>
<path id="Vector_6" d="M127.06 87.5694C126.574 87.5694 126.18 87.9636 126.18 88.4501C126.18 88.9365 126.574 89.3307 127.06 89.3307H131.18C131.666 89.3307 132.06 88.9365 132.06 88.4501C132.06 87.9636 131.666 87.5694 131.18 87.5694H127.06Z" fill="white" fill-opacity="0.95"/>
<path id="Vector_7" d="M135.764 87.5694C135.278 87.5694 134.883 87.9636 134.883 88.4501C134.883 88.9365 135.277 89.3307 135.764 89.3307H138.533C139.019 89.3307 139.413 88.9365 139.413 88.4501C139.413 87.9636 139.019 87.5694 138.533 87.5694H135.764Z" fill="white" fill-opacity="0.95"/>
</g>
<path id="PhotoX Studio" d="M64.44 149.2V169H68.952V161.656H71.664C75.528 161.656 78.432 159.376 78.432 155.296C78.432 151.192 75.528 149.2 71.664 149.2H64.44ZM68.952 158.056V152.8H70.224C72 152.8 73.68 153.4 73.68 155.44C73.68 157.456 72 158.056 70.224 158.056H68.952ZM80.4244 169H84.6724V162.04C84.6724 160.816 85.9204 159.64 87.1924 159.64C88.5604 159.64 89.4004 160.816 89.4004 162.04V169H93.6484V160.888C93.6484 157.456 90.5044 156.328 88.2484 156.328C86.9044 156.328 85.6804 157.024 84.7204 157.984H84.6724V148.36H80.4244V169ZM95.4036 162.856C95.4036 166.648 98.3796 169.36 102.82 169.36C107.068 169.36 110.164 166.648 110.164 162.856C110.164 159.016 106.9 156.328 102.82 156.328C98.6676 156.328 95.4036 159.016 95.4036 162.856ZM99.9156 162.856C99.9156 161.152 101.188 159.952 102.796 159.952C104.38 159.952 105.652 161.152 105.652 162.856C105.652 164.536 104.452 165.736 102.796 165.736C101.068 165.736 99.9156 164.536 99.9156 162.856ZM112.762 156.688H110.986V159.928H112.762V164.656C112.762 166.84 113.578 169.36 116.962 169.36C118.714 169.36 120.082 168.592 120.082 168.592L119.026 165.16C119.026 165.16 118.522 165.544 117.97 165.544C117.298 165.544 117.01 164.992 117.01 163.84V159.928H119.602V156.688H117.01V152.104H112.762V156.688ZM120.622 162.856C120.622 166.648 123.598 169.36 128.038 169.36C132.286 169.36 135.382 166.648 135.382 162.856C135.382 159.016 132.118 156.328 128.038 156.328C123.886 156.328 120.622 159.016 120.622 162.856ZM125.134 162.856C125.134 161.152 126.406 159.952 128.014 159.952C129.598 159.952 130.87 161.152 130.87 162.856C130.87 164.536 129.67 165.736 128.014 165.736C126.286 165.736 125.134 164.536 125.134 162.856ZM155.906 169L148.178 158.344L154.658 149.2H149.042L145.394 154.6L141.746 149.2H136.37L142.61 158.344L135.121 169H140.714L145.394 162.256L150.074 169H155.906ZM169.916 148.84C166.724 148.84 163.46 151.192 163.46 154.888C163.46 156.952 164.852 158.8 167.228 159.976C169.58 161.152 171.692 161.8 171.692 163.24C171.692 165.088 169.82 165.184 168.836 165.184C166.628 165.184 163.988 162.952 163.988 162.952L161.732 166.744C161.732 166.744 164.54 169.36 169.172 169.36C173.036 169.36 176.636 167.704 176.636 162.976C176.636 160.384 174.212 158.512 172.004 157.576C169.748 156.616 167.876 155.824 167.876 154.72C167.876 153.64 168.692 152.944 170.228 152.944C172.268 152.944 174.236 154.312 174.236 154.312L176.06 150.712C176.06 150.712 173.516 148.84 169.916 148.84ZM179.465 156.688H177.689V159.928H179.465V164.656C179.465 166.84 180.281 169.36 183.665 169.36C185.417 169.36 186.785 168.592 186.785 168.592L185.729 165.16C185.729 165.16 185.225 165.544 184.673 165.544C184.001 165.544 183.713 164.992 183.713 163.84V159.928H186.305V156.688H183.713V152.104H179.465V156.688ZM192.221 156.688H187.973V163.576C187.973 167.704 190.037 169.36 194.645 169.36C199.253 169.36 201.317 167.704 201.317 163.576V156.688H197.069V162.544C197.069 164.968 196.421 165.904 194.645 165.904C192.869 165.904 192.221 164.968 192.221 162.544V156.688ZM203.075 162.856C203.075 166.456 205.595 169.36 209.195 169.36C210.875 169.36 212.315 168.616 213.227 167.608H213.275V169H217.475V148.36H213.227V157.864C212.219 156.88 210.851 156.328 209.195 156.328C205.595 156.328 203.075 159.256 203.075 162.856ZM207.587 162.856C207.587 161.152 208.859 159.952 210.467 159.952C212.051 159.952 213.323 161.152 213.323 162.856C213.323 164.536 212.123 165.736 210.467 165.736C208.739 165.736 207.587 164.536 207.587 162.856ZM222.53 149.08C221.138 149.08 220.01 150.208 220.01 151.6C220.01 152.992 221.138 154.12 222.53 154.12C223.922 154.12 225.05 152.992 225.05 151.6C225.05 150.208 223.922 149.08 222.53 149.08ZM220.346 156.688H224.594V169H220.346V156.688ZM226.7 162.856C226.7 166.648 229.676 169.36 234.116 169.36C238.364 169.36 241.46 166.648 241.46 162.856C241.46 159.016 238.196 156.328 234.116 156.328C229.964 156.328 226.7 159.016 226.7 162.856ZM231.212 162.856C231.212 161.152 232.484 159.952 234.092 159.952C235.676 159.952 236.948 161.152 236.948 162.856C236.948 164.536 235.748 165.736 234.092 165.736C232.364 165.736 231.212 164.536 231.212 162.856Z" fill="white"/>
<path id="PHOTOGRAPHY" d="M105.333 186.185C105.333 187.301 105.003 188.165 104.342 188.775C103.686 189.382 102.751 189.685 101.539 189.685H100.78V193H98.0801V183.006H101.539C102.801 183.006 103.749 183.282 104.383 183.833C105.016 184.384 105.333 185.168 105.333 186.185ZM100.78 187.483H101.272C101.678 187.483 101.999 187.369 102.236 187.142C102.478 186.914 102.599 186.599 102.599 186.198C102.599 185.524 102.225 185.187 101.478 185.187H100.78V187.483ZM115.771 193H113.057V188.926H109.92V193H107.206V183.006H109.92V186.711H113.057V183.006H115.771V193ZM127.57 187.989C127.57 189.671 127.157 190.949 126.332 191.824C125.508 192.699 124.3 193.137 122.709 193.137C121.142 193.137 119.939 192.697 119.1 191.817C118.266 190.938 117.849 189.657 117.849 187.976C117.849 186.312 118.264 185.043 119.093 184.168C119.927 183.288 121.137 182.849 122.723 182.849C124.314 182.849 125.519 183.284 126.339 184.154C127.16 185.025 127.57 186.303 127.57 187.989ZM120.693 187.989C120.693 189.922 121.365 190.888 122.709 190.888C123.393 190.888 123.899 190.653 124.227 190.184C124.56 189.714 124.726 188.983 124.726 187.989C124.726 186.991 124.557 186.255 124.22 185.781C123.887 185.303 123.388 185.063 122.723 185.063C121.37 185.063 120.693 186.039 120.693 187.989ZM134.064 193H131.363V185.214H128.923V183.006H136.497V185.214H134.064V193ZM147.557 187.989C147.557 189.671 147.145 190.949 146.32 191.824C145.495 192.699 144.288 193.137 142.697 193.137C141.129 193.137 139.926 192.697 139.088 191.817C138.254 190.938 137.837 189.657 137.837 187.976C137.837 186.312 138.252 185.043 139.081 184.168C139.915 183.288 141.125 182.849 142.711 182.849C144.301 182.849 145.507 183.284 146.327 184.154C147.147 185.025 147.557 186.303 147.557 187.989ZM140.681 187.989C140.681 189.922 141.353 190.888 142.697 190.888C143.381 190.888 143.887 190.653 144.215 190.184C144.547 189.714 144.714 188.983 144.714 187.989C144.714 186.991 144.545 186.255 144.208 185.781C143.875 185.303 143.376 185.063 142.711 185.063C141.357 185.063 140.681 186.039 140.681 187.989ZM153.655 187.148H157.968V192.535C156.797 192.936 155.51 193.137 154.106 193.137C152.566 193.137 151.374 192.69 150.531 191.797C149.692 190.904 149.273 189.63 149.273 187.976C149.273 186.362 149.733 185.107 150.654 184.209C151.574 183.311 152.864 182.862 154.523 182.862C155.152 182.862 155.744 182.922 156.3 183.04C156.861 183.159 157.349 183.309 157.763 183.491L156.909 185.61C156.189 185.255 155.398 185.077 154.537 185.077C153.748 185.077 153.138 185.335 152.705 185.85C152.276 186.36 152.062 187.091 152.062 188.044C152.062 188.978 152.256 189.691 152.643 190.184C153.035 190.671 153.598 190.915 154.332 190.915C154.733 190.915 155.102 190.876 155.439 190.799V189.233H153.655V187.148ZM162.986 189.363V193H160.285V183.006H163.56C166.276 183.006 167.634 183.99 167.634 185.959C167.634 187.117 167.069 188.012 165.939 188.646L168.851 193H165.788L163.669 189.363H162.986ZM162.986 187.333H163.492C164.435 187.333 164.907 186.916 164.907 186.082C164.907 185.394 164.444 185.05 163.519 185.05H162.986V187.333ZM176.172 193L175.68 191.127H172.433L171.927 193H168.96L172.221 182.965H175.823L179.125 193H176.172ZM175.119 188.912L174.689 187.271C174.588 186.907 174.465 186.435 174.319 185.856C174.178 185.278 174.085 184.863 174.039 184.612C173.998 184.845 173.916 185.228 173.793 185.761C173.675 186.294 173.408 187.344 172.993 188.912H175.119ZM187.745 186.185C187.745 187.301 187.414 188.165 186.754 188.775C186.097 189.382 185.163 189.685 183.951 189.685H183.192V193H180.492V183.006H183.951C185.213 183.006 186.161 183.282 186.795 183.833C187.428 184.384 187.745 185.168 187.745 186.185ZM183.192 187.483H183.684C184.09 187.483 184.411 187.369 184.648 187.142C184.89 186.914 185.011 186.599 185.011 186.198C185.011 185.524 184.637 185.187 183.889 185.187H183.192V187.483ZM198.183 193H195.469V188.926H192.332V193H189.618V183.006H192.332V186.711H195.469V183.006H198.183V193ZM204.198 186.711L205.921 183.006H208.847L205.559 189.097V193H202.838V189.179L199.55 183.006H202.489L204.198 186.711Z" fill="white" fill-opacity="0.9"/>
<g id="ph-line-2">
<path id="Line 1" d="M106.2 54.9L30.9 115.8" stroke="white"/>
</g>
<g id="ph-line-1">
<path id="Line 2" d="M273.6 203.1L198.3 264" stroke="white"/>
</g>
</g>
</svg>
