<svg width="291" height="291" viewBox="0 0 291 291" fill="none" xmlns="http://www.w3.org/2000/svg">
<rect width="291" height="291" fill="transparent"/>
<g id="dev">
<path id="Vector" d="M210.625 133.473H79.375C76.445 133.473 73.867 132.104 72.147 130C70.797 135.634 70 141.484 70 147.536C70 188.959 103.577 222.536 145 222.536C186.423 222.536 220 188.959 220 147.536C220 141.484 219.208 135.634 217.853 130C216.133 132.104 213.555 133.473 210.625 133.473Z" fill="#F9BA48"/>
<path id="Vector_2" d="M79.689 159.375H210.939C213.869 159.375 216.447 160.744 218.167 162.848C219.517 157.214 220.314 151.364 220.314 145.312C220.314 103.889 186.737 70.312 145.314 70.312C103.891 70.312 70.314 103.889 70.314 145.312C70.314 151.364 71.106 157.214 72.461 162.848C74.181 160.744 76.759 159.375 79.689 159.375Z" fill="#F9BA48"/>
<g id="spin">
<g id="devaices">
<path id="Vector_3" d="M210.938 154.688H79.689C71.936 154.688 65.627 160.997 65.627 168.751V253.126C65.627 260.879 71.936 267.189 79.689 267.189H112.501V281.252H103.126V290.627H112.501H178.126H187.501V281.252H178.126V267.189H210.938C218.691 267.189 225.001 260.88 225.001 253.126V168.75C225.001 160.997 218.692 154.688 210.938 154.688ZM168.751 281.25H121.876V267.187H168.751V281.25ZM215.626 253.125C215.626 255.708 213.526 257.813 210.938 257.813H178.126H112.501H79.689C77.101 257.813 75.002 255.708 75.002 253.125V168.75C75.002 166.167 77.102 164.062 79.689 164.062H210.939C213.527 164.062 215.627 166.167 215.627 168.75L215.626 253.125Z" fill="#333333"/>
<path id="Vector_4" d="M75.001 89.063V14.063C75.001 6.309 68.692 0 60.939 0L14.064 0C6.31001 0 0.00100708 6.309 0.00100708 14.063V89.063C0.00100708 96.816 6.31001 103.126 14.063 103.126H60.938C68.692 103.125 75.001 96.816 75.001 89.063ZM14.064 9.375H60.939C63.527 9.375 65.626 11.48 65.626 14.063V75H9.37601V14.063C9.37601 11.48 11.476 9.375 14.064 9.375ZM60.939 93.75H37.501H14.064C11.476 93.75 9.37701 91.645 9.37701 89.062V84.374H37.501H65.626V89.062C65.626 91.645 63.526 93.75 60.939 93.75Z" fill="#333333"/>
<path id="Vector_5" d="M281.251 56.25V14.063C281.251 6.309 274.942 0 267.188 0L201.563 0C193.81 0 187.501 6.309 187.501 14.063V56.25H178.126V75C178.126 80.17 182.331 84.375 187.501 84.375H281.251C286.421 84.375 290.626 80.17 290.626 75V56.25H281.251ZM196.876 14.063C196.876 11.48 198.976 9.375 201.564 9.375H267.189C269.776 9.375 271.876 11.48 271.876 14.063V56.25H239.064V60.938H229.689V56.25H196.877V14.063H196.876ZM281.251 75H187.501V65.625H220.313V70.313H248.438V65.625H281.25L281.251 75Z" fill="#333333"/>
<path id="Vector_6" d="M79.689 253.125H210.939V168.75H79.689V253.125ZM89.064 178.125H201.564V243.75H89.064V178.125Z" fill="#333333"/>
<path id="Vector_7" d="M37.501 93.751C40.0901 93.751 42.189 91.6521 42.189 89.063C42.189 86.4739 40.0901 84.375 37.501 84.375C34.9119 84.375 32.813 86.4739 32.813 89.063C32.813 91.6521 34.9119 93.751 37.501 93.751Z" fill="#333333"/>
<rect id="Rectangle 2" x="76" y="163" width="138" height="6" rx="3" fill="white"/>
<rect id="Rectangle 3" x="75" y="163" width="4.6" height="24" rx="2.3" fill="white"/>
<rect id="Rectangle 4" x="211" y="163" width="4.6" height="24" rx="2.3" fill="white"/>
<rect id="Rectangle 1" x="89" y="178" width="113" height="65" fill="white"/>
</g>
<g id="arcs">
<path id="Vector_8" d="M35.88 113.374L26.88 110.749C23.646 121.863 22 133.343 22 144.874C22 173.876 32.388 201.991 51.25 224.041L58.375 217.947C40.966 197.594 31.375 171.639 31.375 144.874C31.376 134.229 32.89 123.631 35.88 113.374Z" fill="#333333"/>
<path id="Vector_9" d="M175.38 36.875L178 27.875C166.886 24.641 155.406 23 143.875 23C121.464 23 99.545 29.141 80.495 40.761L85.375 48.763C111.996 32.524 145.16 28.081 175.38 36.875Z" fill="#333333"/>
<path id="Vector_10" d="M246.352 95.817C253.955 111.309 257.813 127.964 257.813 145.312C257.813 172.078 248.222 198.032 230.813 218.385L237.938 224.479C256.801 202.429 267.188 174.313 267.188 145.312C267.188 126.515 263.007 108.473 254.766 91.682L246.352 95.817Z" fill="#333333"/>
</g>
</g>
</g>
</svg>
