<svg width="496" height="496" viewBox="0 0 496 496" fill="none" xmlns="http://www.w3.org/2000/svg">
<g id="speedometr">
<g id="speedometr_2">
<path id="Vector" d="M456 96H383.6C363.768 40.168 310.552 0 248 0C185.448 0 132.232 40.168 112.4 96H40C17.944 96 0 113.944 0 136V408C0 430.056 17.944 448 40 448H136V480H104V496H392V480H360V448H456C478.056 448 496 430.056 496 408V136C496 113.944 478.056 96 456 96ZM448 224C448 263.704 415.696 296 376 296C353.776 296 333.312 285.912 319.704 268.696C360.176 245.328 388.192 202.904 391.504 153.736C424.232 160.84 448 189.672 448 224ZM177.232 37.432L185.064 51.008L198.92 43.008L191.12 29.496C206.016 22.064 222.52 17.496 239.992 16.4V32H255.992V16.408C273.464 17.496 289.968 22.072 304.864 29.504L297.064 43.016L310.92 51.016L318.752 37.44C332.928 46.88 345.112 59.064 354.552 73.24L340.984 81.072L348.984 94.928L362.488 87.128C369.912 102.024 374.488 118.528 375.576 136H360V152H375.592C374.504 169.472 369.928 185.976 362.504 200.872L349 193.072L341 206.928L354.568 214.76C331.608 249.224 292.424 272 248 272C203.576 272 164.392 249.224 141.432 214.768L155 206.936L147 193.08L133.496 200.88C126.072 185.984 121.496 169.48 120.408 152.008H136V136.008H120.408C121.496 118.536 126.072 102.032 133.496 87.136L147 94.936L155 81.08L141.432 73.248C150.88 59.064 163.064 46.88 177.232 37.432ZM104.496 153.728C107.808 202.904 135.824 245.32 176.296 268.688C162.688 285.912 142.224 296 120 296C80.304 296 48 263.704 48 224C48 189.672 71.768 160.84 104.496 153.728ZM40 112H107.712C105.832 120.24 104.728 128.752 104.336 137.456C62.648 144.888 32 180.904 32 224C32 272.52 71.48 312 120 312C148.248 312 174.088 298.608 190.672 276.024C208.256 283.688 227.624 288 248 288C268.376 288 287.744 283.688 305.328 276.024C321.912 298.608 347.752 312 376 312C424.52 312 464 272.52 464 224C464 180.904 433.352 144.888 391.672 137.456C391.28 128.752 390.176 120.24 388.296 112H456C469.232 112 480 122.768 480 136V384H16V136C16 122.768 26.768 112 40 112ZM344 480H152V448H344V480ZM456 432H40C26.768 432 16 421.232 16 408V400H480V408C480 421.232 469.232 432 456 432Z" fill="#333333"/>
<path id="Vector_2" d="M248 240C301.019 240 344 197.019 344 144C344 90.9807 301.019 48 248 48C194.981 48 152 90.9807 152 144C152 197.019 194.981 240 248 240Z" fill="#FFA64D"/>
<path id="Vector_3" d="M224 144C224 157.232 234.768 168 248 168C261.232 168 272 157.232 272 144C272 130.768 261.232 120 248 120C243.984 120 240.256 121.08 236.928 122.832L232.5 125.5L229 129.5L225.976 134.512C224.712 137.424 224 140.632 224 144Z" fill="#333333"/>
<g id="dot1">
<path id="Vector_4" d="M96 184H80V200H96V184Z" fill="#333333"/>
</g>
<g id="dot2">
<path id="Vector_5" d="M96 216H80V232H96V216Z" fill="#333333"/>
</g>
<g id="dot3">
<path id="Vector_6" d="M96 248H80V264H96V248Z" fill="#333333"/>
</g>
<g id="center">
<rect id="Rectangle 1" x="238" y="60" width="20" height="84" fill="#333333"/>
</g>
<g id="right">
<g id="Group 1">
<path id="Vector_7" d="M382.672 263.448L385.312 279.232C412.368 274.696 432 251.472 432 224C432 205.304 422.72 187.92 407.184 177.488L398.264 190.768C409.368 198.224 416 210.648 416 224C416 243.616 401.984 260.208 382.672 263.448Z" fill="#333333"/>
</g>
<path id="Vector_8" d="M366.656 279.208L369.352 263.44C364.648 262.632 360.144 260.992 355.968 258.576L347.928 272.408C353.76 275.8 360.056 278.088 366.656 279.208Z" fill="#333333"/>
</g>
</g>
</g>
</svg>
